<svg width="60" height="60" viewBox="0 0 60 60" fill="none" xmlns="http://www.w3.org/2000/svg">
<circle cx="30" cy="30" r="30" fill="#851A1D"/>
<g clip-path="url(#clip0_2444_1088)">
<path d="M49.8302 17.5651C49.6886 17.461 49.5011 17.4526 49.3554 17.5442C48.5225 18.0732 45.8152 19.3894 42.7664 22.4006L42.7164 22.3506C42.1874 21.8217 41.4877 21.5302 40.7421 21.5302C39.9966 21.5302 39.2969 21.8217 38.7679 22.3506L36.2981 24.8163C35.59 25.5285 35.3443 26.5281 35.5609 27.4361C35.3526 27.3903 35.1361 27.3612 34.9153 27.3612C34.1697 27.3612 33.4658 27.6485 32.9411 28.1775L30.4712 30.6474C29.7632 31.3554 29.5175 32.355 29.734 33.2671C28.7511 33.0339 27.7807 33.338 27.11 34.0043L24.6443 36.4742C23.5531 37.5612 23.5531 39.3355 24.6443 40.4226L24.6901 40.4684L23.1074 42.0511L22.7992 41.7429C22.6368 41.5805 22.3743 41.5805 22.2119 41.7429C22.0495 41.9053 22.0495 42.1678 22.2119 42.3302L22.5201 42.6425L18.4384 46.7201C17.8011 47.3574 17.8011 48.3945 18.4384 49.0317C18.7591 49.3483 19.1756 49.5065 19.5963 49.5065C20.0128 49.5065 20.4293 49.3483 20.75 49.0317L24.8275 44.95L25.1399 45.2582C25.3023 45.4249 25.5647 45.4249 25.7271 45.2582C25.8896 45.0958 25.8896 44.8334 25.7271 44.671L25.4189 44.3628L27.0017 42.78L27.0475 42.8258C27.5932 43.3714 28.3054 43.6421 29.0218 43.6421C29.7382 43.6421 30.4504 43.3714 30.996 42.8258L33.4658 40.3601C34.1739 39.6479 34.4196 38.6483 34.203 37.7403C35.186 37.9693 36.1564 37.6695 36.8228 36.9989L39.2926 34.5291C40.0048 33.821 40.2464 32.8214 40.0298 31.9092C41.0294 32.1467 41.9999 31.826 42.6538 31.1721L45.1195 28.7022C46.2107 27.6152 46.2107 25.8409 45.1195 24.7538L45.0695 24.7038C47.0104 22.7378 48.6472 20.5221 49.9343 18.1106C50.0509 17.9108 49.9885 17.6859 49.8302 17.5651ZM24.8276 43.7713L24.2654 43.2049L23.6989 42.6426L25.2817 41.0599L26.4104 42.1886L24.8276 43.7713ZM32.8744 39.7688L30.4087 42.2386C29.6424 43.0009 28.4012 43.0009 27.6348 42.2386L25.2316 39.8354C24.4694 39.0691 24.4694 37.8279 25.2316 37.0616L27.7014 34.5959C28.4636 33.8295 29.7089 33.8295 30.4712 34.5959L32.8744 36.9991C33.6407 37.7613 33.6407 39.0066 32.8744 39.7688ZM44.5323 28.1151L42.0625 30.5807C41.3003 31.3471 40.0549 31.3471 39.2927 30.5807L36.8895 28.1775C36.1232 27.4153 36.1232 26.17 36.8895 25.4078L39.3552 22.938C39.7384 22.5548 40.2424 22.3674 40.7421 22.3674C41.2461 22.3674 41.7459 22.5548 42.1291 22.938L44.5323 25.3412C45.2945 26.1075 45.2945 27.3487 44.5323 28.1151ZM44.4823 24.1167L43.3536 22.988C45.3778 20.9971 47.1979 19.7893 48.4432 19.0438C47.3311 20.8721 46.0025 22.5756 44.4823 24.1167ZM41.8792 9.61408C41.7418 9.5058 41.5501 9.4933 41.4002 9.58908C40.4214 10.2097 37.8516 11.4425 34.8111 14.4455L34.7611 14.3955C33.6741 13.3042 31.8998 13.3042 30.8127 14.3955L28.3429 16.8613C27.6349 17.5735 27.3891 18.5731 27.6057 19.4852C26.6936 19.2686 25.694 19.5143 24.986 20.2224L22.5161 22.6922C21.8081 23.4003 21.5623 24.3999 21.7789 25.312C20.8668 25.0954 19.8672 25.3411 19.155 26.0492L16.6893 28.519C15.598 29.606 15.598 31.3803 16.6893 32.4674L16.7351 32.5174L15.1523 34.096L14.8441 33.7878C14.6817 33.6254 14.4193 33.6254 14.2568 33.7878C14.0944 33.9503 14.0944 34.2127 14.2568 34.3751L14.565 34.6874L10.4833 38.765C9.84605 39.4022 9.84605 40.4393 10.4833 41.0766C11.1206 41.7097 12.1535 41.718 12.7949 41.0766L16.8724 36.9949L17.1847 37.3072C17.3471 37.4696 17.6096 37.4696 17.772 37.3072C17.9344 37.1406 17.9344 36.8782 17.772 36.7157L17.4638 36.4075L19.0465 34.8248L19.0923 34.8706C19.6213 35.3996 20.321 35.6911 21.0665 35.6911C21.8121 35.6911 22.5118 35.3995 23.0407 34.8706L25.5106 32.4049C26.2186 31.6927 26.4643 30.6931 26.2478 29.781C27.2432 30.0185 28.2136 29.6977 28.8676 29.0438L31.3375 26.574C32.0455 25.866 32.2912 24.8663 32.0746 23.9542C33.0743 24.1916 34.0447 23.8709 34.6986 23.2171L37.1643 20.7472C38.2556 19.6602 38.2556 17.8859 37.1643 16.7988L37.1143 16.7488C39.7841 14.0456 41.8083 10.6678 42.0165 10.0764C42.075 9.90979 42.0166 9.72236 41.8792 9.61408ZM16.8725 35.8162C16.8433 35.787 15.8271 34.7708 15.7438 34.6874L17.3265 33.1048L18.4553 34.2377L16.8725 35.8162ZM24.9193 31.8136L22.4536 34.2835C21.6871 35.0456 20.4461 35.0456 19.6796 34.2835L17.2764 31.8803C16.5143 31.1139 16.5143 29.8728 17.2764 29.1063L19.7463 26.6407C20.5127 25.8743 21.7538 25.8785 22.5161 26.6407L24.9193 29.0439C25.6856 29.8061 25.6856 31.0514 24.9193 31.8136ZM36.5771 20.1599L34.1072 22.6256C33.345 23.3919 32.0996 23.3919 31.3375 22.6256L28.9343 20.2224C28.168 19.4602 28.168 18.2149 28.9343 17.4526L31.4 14.9828C32.1664 14.2205 33.4076 14.2205 34.1739 14.9828L36.5771 17.386C37.3393 18.1524 37.3393 19.3935 36.5771 20.1599ZM36.5271 16.1615L35.4026 15.0328C37.4226 13.0419 39.2428 11.8341 40.4881 11.0885C39.376 12.9211 38.0474 14.6204 36.5271 16.1615Z" fill="#FFD40D"/>
</g>
<defs>
<clipPath id="clip0_2444_1088">
<rect width="40" height="40" fill="white" transform="translate(10 9.51562)"/>
</clipPath>
</defs>
</svg>
