<svg width="60" height="60" viewBox="0 0 60 60" fill="none" xmlns="http://www.w3.org/2000/svg">
<circle cx="30" cy="30" r="30" fill="#851A1D"/>
<g clip-path="url(#clip0_2398_1239)">
<path d="M29.3752 10.1406V12.6406V26.3906C29.3752 26.6406 29.5314 26.8594 29.7502 26.9531C29.8439 27.0156 29.9064 27.0156 30.0002 27.0156C30.1564 27.0156 30.3127 26.9531 30.4377 26.8281L40.1564 17.1094L41.9377 15.3281C42.1877 15.0781 42.1877 14.7031 41.9377 14.4531C38.7502 11.2656 34.5002 9.51562 30.0002 9.51562C29.6564 9.51562 29.3752 9.79688 29.3752 10.1406ZM30.6252 10.7656C34.3439 10.9219 37.8439 12.3594 40.5939 14.8906L39.7189 15.7656L39.6877 15.7344C39.6252 15.6719 39.5627 15.6406 39.5314 15.5781C39.4064 15.4844 39.3127 15.3906 39.1877 15.2969C39.1252 15.2344 39.0627 15.1719 38.9689 15.1406C38.8752 15.0469 38.7502 14.9844 38.6564 14.8906C38.5939 14.8281 38.5002 14.7969 38.4377 14.7344C38.3439 14.6406 38.2189 14.5781 38.1252 14.5156C38.0627 14.4531 37.9689 14.4219 37.9064 14.3594C37.7814 14.2969 37.6877 14.2031 37.5627 14.1406C37.5002 14.0781 37.4064 14.0469 37.3127 13.9844C37.1877 13.9219 37.0627 13.8594 36.9689 13.7969C36.9064 13.7656 36.8127 13.7031 36.7502 13.6719C36.6252 13.6094 36.5002 13.5469 36.3439 13.4844C36.2814 13.4531 36.2189 13.4219 36.1564 13.3906C35.9689 13.2969 35.7814 13.2031 35.5627 13.1406H35.5314C35.3439 13.0469 35.1252 12.9844 34.9377 12.9219C34.8752 12.8906 34.7814 12.8594 34.7189 12.8594C34.5939 12.7969 34.4377 12.7656 34.3127 12.7344C34.2189 12.7031 34.1564 12.6719 34.0627 12.6719C33.9377 12.6406 33.8127 12.6094 33.6877 12.5781C33.5939 12.5469 33.5002 12.5469 33.4064 12.5156C33.2814 12.4844 33.1564 12.4531 33.0314 12.4219C32.9377 12.3906 32.8439 12.3906 32.7502 12.3594C32.6252 12.3281 32.5002 12.3281 32.3752 12.2969C32.2814 12.2969 32.1877 12.2656 32.0939 12.2656C31.9689 12.2344 31.8127 12.2344 31.6877 12.2031C31.5939 12.2031 31.5002 12.1719 31.4064 12.1719C31.2502 12.1719 31.1252 12.1406 30.9689 12.1406C30.8752 12.1406 30.8127 12.1406 30.7189 12.1406C30.6877 12.1406 30.6877 12.1406 30.6564 12.1406V10.7656H30.6252ZM30.6252 13.2656C30.6877 13.2656 30.7189 13.2656 30.7814 13.2656C30.9377 13.2656 31.0939 13.2969 31.2502 13.2969C31.3127 13.2969 31.4064 13.3281 31.4689 13.3281C31.5939 13.3281 31.7189 13.3594 31.8439 13.3906C31.9377 13.3906 32.0002 13.4219 32.0939 13.4219C32.2189 13.4531 32.3439 13.4531 32.4689 13.4844C32.5627 13.4844 32.6252 13.5156 32.7189 13.5469C32.8439 13.5781 32.9689 13.6094 33.0627 13.6406C33.1564 13.6719 33.2189 13.6719 33.3127 13.7031C33.4377 13.7344 33.5627 13.7656 33.6564 13.7969C33.7189 13.8281 33.8127 13.8281 33.8752 13.8594C34.0002 13.8906 34.1252 13.9531 34.2502 13.9844C34.3127 14.0156 34.3752 14.0156 34.4377 14.0469C34.6252 14.1094 34.8127 14.1719 35.0002 14.2656C35.1877 14.3281 35.3752 14.4219 35.5314 14.5156C35.5939 14.5469 35.6564 14.5781 35.7189 14.6094C35.8439 14.6719 35.9689 14.7344 36.0939 14.7969C36.1564 14.8281 36.2189 14.8594 36.3127 14.9219C36.4064 14.9844 36.5314 15.0469 36.6252 15.1094C36.6877 15.1406 36.7502 15.2031 36.8439 15.2344C36.9377 15.2969 37.0627 15.3594 37.1564 15.4219C37.2189 15.4531 37.2814 15.5156 37.3752 15.5469C37.4689 15.6094 37.5627 15.7031 37.6877 15.7656C37.7502 15.8281 37.8127 15.8594 37.8752 15.9219C37.9689 16.0156 38.0939 16.0781 38.1877 16.1719C38.2502 16.2031 38.3127 16.2656 38.3439 16.2969C38.4689 16.3906 38.5939 16.5156 38.7189 16.6094C38.7502 16.6406 38.7814 16.6719 38.8127 16.7031L30.6252 24.8906V13.2656ZM30.7814 40.1406C30.7814 40.1719 30.7189 40.2656 30.6877 40.2969C30.4377 40.5156 30.4064 40.9219 30.6252 41.1719C30.7502 41.3281 30.9377 41.3906 31.0939 41.3906C31.2502 41.3906 31.3752 41.3281 31.5002 41.2344C31.5627 41.2031 32.0314 40.7656 32.0314 40.1406C32.0314 39.8594 31.9377 39.4531 31.5314 39.0469C31.2814 38.7969 30.8752 38.8281 30.6564 39.0781C30.4064 39.3281 30.4377 39.7344 30.6877 39.9531C30.7502 40.0469 30.7814 40.1094 30.7814 40.1406ZM29.7502 43.2031C29.9689 43.2969 30.0314 43.4844 30.0314 43.4844C30.1252 43.7344 30.3752 43.8906 30.6252 43.8906C30.6877 43.8906 30.7814 43.8906 30.8439 43.8594C31.1564 43.7344 31.3127 43.3906 31.2189 43.0469C31.1877 42.9844 30.9377 42.3594 30.2502 42.0781C29.9377 41.9531 29.5627 42.0781 29.4377 42.3906C29.2814 42.7031 29.4377 43.0781 29.7502 43.2031ZM34.2189 34.1094C33.9689 34.3594 34.0002 34.7656 34.2502 34.9844C34.3439 35.0781 34.3752 35.1094 34.3752 35.1406C34.3752 35.1719 34.3127 35.2656 34.2814 35.2969C34.0314 35.5156 34.0002 35.9219 34.2189 36.1719C34.3439 36.3281 34.5314 36.3906 34.6877 36.3906C34.8439 36.3906 34.9689 36.3281 35.0939 36.2344C35.1564 36.2031 35.6252 35.7656 35.6252 35.1406C35.6252 34.8594 35.5314 34.4531 35.1252 34.0469C34.8439 33.8281 34.4377 33.8594 34.2189 34.1094ZM37.4689 38.0469C37.4377 37.9844 37.1877 37.3594 36.5002 37.0781C36.1877 36.9531 35.8127 37.0781 35.6877 37.3906C35.5627 37.7031 35.6877 38.0781 36.0002 38.2031C36.2189 38.2969 36.2814 38.4844 36.2814 38.4844C36.3752 38.7344 36.6252 38.8906 36.8752 38.8906C36.9377 38.8906 37.0314 38.8906 37.0939 38.8594C37.4064 38.7344 37.5939 38.3594 37.4689 38.0469ZM24.3752 38.4531C24.1252 38.7031 24.1564 39.1094 24.4064 39.3281C24.5002 39.4219 24.5314 39.4531 24.5314 39.4844C24.5314 39.5156 24.4689 39.6094 24.4377 39.6406C24.1877 39.8594 24.1564 40.2656 24.3752 40.5156C24.5002 40.6719 24.6877 40.7344 24.8439 40.7344C25.0002 40.7344 25.1252 40.6719 25.2502 40.5781C25.3127 40.5469 25.7814 40.1094 25.7814 39.4844C25.7814 39.2031 25.6877 38.7969 25.2814 38.3906C25.0002 38.2031 24.6252 38.2031 24.3752 38.4531ZM24.0002 41.4531C23.6877 41.3281 23.3127 41.4531 23.1877 41.7656C23.0627 42.0781 23.1877 42.4531 23.5002 42.5781C23.7189 42.6719 23.7814 42.8594 23.7814 42.8594C23.8752 43.1094 24.1252 43.2656 24.3752 43.2656C24.4377 43.2656 24.5314 43.2656 24.5939 43.2344C24.9064 43.1094 25.0627 42.7656 24.9689 42.4219C24.9377 42.3594 24.6877 41.7344 24.0002 41.4531ZM18.5939 35.4531C18.5939 35.4844 18.5314 35.5781 18.5002 35.6094C18.2502 35.8281 18.2189 36.2344 18.4377 36.4844C18.5627 36.6406 18.7502 36.7031 18.9064 36.7031C19.0627 36.7031 19.1877 36.6406 19.3127 36.5469C19.3752 36.5156 19.8439 36.0781 19.8439 35.4531C19.8439 35.1719 19.7502 34.7656 19.3439 34.3594C19.0939 34.1094 18.6877 34.1406 18.4689 34.3906C18.2189 34.6406 18.2502 35.0469 18.5002 35.2656C18.5627 35.3594 18.5939 35.4219 18.5939 35.4531ZM17.5627 38.5156C17.7814 38.6094 17.8439 38.7969 17.8439 38.7969C17.9377 39.0469 18.1877 39.2031 18.4377 39.2031C18.5002 39.2031 18.5939 39.2031 18.6564 39.1719C18.9689 39.0469 19.1252 38.7031 19.0314 38.3594C19.0002 38.2969 18.7502 37.6719 18.0627 37.3906C17.7502 37.2656 17.3752 37.3906 17.2502 37.7031C17.0939 38.0156 17.2502 38.3906 17.5627 38.5156ZM19.7189 30.5156C19.7502 30.5469 20.0002 30.6406 20.3439 30.6406C20.5314 30.6406 20.7189 30.6094 20.9377 30.5156C21.1877 30.3906 21.5314 30.1406 21.6877 29.5781C21.7814 29.2344 21.5939 28.8906 21.2502 28.7969C20.9064 28.7031 20.5627 28.8906 20.4689 29.2344C20.4377 29.3594 20.4064 29.3906 20.3752 29.3906C20.3439 29.4219 20.2502 29.3906 20.1877 29.3906C19.8752 29.2656 19.5002 29.3906 19.3752 29.7344C19.2502 30.0156 19.3752 30.3906 19.7189 30.5156ZM17.0627 27.8906C16.7189 27.9219 16.4377 28.2031 16.4689 28.5469C16.4689 28.7656 16.3439 28.9219 16.3439 28.9219C16.1252 29.1719 16.1252 29.5781 16.3752 29.7969C16.5002 29.9219 16.6564 29.9531 16.8127 29.9531C16.9689 29.9531 17.1564 29.8906 17.2814 29.7656C17.3439 29.7031 17.7502 29.2344 17.7189 28.4844C17.6877 28.1406 17.4064 27.8594 17.0627 27.8906ZM25.3439 21.1719C25.0002 21.0781 24.6564 21.2656 24.5627 21.6094C24.5314 21.7344 24.5002 21.7656 24.4689 21.7656C24.4377 21.7969 24.3439 21.7656 24.2814 21.7656C23.9689 21.6406 23.5939 21.7656 23.4689 22.1094C23.3439 22.4219 23.4689 22.7969 23.8127 22.9219C23.8439 22.9531 24.0939 23.0469 24.4377 23.0469C24.6252 23.0469 24.8127 23.0156 25.0314 22.9219C25.2814 22.7969 25.6252 22.5469 25.7814 21.9844C25.8439 21.6406 25.6564 21.2969 25.3439 21.1719ZM23.9689 24.7656C23.6252 24.7969 23.3439 25.0781 23.3752 25.4219C23.3752 25.6406 23.2502 25.7969 23.2502 25.7969C23.0314 26.0469 23.0314 26.4531 23.2814 26.6719C23.4064 26.7969 23.5627 26.8281 23.7189 26.8281C23.8752 26.8281 24.0627 26.7656 24.1877 26.6406C24.2502 26.5781 24.6564 26.1094 24.6252 25.3594C24.6252 25.0156 24.3127 24.7344 23.9689 24.7656ZM36.5002 29.5469C36.5314 29.5781 36.7814 29.6719 37.1252 29.6719C37.3127 29.6719 37.5002 29.6406 37.7189 29.5469C37.9689 29.4219 38.3127 29.1719 38.4689 28.6094C38.5627 28.2656 38.3752 27.9219 38.0314 27.8281C37.6877 27.7344 37.3439 27.9219 37.2502 28.2656C37.2189 28.3906 37.1877 28.4219 37.1564 28.4219C37.1252 28.4531 37.0314 28.4219 36.9689 28.4219C36.6564 28.2969 36.2814 28.4219 36.1564 28.7656C36.0314 29.0469 36.1877 29.3906 36.5002 29.5469ZM34.3127 30.2969C34.4689 30.2969 34.6564 30.2344 34.7814 30.1094C34.8439 30.0469 35.2502 29.5781 35.2189 28.8281C35.1877 28.4844 34.9064 28.2344 34.5627 28.2344C34.2189 28.2656 33.9377 28.5469 33.9689 28.8906C33.9689 29.1094 33.8439 29.2656 33.8439 29.2656C33.6252 29.5156 33.6252 29.9219 33.8752 30.1406C34.0002 30.2344 34.1564 30.2969 34.3127 30.2969Z" fill="#FFD40D"/>
<path d="M35.8439 16.5465C35.5002 16.4528 35.1564 16.6403 35.0627 16.984C35.0314 17.109 35.0002 17.1403 34.9689 17.1403C34.9377 17.1715 34.8439 17.1403 34.7814 17.1403C34.4689 17.0153 34.0939 17.1403 33.9689 17.484C33.8439 17.7965 33.9689 18.1715 34.3127 18.2965C34.3439 18.3278 34.5939 18.4215 34.9377 18.4215C35.1252 18.4215 35.3127 18.3903 35.5314 18.2965C35.7814 18.1715 36.1252 17.9215 36.2814 17.359C36.3752 16.984 36.1877 16.6403 35.8439 16.5465ZM32.3752 16.9528C32.0314 16.984 31.7502 17.2653 31.7814 17.609C31.7814 17.8278 31.6564 17.984 31.6564 17.984C31.4377 18.234 31.4377 18.6403 31.6877 18.859C31.8127 18.984 31.9689 19.0153 32.1252 19.0153C32.2814 19.0153 32.4689 18.9528 32.5939 18.8278C32.6564 18.7653 33.0627 18.2965 33.0314 17.5465C33.0002 17.2028 32.7189 16.9215 32.3752 16.9528Z" fill="#FFD40D"/>
<path d="M27.5 49.5156C32 49.5156 36.25 47.7656 39.4375 44.5781C42.625 41.3906 44.375 37.1406 44.375 32.6406C44.375 28.1406 42.625 23.8906 39.4375 20.7031C39.1875 20.4531 38.8125 20.4531 38.5625 20.7031L29.0312 30.2344C28.75 30.0781 28.4688 29.9531 28.125 29.9219V18.8906V16.3906C28.125 16.0469 27.8438 15.7656 27.5 15.7656C23 15.7656 18.75 17.5156 15.5625 20.7031C12.375 23.8906 10.625 28.1406 10.625 32.6406C10.625 37.1406 12.375 41.3906 15.5625 44.5781C18.75 47.7656 23 49.5156 27.5 49.5156ZM37.2188 23.8281C39.2812 26.0781 40.4688 28.9531 40.625 32.0156H30.3438C30.25 31.6719 30.125 31.3594 29.9375 31.0781L37.2188 23.8281ZM30.3438 33.2656H40.625C40.4688 36.3281 39.2812 39.2031 37.2188 41.4531L29.9375 34.2031C30.125 33.9219 30.2812 33.6094 30.3438 33.2656ZM36.3125 42.3594C34.0625 44.4219 31.1875 45.6094 28.125 45.7656V35.3594C28.4375 35.2969 28.75 35.2031 29.0312 35.0469L36.3125 42.3594ZM27.6562 31.1094C28.5 31.1094 29.1875 31.7969 29.1875 32.6406C29.1875 33.4844 28.5 34.1719 27.6562 34.1719C26.8125 34.1719 26.125 33.4844 26.125 32.6406C26.125 31.7969 26.8125 31.1094 27.6562 31.1094ZM25.25 31.2656C25.125 31.4844 25.0313 31.7344 24.9688 32.0156H14.375C14.5312 28.9531 15.7188 26.0781 17.7812 23.8281L25.25 31.2656ZM18.6875 22.9219C20.9375 20.8594 23.8125 19.6719 26.875 19.5156V29.9531C26.5938 30.0469 26.3438 30.1719 26.0938 30.3281L18.6875 22.9219ZM24.9688 33.2656C25.0313 33.5156 25.125 33.7656 25.25 34.0156L17.7812 41.4844C15.7188 39.2031 14.5312 36.3281 14.375 33.2656H24.9688ZM26.0938 34.9219C26.3438 35.0781 26.5938 35.2031 26.875 35.2969V45.7656C23.8125 45.6094 20.9375 44.4219 18.6875 42.3594L26.0938 34.9219ZM16.4375 21.5781C19.25 18.7656 22.9375 17.1719 26.875 17.0156V18.2656C23.2812 18.4219 19.9062 19.8906 17.3438 22.4531C14.625 25.2031 13.125 28.7969 13.125 32.6406C13.125 36.4844 14.625 40.0781 17.3438 42.7969C20.0625 45.5156 23.6562 47.0156 27.5 47.0156C31.3438 47.0156 34.9375 45.5156 37.6562 42.7969C40.375 40.0781 41.875 36.4844 41.875 32.6406C41.875 29.0156 40.5312 25.5781 38.0938 22.9219L38.9688 22.0469C41.6562 24.9219 43.125 28.6719 43.125 32.6406C43.125 36.8281 41.5 40.7344 38.5625 43.7031C35.625 46.6406 31.6875 48.2656 27.5 48.2656C23.3125 48.2656 19.4062 46.6406 16.4375 43.7031C13.5 40.7344 11.875 36.8281 11.875 32.6406C11.875 28.4531 13.5 24.5469 16.4375 21.5781Z" fill="#FFD40D"/>
</g>
<defs>
<clipPath id="clip0_2398_1239">
<rect width="40" height="40" fill="white" transform="translate(10 9.51562)"/>
</clipPath>
</defs>
</svg>
