<svg width="60" height="60" viewBox="0 0 60 60" fill="none" xmlns="http://www.w3.org/2000/svg">
<circle cx="30" cy="30" r="30" fill="#851A1D"/>
<path d="M31.6399 43.9232C31.6401 43.8411 31.624 43.7597 31.5927 43.6838C31.5614 43.6078 31.5153 43.5387 31.4573 43.4805C31.3992 43.4223 31.3303 43.3762 31.2544 43.3447C31.1785 43.3132 31.0971 43.297 31.0149 43.297C30.9327 43.297 30.8514 43.3132 30.7754 43.3447C30.6995 43.3762 30.6306 43.4223 30.5725 43.4805C30.5145 43.5387 30.4685 43.6078 30.4371 43.6838C30.4058 43.7597 30.3898 43.8411 30.3899 43.9232C30.3898 44.0054 30.4058 44.0869 30.4371 44.1629C30.4685 44.2388 30.5145 44.3078 30.5725 44.366C30.6306 44.4242 30.6995 44.4703 30.7754 44.5018C30.8514 44.5333 30.9327 44.5495 31.0149 44.5495C31.0971 44.5495 31.1785 44.5333 31.2544 44.5018C31.3303 44.4703 31.3992 44.4242 31.4573 44.366C31.5153 44.3078 31.5614 44.2388 31.5927 44.1629C31.624 44.0869 31.6401 44.0054 31.6399 43.9232ZM30.215 46.3912C30.2151 46.3091 30.1989 46.2278 30.1675 46.152C30.1361 46.0761 30.0901 46.0072 30.0321 45.9491C29.974 45.8911 29.9051 45.8449 29.8293 45.8135C29.7535 45.7821 29.6722 45.7659 29.5901 45.7659C29.508 45.7659 29.4267 45.7821 29.3508 45.8135C29.275 45.8449 29.2061 45.8911 29.1481 45.9491C29.09 46.0072 29.044 46.0761 29.0126 46.152C28.9812 46.2278 28.9651 46.3091 28.9651 46.3912C28.9651 46.4733 28.9812 46.5545 29.0126 46.6304C29.044 46.7062 29.09 46.7751 29.1481 46.8332C29.2061 46.8913 29.275 46.9373 29.3508 46.9687C29.4267 47.0001 29.508 47.0164 29.5901 47.0164C29.6722 47.0164 29.7535 47.0001 29.8293 46.9687C29.9051 46.9373 29.974 46.8913 30.0321 46.8332C30.0901 46.7751 30.1361 46.7062 30.1675 46.6304C30.1989 46.5545 30.2151 46.4733 30.215 46.3912ZM33.0647 41.4553C33.0648 41.3732 33.0488 41.2918 33.0174 41.2158C32.9861 41.1399 32.94 41.071 32.882 41.0128C32.8239 40.9547 32.755 40.9086 32.6791 40.8772C32.6032 40.8457 32.5219 40.8295 32.4398 40.8295C32.3576 40.8295 32.2763 40.8457 32.2004 40.8772C32.1245 40.9086 32.0556 40.9547 31.9975 41.0128C31.9395 41.071 31.8935 41.1399 31.8621 41.2158C31.8307 41.2918 31.8147 41.3732 31.8148 41.4553C31.8147 41.5375 31.8307 41.6189 31.8621 41.6948C31.8935 41.7707 31.9395 41.8396 31.9975 41.8978C32.0556 41.9559 32.1245 42.0021 32.2004 42.0336C32.2763 42.065 32.3576 42.0812 32.4398 42.0812C32.5219 42.0812 32.6032 42.065 32.6791 42.0336C32.755 42.0021 32.8239 41.9559 32.882 41.8978C32.94 41.8396 32.9861 41.7707 33.0174 41.6948C33.0488 41.6189 33.0648 41.5375 33.0647 41.4553ZM34.4896 43.9232C34.4897 43.8411 34.4737 43.7597 34.4423 43.6838C34.411 43.6078 34.365 43.5388 34.3069 43.4806C34.2489 43.4225 34.1799 43.3764 34.104 43.345C34.0281 43.3135 33.9468 43.2972 33.8646 43.2972C33.7824 43.2972 33.7011 43.3135 33.6252 43.345C33.5493 43.3764 33.4803 43.4225 33.4223 43.4806C33.3642 43.5388 33.3182 43.6078 33.2869 43.6838C33.2555 43.7597 33.2395 43.8411 33.2396 43.9232C33.2395 44.0054 33.2555 44.0868 33.2869 44.1627C33.3182 44.2387 33.3642 44.3077 33.4223 44.3658C33.4803 44.424 33.5493 44.4702 33.6252 44.5017C33.7011 44.5331 33.7824 44.5494 33.8646 44.5494C33.9468 44.5494 34.0281 44.5331 34.104 44.5017C34.1799 44.4702 34.2489 44.424 34.3069 44.3658C34.365 44.3077 34.411 44.2387 34.4423 44.1627C34.4737 44.0868 34.4897 44.0054 34.4896 43.9232ZM33.0647 46.3912C33.0648 46.309 33.0488 46.2276 33.0174 46.1517C32.9861 46.0758 32.94 46.0068 32.882 45.9487C32.8239 45.8906 32.755 45.8444 32.6791 45.8129C32.6032 45.7814 32.5219 45.7653 32.4398 45.7653C32.3576 45.7653 32.2763 45.7814 32.2004 45.8129C32.1245 45.8444 32.0556 45.8906 31.9975 45.9487C31.9395 46.0068 31.8935 46.0758 31.8621 46.1517C31.8307 46.2276 31.8147 46.309 31.8148 46.3912C31.8147 46.4733 31.8307 46.5547 31.8621 46.6306C31.8935 46.7066 31.9395 46.7755 31.9975 46.8336C32.0556 46.8918 32.1245 46.9378 32.2004 46.9693C32.2763 47.0008 32.3576 47.017 32.4398 47.017C32.5219 47.017 32.6032 47.0008 32.6791 46.9693C32.755 46.9378 32.8239 46.8918 32.882 46.8336C32.94 46.7755 32.9861 46.7066 33.0174 46.6306C33.0488 46.5547 33.0648 46.4733 33.0647 46.3912ZM35.9144 46.3912C35.9146 46.309 35.8985 46.2277 35.8672 46.1517C35.8358 46.0758 35.7898 46.0067 35.7318 45.9486C35.6737 45.8904 35.6048 45.8442 35.5289 45.8128C35.453 45.7813 35.3716 45.765 35.2894 45.765C35.2073 45.765 35.1259 45.7813 35.05 45.8128C34.9741 45.8442 34.9052 45.8904 34.8471 45.9486C34.7891 46.0067 34.7431 46.0758 34.7117 46.1517C34.6804 46.2277 34.6643 46.309 34.6645 46.3912C34.6643 46.4733 34.6804 46.5547 34.7117 46.6306C34.7431 46.7066 34.7891 46.7756 34.8471 46.8338C34.9052 46.8919 34.9741 46.9381 35.05 46.9696C35.1259 47.0011 35.2073 47.0172 35.2894 47.0172C35.3716 47.0172 35.453 47.0011 35.5289 46.9696C35.6048 46.9381 35.6737 46.8919 35.7318 46.8338C35.7898 46.7756 35.8358 46.7066 35.8672 46.6306C35.8985 46.5547 35.9146 46.4733 35.9144 46.3912ZM25.791 16.3584L28.2972 12.0176L29.4195 14.1735L31.8478 14.0677L32.9702 16.2238L35.3985 16.118L36.5208 18.2739L38.9491 18.1681L40.0714 20.3242L42.4997 20.2184L43.622 22.3743L46.0504 22.2685L43.5442 26.6094L25.791 16.3584Z" fill="#FFD40D"/>
<path d="M25.5264 17.6484L25.7169 20.5853L20.0799 30.3504L17.4385 31.6565L31.5588 39.8079L34.2809 38.5507L39.9178 28.7856L42.5592 27.4819L25.5264 17.6484ZM24.6842 28.2949C24.7677 28.2926 24.8508 28.3071 24.9286 28.3374C25.0064 28.3678 25.0773 28.4135 25.1372 28.4718C25.1971 28.53 25.2446 28.5997 25.2771 28.6766C25.3096 28.7536 25.3263 28.8363 25.3263 28.9198C25.3263 29.0019 25.3101 29.0832 25.2787 29.1591C25.2474 29.2349 25.2013 29.3038 25.1433 29.3619C25.0853 29.42 25.0163 29.466 24.9405 29.4974C24.8647 29.5289 24.7834 29.545 24.7013 29.545C24.6192 29.545 24.5379 29.5289 24.4621 29.4974C24.3862 29.466 24.3173 29.42 24.2593 29.3619C24.2012 29.3038 24.1552 29.2349 24.1238 29.1591C24.0924 29.0832 24.0763 29.0019 24.0763 28.9198C24.0763 28.757 24.1397 28.6006 24.2533 28.4838C24.3668 28.3671 24.5214 28.2993 24.6842 28.2949ZM27.5332 28.2949C27.6167 28.2926 27.6998 28.3071 27.7776 28.3374C27.8554 28.3678 27.9263 28.4135 27.9862 28.4718C28.046 28.53 28.0936 28.5997 28.1261 28.6766C28.1585 28.7536 28.1753 28.8363 28.1752 28.9198C28.1753 29.002 28.1592 29.0833 28.1278 29.1592C28.0965 29.2351 28.0505 29.3041 27.9924 29.3622C27.9344 29.4203 27.8654 29.4664 27.7896 29.4978C27.7137 29.5293 27.6324 29.5455 27.5503 29.5455C27.4681 29.5455 27.3868 29.5293 27.3109 29.4978C27.2351 29.4664 27.1661 29.4203 27.1081 29.3622C27.0501 29.3041 27.004 29.2351 26.9727 29.1592C26.9413 29.0833 26.9252 29.002 26.9253 28.9198C26.9252 28.757 26.9887 28.6006 27.1023 28.4838C27.2158 28.3671 27.3704 28.2993 27.5332 28.2949ZM30.3821 28.2949C30.4656 28.2926 30.5487 28.3071 30.6266 28.3374C30.7044 28.3678 30.7753 28.4135 30.8351 28.4718C30.895 28.53 30.9426 28.5997 30.975 28.6766C31.0075 28.7536 31.0242 28.8363 31.0242 28.9198C31.0243 29.002 31.0082 29.0833 30.9768 29.1592C30.9455 29.2351 30.8994 29.3041 30.8414 29.3622C30.7833 29.4203 30.7144 29.4664 30.6386 29.4978C30.5627 29.5293 30.4814 29.5455 30.3992 29.5455C30.3171 29.5455 30.2358 29.5293 30.1599 29.4978C30.084 29.4664 30.0151 29.4203 29.9571 29.3622C29.899 29.3041 29.853 29.2351 29.8216 29.1592C29.7903 29.0833 29.7742 29.002 29.7743 28.9198C29.7742 28.757 29.8377 28.6006 29.9512 28.4838C30.0648 28.3671 30.2194 28.2993 30.3821 28.2949ZM33.2336 28.2949C33.3168 28.2929 33.3997 28.3076 33.4772 28.3382C33.5547 28.3687 33.6254 28.4144 33.685 28.4726C33.7446 28.5309 33.7919 28.6004 33.8242 28.6772C33.8566 28.754 33.8732 28.8365 33.8732 28.9198C33.8733 29.002 33.8572 29.0833 33.8258 29.1592C33.7944 29.2351 33.7484 29.3041 33.6904 29.3622C33.6323 29.4203 33.5634 29.4664 33.4875 29.4978C33.4117 29.5293 33.3303 29.5455 33.2482 29.5455C33.1661 29.5455 33.0847 29.5293 33.0089 29.4978C32.933 29.4664 32.8641 29.4203 32.806 29.3622C32.748 29.3041 32.702 29.2351 32.6706 29.1592C32.6392 29.0833 32.6231 29.002 32.6232 28.9198C32.6232 28.7566 32.687 28.5998 32.8011 28.483C32.9151 28.3662 33.0704 28.2987 33.2336 28.2949ZM36.0825 28.2949C36.166 28.2926 36.2491 28.3071 36.3269 28.3374C36.4048 28.3678 36.4757 28.4135 36.5355 28.4718C36.5954 28.53 36.643 28.5997 36.6754 28.6766C36.7079 28.7536 36.7246 28.8363 36.7246 28.9198C36.7246 29.0019 36.7085 29.0832 36.6771 29.1591C36.6457 29.2349 36.5997 29.3038 36.5416 29.3619C36.4836 29.42 36.4147 29.466 36.3388 29.4974C36.263 29.5289 36.1817 29.545 36.0996 29.545C36.0175 29.545 35.9362 29.5289 35.8604 29.4974C35.7846 29.466 35.7156 29.42 35.6576 29.3619C35.5996 29.3038 35.5535 29.2349 35.5221 29.1591C35.4908 29.0832 35.4746 29.0019 35.4746 28.9198C35.4746 28.757 35.5381 28.6006 35.6516 28.4838C35.7651 28.3671 35.9198 28.2993 36.0825 28.2949ZM23.2585 30.763C23.342 30.7607 23.4251 30.7752 23.5029 30.8056C23.5807 30.836 23.6516 30.8816 23.7115 30.9399C23.7713 30.9981 23.8189 31.0678 23.8514 31.1448C23.8839 31.2217 23.9006 31.3044 23.9005 31.388C23.9006 31.4701 23.8844 31.5513 23.853 31.6272C23.8216 31.7031 23.7756 31.772 23.7176 31.83C23.6595 31.8881 23.5906 31.9342 23.5148 31.9656C23.439 31.997 23.3577 32.0132 23.2756 32.0132C23.1935 32.0132 23.1122 31.997 23.0364 31.9656C22.9605 31.9342 22.8916 31.8881 22.8336 31.83C22.7755 31.772 22.7295 31.7031 22.6981 31.6272C22.6667 31.5513 22.6506 31.4701 22.6506 31.388C22.6505 31.2251 22.714 31.0687 22.8276 30.952C22.9411 30.8352 23.0957 30.7674 23.2585 30.763ZM26.1075 30.763C26.191 30.7607 26.2741 30.7752 26.3519 30.8056C26.4297 30.836 26.5006 30.8816 26.5605 30.9399C26.6203 30.9981 26.6679 31.0678 26.7004 31.1448C26.7328 31.2217 26.7495 31.3044 26.7495 31.388C26.7497 31.4701 26.7337 31.5516 26.7023 31.6276C26.671 31.7035 26.625 31.7726 26.567 31.8308C26.5089 31.889 26.44 31.9351 26.364 31.9666C26.2881 31.9981 26.2067 32.0143 26.1245 32.0143C26.0424 32.0143 25.961 31.9981 25.8851 31.9666C25.8091 31.9351 25.7402 31.889 25.6821 31.8308C25.6241 31.7726 25.5781 31.7035 25.5468 31.6276C25.5154 31.5516 25.4994 31.4701 25.4996 31.388C25.4995 31.2251 25.563 31.0687 25.6765 30.952C25.7901 30.8352 25.9447 30.7674 26.1075 30.763ZM28.9589 30.763C29.0424 30.7607 29.1255 30.7752 29.2033 30.8056C29.2811 30.836 29.352 30.8816 29.4119 30.9399C29.4717 30.9981 29.5193 31.0678 29.5518 31.1448C29.5842 31.2217 29.601 31.3044 29.6009 31.388C29.601 31.4701 29.5849 31.5514 29.5536 31.6273C29.5222 31.7032 29.4762 31.7722 29.4181 31.8303C29.3601 31.8884 29.2912 31.9345 29.2153 31.966C29.1394 31.9974 29.0581 32.0136 28.976 32.0136C28.8938 32.0136 28.8125 31.9974 28.7366 31.966C28.6608 31.9345 28.5918 31.8884 28.5338 31.8303C28.4758 31.7722 28.4297 31.7032 28.3984 31.6273C28.367 31.5514 28.3509 31.4701 28.351 31.388C28.3509 31.2251 28.4144 31.0687 28.528 30.952C28.6415 30.8352 28.7961 30.7674 28.9589 30.763ZM31.8078 30.763C31.8913 30.7607 31.9745 30.7752 32.0523 30.8056C32.1301 30.836 32.201 30.8816 32.2609 30.9399C32.3207 30.9981 32.3683 31.0678 32.4008 31.1448C32.4332 31.2217 32.4499 31.3044 32.4499 31.388C32.45 31.4701 32.4339 31.5514 32.4025 31.6273C32.3712 31.7032 32.3251 31.7722 32.2671 31.8303C32.2091 31.8884 32.1401 31.9345 32.0643 31.966C31.9884 31.9974 31.9071 32.0136 31.8249 32.0136C31.7428 32.0136 31.6615 31.9974 31.5856 31.966C31.5097 31.9345 31.4408 31.8884 31.3828 31.8303C31.3247 31.7722 31.2787 31.7032 31.2473 31.6273C31.216 31.5514 31.1999 31.4701 31.2 31.388C31.1999 31.2251 31.2634 31.0687 31.3769 30.952C31.4905 30.8352 31.6451 30.7674 31.8078 30.763ZM34.6568 30.763C34.7403 30.7607 34.8234 30.7752 34.9012 30.8056C34.979 30.836 35.05 30.8816 35.1098 30.9399C35.1697 30.9981 35.2173 31.0678 35.2497 31.1448C35.2822 31.2217 35.2989 31.3044 35.2989 31.388C35.299 31.4701 35.2829 31.5514 35.2515 31.6273C35.2201 31.7032 35.1741 31.7722 35.1161 31.8303C35.058 31.8884 34.9891 31.9345 34.9132 31.966C34.8374 31.9974 34.756 32.0136 34.6739 32.0136C34.5918 32.0136 34.5105 31.9974 34.4346 31.966C34.3587 31.9345 34.2898 31.8884 34.2317 31.8303C34.1737 31.7722 34.1277 31.7032 34.0963 31.6273C34.065 31.5514 34.0489 31.4701 34.0489 31.388C34.0489 31.2251 34.1124 31.0687 34.2259 30.952C34.3394 30.8352 34.494 30.7674 34.6568 30.763ZM24.6842 33.2311C24.7677 33.2288 24.8508 33.2433 24.9286 33.2737C25.0064 33.3041 25.0773 33.3498 25.1372 33.408C25.1971 33.4663 25.2446 33.536 25.2771 33.6129C25.3096 33.6899 25.3263 33.7726 25.3263 33.8561C25.3263 33.9382 25.3101 34.0195 25.2787 34.0953C25.2474 34.1712 25.2013 34.2401 25.1433 34.2982C25.0853 34.3562 25.0163 34.4023 24.9405 34.4337C24.8647 34.4651 24.7834 34.4813 24.7013 34.4813C24.6192 34.4813 24.5379 34.4651 24.4621 34.4337C24.3862 34.4023 24.3173 34.3562 24.2593 34.2982C24.2012 34.2401 24.1552 34.1712 24.1238 34.0953C24.0924 34.0195 24.0763 33.9382 24.0763 33.8561C24.0763 33.6933 24.1397 33.5368 24.2533 33.4201C24.3668 33.3034 24.5214 33.2356 24.6842 33.2311ZM27.5332 33.2311C27.6167 33.2288 27.6998 33.2433 27.7776 33.2737C27.8554 33.3041 27.9263 33.3498 27.9862 33.408C28.046 33.4663 28.0936 33.536 28.1261 33.6129C28.1585 33.6899 28.1753 33.7726 28.1752 33.8561C28.1753 33.9382 28.1592 34.0196 28.1278 34.0955C28.0965 34.1714 28.0505 34.2403 27.9924 34.2985C27.9344 34.3566 27.8654 34.4027 27.7896 34.4341C27.7137 34.4656 27.6324 34.4817 27.5503 34.4817C27.4681 34.4817 27.3868 34.4656 27.3109 34.4341C27.2351 34.4027 27.1661 34.3566 27.1081 34.2985C27.0501 34.2403 27.004 34.1714 26.9727 34.0955C26.9413 34.0196 26.9252 33.9382 26.9253 33.8561C26.9252 33.6933 26.9887 33.5368 27.1023 33.4201C27.2158 33.3034 27.3704 33.2356 27.5332 33.2311ZM30.3821 33.2311C30.4656 33.2288 30.5487 33.2433 30.6266 33.2737C30.7044 33.3041 30.7753 33.3498 30.8351 33.408C30.895 33.4663 30.9426 33.536 30.975 33.6129C31.0075 33.6899 31.0242 33.7726 31.0242 33.8561C31.0243 33.9382 31.0082 34.0196 30.9768 34.0955C30.9455 34.1714 30.8994 34.2403 30.8414 34.2985C30.7833 34.3566 30.7144 34.4027 30.6386 34.4341C30.5627 34.4656 30.4814 34.4817 30.3992 34.4817C30.3171 34.4817 30.2358 34.4656 30.1599 34.4341C30.084 34.4027 30.0151 34.3566 29.9571 34.2985C29.899 34.2403 29.853 34.1714 29.8216 34.0955C29.7903 34.0196 29.7742 33.9382 29.7743 33.8561C29.7742 33.6933 29.8377 33.5368 29.9512 33.4201C30.0648 33.3034 30.2194 33.2356 30.3821 33.2311ZM33.2336 33.2311C33.3168 33.2292 33.3997 33.2439 33.4772 33.2744C33.5547 33.305 33.6254 33.3507 33.685 33.4089C33.7446 33.4671 33.7919 33.5367 33.8242 33.6135C33.8566 33.6903 33.8732 33.7728 33.8732 33.8561C33.8733 33.9382 33.8572 34.0196 33.8258 34.0955C33.7944 34.1714 33.7484 34.2403 33.6904 34.2985C33.6323 34.3566 33.5634 34.4027 33.4875 34.4341C33.4117 34.4656 33.3303 34.4817 33.2482 34.4817C33.1661 34.4817 33.0847 34.4656 33.0089 34.4341C32.933 34.4027 32.8641 34.3566 32.806 34.2985C32.748 34.2403 32.702 34.1714 32.6706 34.0955C32.6392 34.0196 32.6231 33.9382 32.6232 33.8561C32.6232 33.6928 32.687 33.5361 32.8011 33.4193C32.9151 33.3025 33.0704 33.2349 33.2336 33.2311ZM28.9589 35.6993C29.0424 35.697 29.1255 35.7115 29.2033 35.7418C29.2811 35.7722 29.352 35.8179 29.4119 35.8762C29.4717 35.9344 29.5193 36.0041 29.5518 36.081C29.5842 36.158 29.601 36.2407 29.6009 36.3242C29.601 36.4064 29.5849 36.4877 29.5536 36.5636C29.5222 36.6395 29.4762 36.7085 29.4181 36.7666C29.3601 36.8247 29.2912 36.8708 29.2153 36.9022C29.1394 36.9337 29.0581 36.9499 28.976 36.9499C28.8938 36.9499 28.8125 36.9337 28.7366 36.9022C28.6608 36.8708 28.5918 36.8247 28.5338 36.7666C28.4758 36.7085 28.4297 36.6395 28.3984 36.5636C28.367 36.4877 28.3509 36.4064 28.351 36.3242C28.3509 36.1614 28.4144 36.005 28.528 35.8882C28.6415 35.7715 28.7961 35.7037 28.9589 35.6993ZM31.8078 35.6993C31.8913 35.697 31.9745 35.7115 32.0523 35.7418C32.1301 35.7722 32.201 35.8179 32.2609 35.8762C32.3207 35.9344 32.3683 36.0041 32.4008 36.081C32.4332 36.158 32.4499 36.2407 32.4499 36.3242C32.45 36.4064 32.4339 36.4877 32.4025 36.5636C32.3712 36.6395 32.3251 36.7085 32.2671 36.7666C32.2091 36.8247 32.1401 36.8708 32.0643 36.9022C31.9884 36.9337 31.9071 36.9499 31.8249 36.9499C31.7428 36.9499 31.6615 36.9337 31.5856 36.9022C31.5097 36.8708 31.4408 36.8247 31.3828 36.7666C31.3247 36.7085 31.2787 36.6395 31.2473 36.5636C31.216 36.4877 31.1999 36.4064 31.2 36.3242C31.1999 36.1614 31.2634 36.005 31.3769 35.8882C31.4905 35.7715 31.6451 35.7037 31.8078 35.6993Z" fill="#FFD40D"/>
<path d="M30.17 40.4495L24.5996 43.0212L23.4773 40.8653L21.049 40.9715L19.9267 38.8156L17.4984 38.9214L16.3761 36.7653L13.9478 36.8711L16.454 32.5303L30.17 40.4495Z" fill="#FFD40D"/>
</svg>
