<svg width="60" height="60" viewBox="0 0 60 60" fill="none" xmlns="http://www.w3.org/2000/svg">
<circle cx="30" cy="30" r="30" fill="#851A1D"/>
<path d="M43.3336 41.5901C40.6336 46.8055 34.0105 47.9209 33.7259 47.967C33.6875 47.9747 33.6413 47.9747 33.6028 47.9747C33.5567 47.9747 33.5105 47.967 33.4644 47.9594C33.4336 47.9594 33.4028 47.9517 33.3721 47.9363C33.3154 47.9279 33.2621 47.9039 33.2182 47.867C33.1798 47.844 33.1413 47.8209 33.1105 47.7901C33.0774 47.7738 33.0485 47.7501 33.0259 47.7209C33.0182 47.7132 33.0105 47.7055 33.0105 47.6978C32.9259 47.5901 32.8721 47.467 32.849 47.344C32.8413 47.3363 32.8413 47.3363 32.8413 47.3286C32.8336 47.2901 32.8336 47.2517 32.8336 47.2132C32.8336 47.167 32.8413 47.1209 32.849 47.0747C32.849 47.044 32.8644 47.0055 32.8721 46.967C32.8798 46.9517 32.8798 46.944 32.8798 46.9363C32.9028 46.8978 32.9182 46.8594 32.9413 46.8286C32.9644 46.7901 32.9875 46.7517 33.0182 46.7209C33.0336 46.6901 33.0644 46.6594 33.0951 46.6363L33.1182 46.6132C38.3644 41.9363 37.149 37.5594 37.0951 37.3747C37.0721 37.3209 37.0644 37.2594 37.0567 37.2055C36.8105 33.344 33.7798 29.0363 31.8721 26.6901C31.5105 30.3363 29.2567 35.8209 28.6875 37.1517C28.5413 37.4978 28.1644 37.6824 27.8105 37.6055C27.6343 37.566 27.4777 37.4657 27.368 37.3222C27.2583 37.1788 27.2025 37.0013 27.2105 36.8209C27.2567 35.6132 26.2798 34.0055 25.4182 32.8594C25.0336 33.8286 24.2951 35.3286 22.8951 37.7055C22.2721 38.767 21.9105 39.8517 21.8259 40.9132C21.5259 44.7363 23.9875 46.144 24.6028 46.4286C24.6875 46.467 24.7336 46.4824 24.7413 46.4824C24.8567 46.5286 24.9567 46.5901 25.0336 46.6824C25.0644 46.7055 25.0875 46.7363 25.1105 46.767C25.149 46.8363 25.1875 46.9055 25.2028 46.9747C25.249 47.0901 25.2567 47.2132 25.2336 47.3363C25.2259 47.3824 25.2105 47.4286 25.1951 47.4747C25.1105 47.7055 24.9259 47.8747 24.7028 47.9363C24.6644 47.9517 24.6259 47.9594 24.5875 47.967C24.549 47.9747 24.5105 47.9747 24.4721 47.9747C24.3875 47.9747 24.2951 47.9594 24.2105 47.9286H24.1951C20.1336 46.3517 17.4644 43.9594 16.2721 40.8209C14.4413 36.0132 16.6336 30.8286 17.6567 28.8209C18.1721 27.8209 18.8336 26.8055 19.7413 25.6209C24.749 19.0901 26.1182 11.7594 26.1336 11.6901C26.1798 11.4055 26.3875 11.1747 26.6644 11.0901C26.9336 11.0055 27.2336 11.0824 27.4413 11.2824C31.7259 15.667 35.0721 19.1747 37.3721 21.7132C39.4028 23.9517 41.0413 26.3209 42.2413 28.7747C44.7336 33.8594 45.1028 38.167 43.3336 41.5901Z" fill="#FFD40D"/>
</svg>
