<svg width="60" height="60" viewBox="0 0 60 60" fill="none" xmlns="http://www.w3.org/2000/svg">
<circle cx="30" cy="30" r="30" fill="#851A1D"/>
<g clip-path="url(#clip0_2542_3161)">
<path d="M36.25 18.2656H37.5V17.0156H38.75V15.7656H37.5V14.5156H36.25V15.7656H35V17.0156H36.25V18.2656ZM35 25.7656H36.25V24.5156H37.5V23.2656H36.25V22.0156H35V23.2656H33.75V24.5156H35V25.7656ZM22.5 18.2656H23.75V17.0156H25V15.7656H23.75V14.5156H22.5V15.7656H21.25V17.0156H22.5V18.2656ZM46.25 25.7656V15.1406C46.2467 13.6498 45.653 12.221 44.5988 11.1668C43.5447 10.1126 42.1158 9.51893 40.625 9.51562H19.375C17.8842 9.51893 16.4553 10.1126 15.4012 11.1668C14.347 12.221 13.7533 13.6498 13.75 15.1406V25.7656H10V29.5156H11.25V36.3906C11.2353 37.1217 11.4774 37.8348 11.9341 38.4058C12.3909 38.9768 13.0335 39.3695 13.75 39.5156V40.2031C13.7499 40.9235 13.9986 41.6219 14.4542 42.1799C14.9098 42.738 15.5441 43.1215 16.25 43.2656V48.2656H13.75V49.5156H23.75V48.2656H21.25V43.2656H38.75V48.2656H36.25V49.5156H46.25V48.2656H43.75V43.2656C44.4559 43.1215 45.0902 42.738 45.5458 42.1799C46.0014 41.6219 46.2501 40.9235 46.25 40.2031V39.5156C46.9559 39.3715 47.5902 38.988 48.0458 38.4299C48.5014 37.8719 48.7501 37.1735 48.75 36.4531V29.5156H50V25.7656H46.25ZM15 15.1406C15 13.9803 15.4609 12.8675 16.2814 12.047C17.1019 11.2266 18.2147 10.7656 19.375 10.7656H40.625C41.7853 10.7656 42.8981 11.2266 43.7186 12.047C44.5391 12.8675 45 13.9803 45 15.1406V25.7656H40V29.5156H41.25V31.4031C40.7102 30.9938 40.0524 30.7701 39.375 30.7656H20.625C19.9476 30.7701 19.2898 30.9938 18.75 31.4031V29.5156H20V25.7656H15V15.1406ZM41.25 33.8906V38.2656H18.75V33.8906C18.75 33.3933 18.9475 32.9164 19.2992 32.5648C19.6508 32.2132 20.1277 32.0156 20.625 32.0156H39.375C39.8723 32.0156 40.3492 32.2132 40.7008 32.5648C41.0525 32.9164 41.25 33.3933 41.25 33.8906ZM11.25 28.2656V27.0156H18.75V28.2656H11.25ZM14.375 38.2656C13.8777 38.2656 13.4008 38.0681 13.0492 37.7164C12.6975 37.3648 12.5 36.8879 12.5 36.3906V29.5156H17.5V38.2656H14.375ZM20 48.2656H17.5V43.2656H20V48.2656ZM42.5 48.2656H40V43.2656H42.5V48.2656ZM45 40.1406C45 40.6379 44.8025 41.1148 44.4508 41.4664C44.0992 41.8181 43.6223 42.0156 43.125 42.0156H16.875C16.3777 42.0156 15.9008 41.8181 15.5492 41.4664C15.1975 41.1148 15 40.6379 15 40.1406V39.5156H45V40.1406ZM47.5 36.3906C47.5 36.8879 47.3025 37.3648 46.9508 37.7164C46.5992 38.0681 46.1223 38.2656 45.625 38.2656H42.5V29.5156H47.5V36.3906ZM48.75 28.2656H41.25V27.0156H48.75V28.2656ZM25 22.0156H23.75V23.2656H22.5V24.5156H23.75V25.7656H25V24.5156H26.25V23.2656H25V22.0156Z" fill="#FFD40D"/>
</g>
<defs>
<clipPath id="clip0_2542_3161">
<rect width="40" height="40" fill="white" transform="translate(10 9.51562)"/>
</clipPath>
</defs>
</svg>
