<svg width="60" height="60" viewBox="0 0 60 60" fill="none" xmlns="http://www.w3.org/2000/svg">
<circle cx="30" cy="30" r="30" fill="#851A1D"/>
<path d="M23.2607 41.4671C22.4243 41.8004 21.6425 41.4974 21.2849 41.2914C20.6849 40.9459 20.2728 40.352 20.1516 39.6732L19.7395 37.352L15.7576 42.8914C15.394 43.3156 15.7152 44.2914 16.594 44.1035L21.5213 42.7883L22.8485 47.7156C22.9455 48.2307 23.8849 48.6671 24.3152 47.8368L27.1273 41.6004L26.1395 40.4307L23.2607 41.4671ZM45.6182 42.8914L41.0304 36.5156L40.194 36.6671L39.6546 39.6732C39.5334 40.358 39.1152 40.9459 38.5152 41.2974C38.1576 41.5035 37.5334 41.7883 36.5455 41.4732L33.7273 40.455L37.0607 47.8368C37.2001 48.2914 38.1698 48.655 38.5273 47.7156L39.8425 42.7883L44.7698 44.1035C45.7698 44.2307 45.9213 43.2853 45.6182 42.8914ZM29.9092 18.5459C25.594 18.5459 22.0788 22.0611 22.0788 26.3762C22.0788 30.6914 25.594 34.2065 29.9092 34.2065C34.2243 34.2065 37.7395 30.6914 37.7395 26.3762C37.7395 22.055 34.2243 18.5459 29.9092 18.5459ZM33.1698 30.9338L29.9092 28.5641L26.6485 30.9338L27.897 27.0974L24.6364 24.7277H28.6667L29.9152 20.8914L31.1637 24.7277H35.194L31.9334 27.0974L33.1698 30.9338Z" fill="#FFD40D"/>
<path d="M38.121 39.3945L38.8482 35.3097L42.927 34.5824C43.6786 34.3339 43.6058 33.7642 43.527 33.546L42.121 29.6491L45.2907 26.9703C45.8058 26.3763 45.4664 25.9218 45.2907 25.7763L42.121 23.0975L43.527 19.1945C43.6058 18.9763 43.6482 18.346 42.927 18.1581L38.8482 17.4309L38.121 13.346C38.0786 13.1218 37.7331 12.5339 37.0846 12.746L33.1816 14.1521L30.5028 10.9824C30.2058 10.6309 29.6058 10.6309 29.3089 10.9824L26.6301 14.1521L22.727 12.746C22.3816 12.6127 21.8058 12.7642 21.6907 13.346L20.9634 17.4309L16.8785 18.1581C16.2361 18.2915 16.1513 18.9218 16.2785 19.1945L17.6846 23.0975L14.5149 25.7763C14.024 26.2612 14.2725 26.7945 14.5149 26.9703L17.6846 29.643L16.2785 33.546C16.1998 33.7642 16.1331 34.3824 16.8785 34.5824L20.9634 35.3097L21.6907 39.3945C21.8785 40.1036 22.5089 40.0733 22.727 39.9945L26.6301 38.5884L29.3089 41.7581C29.4543 41.9339 29.9513 42.2794 30.5028 41.7581L33.1816 38.5884L37.0846 39.9945C37.8361 40.1703 38.0786 39.6248 38.121 39.3945ZM29.9089 35.7703C24.727 35.7703 20.5149 31.5581 20.5149 26.3763C20.5149 21.1945 24.727 16.9824 29.9089 16.9824C35.0907 16.9824 39.3028 21.1945 39.3028 26.3763C39.3028 31.5581 35.0907 35.7703 29.9089 35.7703Z" fill="#FFD40D"/>
</svg>
