<svg width="60" height="60" viewBox="0 0 60 60" fill="none" xmlns="http://www.w3.org/2000/svg">
<circle cx="30" cy="30" r="30" fill="#851A1D"/>
<g clip-path="url(#clip0_2444_2786)">
<path d="M10.3906 49.5156C10.3125 49.5156 10.2422 49.4922 10.1797 49.4531C10.0625 49.3828 10 49.2578 10 49.125V39.9844C10 39.8281 10.0938 39.6875 10.2344 39.625L15.6797 37.2891L19.3438 35.2344C21.1953 34.1953 23.2891 33.6484 25.4141 33.6406L34.9609 32.4844C35.5781 32.4141 36.1875 32.6016 36.6562 33.0156C37.1172 33.4219 37.3828 34.0156 37.3828 34.6328C37.3828 35.5703 36.7812 36.3984 35.8906 36.6875L27.8906 39.2969H36.8906L43.1172 36.3984L43.2422 36.1484C44.4688 33.7422 46.9141 32.2422 49.6172 32.2422C49.7422 32.2422 49.8594 32.3047 49.9297 32.3984C50 32.5 50.0234 32.625 49.9844 32.75L47.9141 39.2812C47.8906 39.3516 47.8516 39.4062 47.8047 39.4531L42.4062 44.25C42.3594 44.2891 42.3125 44.3203 42.25 44.3359L32.2969 47.1328C32.2656 47.1406 32.2266 47.1484 32.1875 47.1484H15.9375L10.5469 49.4844C10.4922 49.5078 10.4453 49.5156 10.3906 49.5156ZM10.7812 40.2422V48.5312L15.7031 46.4062C15.75 46.3828 15.8047 46.375 15.8594 46.375H32.1328L41.9453 43.6172L47.1953 38.9531L49.0625 33.0625C46.875 33.2422 44.9375 34.5312 43.9297 36.5156L43.7422 36.8906C43.7031 36.9688 43.6406 37.0312 43.5625 37.0703L37.1406 40.0625C37.0859 40.0859 37.0312 40.1016 36.9766 40.1016H25.4297C25.2344 40.1016 25.0703 39.9609 25.0469 39.7734C25.0156 39.5859 25.125 39.3984 25.3125 39.3438L35.6484 35.9688C36.2188 35.7812 36.6016 35.2578 36.6016 34.6562C36.6016 34.2656 36.4297 33.8828 36.1406 33.625C35.8438 33.3672 35.4531 33.2422 35.0625 33.2891L25.4922 34.4453C25.4766 34.4453 25.4609 34.4453 25.4453 34.4453C23.4531 34.4453 21.4766 34.9609 19.7344 35.9375L16.0547 38C16.0391 38.0078 16.0312 38.0156 16.0156 38.0156L10.7812 40.2422ZM38.4375 13.7344H20C19.7812 13.7344 19.6094 13.5625 19.6094 13.3438V9.90625C19.6094 9.6875 19.7812 9.51562 20 9.51562H40C40.2188 9.51562 40.3906 9.6875 40.3906 9.90625V13.3438H39.6094V10.2969H20.3906V12.9531H38.4375V13.7344Z" fill="#FFD40D"/>
<path d="M20.389 13.4045L19.6172 13.2832L15.8294 37.3779L16.6012 37.4992L20.389 13.4045Z" fill="#FFD40D"/>
<path d="M42.9531 34.6641L40 15.8594L37.4297 32.1875L36.6562 32.0625L39.6094 13.2734C39.6406 13.0859 39.8047 12.9453 39.9922 12.9453C40.1797 12.9453 40.3516 13.0859 40.375 13.2734L43.7187 34.5313L42.9531 34.6641Z" fill="#FFD40D"/>
<path d="M36.8255 36.0373L36.0537 35.916L35.4689 39.636L36.2407 39.7573L36.8255 36.0373Z" fill="#FFD40D"/>
<path d="M36.1953 39.8906L35.5234 39.4922L39.6641 32.4375C39.7344 32.3203 39.8594 32.2422 40 32.2422C40.1406 32.2422 40.2656 32.3125 40.3359 32.4375L42.9375 36.8672L42.2656 37.2656L40 33.4062L36.1953 39.8906Z" fill="#FFD40D"/>
<path d="M40.3906 13.3438H39.6094V32.6406H40.3906V13.3438Z" fill="#FFD40D"/>
<path d="M25.5469 31.9375C25.1094 31.9375 24.7031 31.7656 24.3984 31.4453C24.0938 31.1328 23.9375 30.7187 23.9531 30.2812L24.2813 21.8906C23.4375 21.7031 22.8125 20.9531 22.8125 20.0625V16.8594C22.8125 15.8281 23.6562 14.9844 24.6875 14.9844H26.4062C27.4375 14.9844 28.2812 15.8281 28.2812 16.8594V20.0625C28.2812 20.9609 27.6484 21.7109 26.8125 21.8906L27.1406 30.2812C27.1562 30.7187 27 31.1328 26.6953 31.4453C26.3906 31.7656 25.9844 31.9375 25.5469 31.9375ZM24.6875 15.7656C24.0859 15.7656 23.5938 16.2578 23.5938 16.8594V20.0625C23.5938 20.6641 24.0859 21.1562 24.6875 21.1562C24.7969 21.1562 24.8984 21.2031 24.9688 21.2734C25.0391 21.3516 25.0781 21.4531 25.0781 21.5625L24.7344 30.3125C24.7266 30.5313 24.8047 30.7422 24.9609 30.9062C25.1172 31.0703 25.3203 31.1562 25.5469 31.1562C25.7734 31.1562 25.9766 31.0703 26.1328 30.9062C26.2891 30.7422 26.3672 30.5313 26.3594 30.3125L26.0156 21.5625C26.0078 21.4531 26.0469 21.3516 26.125 21.2734C26.1953 21.1953 26.2969 21.1562 26.4062 21.1562C27.0078 21.1562 27.5 20.6641 27.5 20.0625V16.8594C27.5 16.2578 27.0078 15.7656 26.4062 15.7656H24.6875ZM32.8906 31.9375C32.4531 31.9375 32.0469 31.7656 31.7422 31.4453C31.4375 31.1328 31.2812 30.7187 31.2969 30.2812L31.625 21.8906C30.7812 21.7031 30.1562 20.9531 30.1562 20.0625V17.7188C30.1562 16.2109 31.3828 14.9844 32.8906 14.9844C34.3984 14.9844 35.625 16.2109 35.625 17.7188V20.0625C35.625 20.9609 34.9922 21.7109 34.1563 21.8906L34.4844 30.2812C34.5 30.7187 34.3438 31.1328 34.0391 31.4453C33.7344 31.7656 33.3281 31.9375 32.8906 31.9375ZM32.8906 15.7656C31.8125 15.7656 30.9375 16.6406 30.9375 17.7188V20.0625C30.9375 20.6641 31.4297 21.1562 32.0312 21.1562C32.1406 21.1562 32.2422 21.2031 32.3125 21.2734C32.3828 21.3516 32.4219 21.4531 32.4219 21.5625L32.0781 30.3125C32.0703 30.5313 32.1484 30.7422 32.3047 30.9062C32.4609 31.0703 32.6641 31.1562 32.8906 31.1562C33.1172 31.1562 33.3203 31.0703 33.4766 30.9062C33.6328 30.7422 33.7109 30.5313 33.7031 30.3125L33.3594 21.5625C33.3516 21.4531 33.3906 21.3516 33.4688 21.2734C33.5391 21.1953 33.6406 21.1562 33.75 21.1562C34.3516 21.1562 34.8438 20.6641 34.8438 20.0625V17.7188C34.8438 16.6406 33.9688 15.7656 32.8906 15.7656Z" fill="#FFD40D"/>
<path d="M25.1562 15.375H24.375V19.2031H25.1562V15.375Z" fill="#FFD40D"/>
<path d="M26.7188 15.375H25.9375V19.2031H26.7188V15.375Z" fill="#FFD40D"/>
</g>
<defs>
<clipPath id="clip0_2444_2786">
<rect width="40" height="40" fill="white" transform="translate(10 9.51562)"/>
</clipPath>
</defs>
</svg>
