<svg width="60" height="60" viewBox="0 0 60 60" fill="none" xmlns="http://www.w3.org/2000/svg">
<circle cx="30" cy="30" r="30" fill="#851A1D"/>
<path d="M45 17.0156C45 16.3526 44.7366 15.7167 44.2678 15.2479C43.7989 14.779 43.163 14.5156 42.5 14.5156H37.5V12.0156H35V14.5156H25V12.0156H22.5V14.5156H17.5C16.837 14.5156 16.2011 14.779 15.7322 15.2479C15.2634 15.7167 15 16.3526 15 17.0156V42.0156C15 42.6787 15.2634 43.3146 15.7322 43.7834C16.2011 44.2522 16.837 44.5156 17.5 44.5156H22.5V42.0156H17.5V17.0156H22.5V19.5156H25V17.0156H35V19.5156H37.5V17.0156H42.5V24.5156H45V17.0156Z" fill="#FFD40D"/>
<path d="M36.25 28.2656L39.4362 34.4381L46.25 35.4269L41.25 40.2319L42.5 47.0156L36.25 43.8131L30 47.0156L31.25 40.2319L26.25 35.4269L33.25 34.4381L36.25 28.2656Z" fill="#FFD40D"/>
</svg>
