<svg width="60" height="60" viewBox="0 0 60 60" fill="none" xmlns="http://www.w3.org/2000/svg">
<circle cx="30" cy="30" r="30" fill="#851A1D"/>
<path d="M26.86 31.9185C27.0966 31.9185 27.2944 31.839 27.4533 31.6801C27.6133 31.5201 27.6933 31.3218 27.6933 31.0851V26.3751C27.6933 26.1385 27.6133 25.9401 27.4533 25.7801C27.2933 25.6201 27.095 25.5407 26.8583 25.5418C26.6216 25.5429 26.4239 25.6224 26.265 25.7801C26.1061 25.9379 26.0266 26.1362 26.0266 26.3751V31.0851C26.0266 31.3218 26.1061 31.5201 26.265 31.6801C26.425 31.839 26.6233 31.9185 26.86 31.9185ZM19.7116 37.4651V30.0618C18.5616 29.4874 17.6283 28.6651 16.9116 27.5951C16.1928 26.5251 15.8333 25.3457 15.8333 24.0568C15.8333 22.3368 16.4366 20.8724 17.6433 19.6635C18.8478 18.4535 20.3105 17.8485 22.0316 17.8485C22.3594 17.8485 22.6944 17.8762 23.0366 17.9318C23.3789 17.9874 23.7139 18.0568 24.0416 18.1401L24.33 18.2051L24.49 17.9468C25.0989 16.9368 25.8789 16.1124 26.83 15.4735C27.7811 14.8346 28.8378 14.5151 30 14.5151C31.1622 14.5151 32.2189 14.8346 33.17 15.4735C34.1211 16.1124 34.9116 16.9368 35.5416 17.9468L35.7016 18.2035L35.9583 18.1401C36.2761 18.0568 36.5939 17.9874 36.9116 17.9318C37.2294 17.8762 37.56 17.8485 37.9033 17.8485C39.6455 17.8485 41.125 18.4529 42.3416 19.6618C43.5583 20.8707 44.1666 22.3462 44.1666 24.0885C44.1666 25.3774 43.8128 26.5512 43.105 27.6101C42.3983 28.669 41.4594 29.4857 40.2883 30.0601V37.4635L19.7116 37.4651ZM33.175 31.9201C33.4105 31.9201 33.6083 31.8401 33.7683 31.6801C33.9283 31.5201 34.0078 31.3224 34.0066 31.0868V26.3768C34.0066 26.1401 33.9266 25.9418 33.7666 25.7818C33.6066 25.6229 33.4083 25.5435 33.1716 25.5435C32.935 25.5435 32.7372 25.6229 32.5783 25.7818C32.4194 25.9407 32.34 26.139 32.34 26.3768V31.0868C32.34 31.3235 32.42 31.5218 32.58 31.6818C32.74 31.8418 32.9383 31.9212 33.175 31.9201ZM22.4033 44.5151C21.6633 44.5151 21.03 44.2512 20.5033 43.7235C19.9766 43.1957 19.7128 42.5624 19.7116 41.8235V39.1301H40.2883V41.8285C40.2883 42.5707 40.025 43.204 39.4983 43.7285C38.9705 44.2529 38.3366 44.5151 37.5966 44.5151H22.4033Z" fill="#FFD40D"/>
</svg>
