<svg width="60" height="60" viewBox="0 0 60 60" fill="none" xmlns="http://www.w3.org/2000/svg">
<circle cx="30" cy="30" r="30" fill="#851A1D"/>
<path d="M35 17.849V29.5156H25V17.849H35ZM35 14.5156H25C24.1159 14.5156 23.2681 14.8668 22.643 15.4919C22.0178 16.1171 21.6666 16.9649 21.6666 17.849V32.849H38.3333V17.849C38.3333 16.9649 37.9821 16.1171 37.357 15.4919C36.7319 14.8668 35.884 14.5156 35 14.5156ZM46.6666 26.1823H41.6666V31.1823H46.6666V26.1823ZM18.3333 26.1823H13.3333V31.1823H18.3333V26.1823ZM43.3333 34.5156H16.6666V44.5156H20V37.849H40V44.5156H43.3333V34.5156Z" fill="#FFD40D"/>
</svg>
