<svg width="60" height="60" viewBox="0 0 60 60" fill="none" xmlns="http://www.w3.org/2000/svg">
<circle cx="30" cy="30" r="30" fill="#851A1D"/>
<g clip-path="url(#clip0_2524_3060)">
<path d="M37.0703 35.8438H32.2266C31.8641 35.8442 31.5166 35.9883 31.2603 36.2446C31.004 36.501 30.8598 36.8485 30.8594 37.2109V39.1641C30.8598 39.5265 31.004 39.874 31.2603 40.1304C31.5166 40.3867 31.8641 40.5308 32.2266 40.5312H37.0703C37.4328 40.5308 37.7803 40.3867 38.0366 40.1304C38.2929 39.874 38.4371 39.5265 38.4375 39.1641V37.2109C38.4371 36.8485 38.2929 36.501 38.0366 36.2446C37.7803 35.9883 37.4328 35.8442 37.0703 35.8438ZM37.2656 39.1641C37.2656 39.2158 37.245 39.2655 37.2083 39.3021C37.1717 39.3387 37.1221 39.3593 37.0703 39.3594H32.2266C32.1748 39.3593 32.1251 39.3387 32.0885 39.3021C32.0519 39.2655 32.0313 39.2158 32.0312 39.1641V37.2109C32.0313 37.1592 32.0519 37.1095 32.0885 37.0729C32.1251 37.0363 32.1748 37.0157 32.2266 37.0156H37.0703C37.1221 37.0157 37.1717 37.0363 37.2083 37.0729C37.245 37.1095 37.2656 37.1592 37.2656 37.2109V39.1641ZM39.0625 9.51563H20.9375C20.1608 9.51649 19.4161 9.82543 18.8669 10.3747C18.3176 10.9239 18.0087 11.6686 18.0078 12.4453V46.5859C18.0087 47.3627 18.3176 48.1073 18.8669 48.6566C19.4161 49.2058 20.1608 49.5148 20.9375 49.5156H39.0625C39.8392 49.5148 40.5839 49.2058 41.1331 48.6566C41.6824 48.1073 41.9913 47.3627 41.9922 46.5859V12.4453C41.9913 11.6686 41.6824 10.9239 41.1331 10.3747C40.5839 9.82543 39.8392 9.51649 39.0625 9.51563ZM34.6379 10.6875L34.2139 11.5355C34.1655 11.633 34.0908 11.7151 33.9981 11.7723C33.9055 11.8296 33.7987 11.8597 33.6898 11.8594H26.3102C26.2013 11.8597 26.0945 11.8296 26.0018 11.7723C25.9092 11.7151 25.8345 11.633 25.7861 11.5355L25.3621 10.6875H34.6379ZM40.8203 46.5859C40.8198 47.052 40.6344 47.4988 40.3049 47.8283C39.9753 48.1579 39.5285 48.3432 39.0625 48.3438H20.9375C20.4715 48.3432 20.0247 48.1579 19.6951 47.8283C19.3656 47.4988 19.1802 47.052 19.1797 46.5859V12.4453C19.1802 11.9793 19.3656 11.5325 19.6951 11.2029C20.0247 10.8734 20.4715 10.688 20.9375 10.6875H24.052L24.738 12.0595C24.8831 12.3522 25.1073 12.5984 25.3852 12.7702C25.6631 12.9419 25.9835 13.0324 26.3102 13.0312H33.6898C34.0165 13.0323 34.337 12.9419 34.6149 12.7701C34.8927 12.5984 35.1169 12.3522 35.262 12.0595L35.948 10.6875H39.0625C39.5285 10.688 39.9753 10.8734 40.3049 11.2029C40.6344 11.5325 40.8198 11.9793 40.8203 12.4453V46.5859ZM29.0625 39.1641V37.2109C29.0621 36.8485 28.9179 36.501 28.6616 36.2446C28.4053 35.9883 28.0578 35.8442 27.6953 35.8438H22.8516C22.4891 35.8442 22.1416 35.9883 21.8853 36.2446C21.629 36.501 21.4848 36.8485 21.4844 37.2109V39.1641C21.4848 39.5265 21.629 39.874 21.8853 40.1304C22.1416 40.3867 22.4891 40.5308 22.8516 40.5312H27.6953C28.0578 40.5308 28.4053 40.3867 28.6616 40.1304C28.9179 39.874 29.0621 39.5265 29.0625 39.1641ZM22.6562 39.1641V37.2109C22.6563 37.1592 22.6769 37.1095 22.7135 37.0729C22.7501 37.0363 22.7998 37.0157 22.8516 37.0156H27.6953C27.7471 37.0157 27.7967 37.0363 27.8334 37.0729C27.87 37.1095 27.8906 37.1592 27.8906 37.2109V39.1641C27.8906 39.2158 27.87 39.2655 27.8334 39.3021C27.7967 39.3387 27.7471 39.3593 27.6953 39.3594H22.8516C22.7998 39.3593 22.7501 39.3387 22.7135 39.3021C22.6769 39.2655 22.6563 39.2158 22.6562 39.1641ZM24.4531 27.6406H35.5469C35.9686 27.6406 36.3763 27.489 36.6955 27.2135C37.0148 26.9379 37.2243 26.5568 37.2859 26.1395C37.3475 25.7223 37.257 25.2969 37.031 24.9409C36.8049 24.5848 36.4584 24.3219 36.0547 24.2001V23.1484C36.0531 21.9422 35.6195 20.7763 34.8324 19.8622C34.0454 18.9481 32.9569 18.3461 31.7642 18.1653C31.9056 17.8676 31.9694 17.539 31.9496 17.21C31.9298 16.881 31.8271 16.5624 31.651 16.2838C31.4749 16.0052 31.2311 15.7757 30.9425 15.6166C30.6538 15.4576 30.3296 15.3742 30 15.3742C29.6704 15.3742 29.3462 15.4576 29.0575 15.6166C28.7689 15.7757 28.5251 16.0052 28.349 16.2838C28.1729 16.5624 28.0702 16.881 28.0504 17.21C28.0306 17.539 28.0944 17.8676 28.2358 18.1653C27.0431 18.3461 25.9546 18.9481 25.1676 19.8622C24.3805 20.7763 23.9469 21.9422 23.9453 23.1484V24.2001C23.5416 24.3219 23.1951 24.5848 22.969 24.9409C22.743 25.2969 22.6526 25.7223 22.7141 26.1395C22.7757 26.5568 22.9852 26.9379 23.3045 27.2135C23.6237 27.489 24.0314 27.6406 24.4531 27.6406ZM30 16.5469C30.1545 16.5469 30.3056 16.5927 30.434 16.6785C30.5625 16.7644 30.6627 16.8864 30.7218 17.0292C30.7809 17.1719 30.7964 17.329 30.7662 17.4805C30.7361 17.6321 30.6617 17.7713 30.5524 17.8806C30.4432 17.9898 30.304 18.0642 30.1524 18.0944C30.0009 18.1245 29.8438 18.109 29.701 18.0499C29.5583 17.9908 29.4363 17.8906 29.3504 17.7622C29.2646 17.6337 29.2188 17.4826 29.2188 17.3281C29.219 17.121 29.3014 16.9224 29.4478 16.7759C29.5943 16.6295 29.7929 16.5471 30 16.5469ZM25.1172 23.1484C25.1183 22.1232 25.5262 21.1402 26.2511 20.4152C26.9761 19.6902 27.9591 19.2824 28.9844 19.2812H31.0156C32.0409 19.2824 33.0239 19.6902 33.7489 20.4152C34.4738 21.1402 34.8817 22.1232 34.8828 23.1484V24.125H25.1172V23.1484ZM24.4531 25.2969H35.5469C35.7023 25.2969 35.8513 25.3586 35.9612 25.4685C36.0711 25.5784 36.1328 25.7274 36.1328 25.8828C36.1328 26.0382 36.0711 26.1872 35.9612 26.2971C35.8513 26.407 35.7023 26.4688 35.5469 26.4688H24.4531C24.2977 26.4688 24.1487 26.407 24.0388 26.2971C23.9289 26.1872 23.8672 26.0382 23.8672 25.8828C23.8672 25.7274 23.9289 25.5784 24.0388 25.4685C24.1487 25.3586 24.2977 25.2969 24.4531 25.2969ZM36.2109 44.8281H23.7891C23.6337 44.8281 23.4846 44.8899 23.3747 44.9997C23.2649 45.1096 23.2031 45.2587 23.2031 45.4141C23.2031 45.5695 23.2649 45.7185 23.3747 45.8284C23.4846 45.9383 23.6337 46 23.7891 46H36.2109C36.3663 46 36.5154 45.9383 36.6253 45.8284C36.7351 45.7185 36.7969 45.5695 36.7969 45.4141C36.7969 45.2587 36.7351 45.1096 36.6253 44.9997C36.5154 44.8899 36.3663 44.8281 36.2109 44.8281ZM23.2422 33.5H30.8203C30.9757 33.5 31.1247 33.4383 31.2346 33.3284C31.3445 33.2185 31.4062 33.0695 31.4062 32.9141C31.4062 32.7587 31.3445 32.6096 31.2346 32.4997C31.1247 32.3899 30.9757 32.3281 30.8203 32.3281H23.2422C23.0868 32.3281 22.9378 32.3899 22.8279 32.4997C22.718 32.6096 22.6562 32.7587 22.6562 32.9141C22.6562 33.0695 22.718 33.2185 22.8279 33.3284C22.9378 33.4383 23.0868 33.5 23.2422 33.5ZM23.2422 31.1562H36.6797C36.8351 31.1562 36.9841 31.0945 37.094 30.9846C37.2039 30.8748 37.2656 30.7257 37.2656 30.5703C37.2656 30.4149 37.2039 30.2659 37.094 30.156C36.9841 30.0461 36.8351 29.9844 36.6797 29.9844H23.2422C23.0868 29.9844 22.9378 30.0461 22.8279 30.156C22.718 30.2659 22.6562 30.4149 22.6562 30.5703C22.6562 30.7257 22.718 30.8748 22.8279 30.9846C22.9378 31.0945 23.0868 31.1562 23.2422 31.1562Z" fill="#FFD40D"/>
</g>
<defs>
<clipPath id="clip0_2524_3060">
<rect width="40" height="40" fill="white" transform="translate(10 9.51562)"/>
</clipPath>
</defs>
</svg>
