<svg width="60" height="60" viewBox="0 0 60 60" fill="none" xmlns="http://www.w3.org/2000/svg">
<circle cx="30" cy="30" r="30" fill="#851A1D"/>
<g clip-path="url(#clip0_2542_3168)">
<path d="M34.143 38.1299V27.7236C34.3933 27.3806 34.5282 26.967 34.5282 26.5423C34.5282 26.1177 34.3933 25.7041 34.143 25.3611V20.597C34.143 18.1458 33.2015 16.0529 31.4201 14.5446C29.7482 13.1287 27.4305 12.3493 24.8945 12.3493C22.3586 12.3493 20.0412 13.129 18.3691 14.5446C16.5878 16.0529 15.6461 18.1461 15.6461 20.597V25.3584C15.3946 25.7019 15.2591 26.1166 15.2591 26.5423C15.2591 26.9681 15.3946 27.3828 15.6461 27.7263V38.1325C14.0402 38.7679 12.6526 39.8546 11.6508 41.2614C10.649 42.6682 10.0759 44.335 10.0006 46.0604C9.99694 46.1406 10.0097 46.2207 10.038 46.2958C10.0664 46.3709 10.1098 46.4395 10.1656 46.4972C10.2219 46.5557 10.2894 46.6023 10.364 46.6342C10.4387 46.666 10.519 46.6825 10.6002 46.6827L39.1891 46.6803C39.2702 46.6801 39.3505 46.6636 39.4252 46.6317C39.4999 46.5998 39.5673 46.5532 39.6236 46.4947C39.6794 46.437 39.7228 46.3685 39.7512 46.2934C39.7795 46.2182 39.7922 46.1381 39.7885 46.0579C39.7133 44.3325 39.1402 42.6657 38.1384 41.2589C37.1366 39.852 35.749 38.7653 34.143 38.1299ZM32.1573 24.9951H32.518C32.9282 24.9951 33.3217 25.1581 33.6118 25.4482C33.9019 25.7383 34.0648 26.1317 34.0648 26.542C34.0648 26.9522 33.9019 27.3457 33.6118 27.6358C33.3217 27.9259 32.9282 28.0889 32.518 28.0889H31.6842C31.9799 27.0835 32.139 26.0429 32.1573 24.9951ZM22.3741 21.1003C23.1755 20.8713 23.9527 20.5646 24.6944 20.1846C26.1941 19.3986 28.0203 19.8433 28.9426 21.2189C28.9686 21.2574 28.9942 21.2967 29.0192 21.3368C29.3317 21.8306 29.5709 22.2295 29.7823 22.5815C30.4566 23.7043 30.7483 24.19 31.6959 24.8904C31.682 26.4459 31.345 27.9815 30.7063 29.3999L30.0137 30.9442C29.5708 31.9315 28.8519 32.7696 27.9436 33.3577C27.0353 33.9458 25.9763 34.2587 24.8943 34.2587C23.8122 34.2587 22.7532 33.9458 21.8449 33.3577C20.9366 32.7696 20.2177 31.9315 19.7748 30.9442L19.0821 29.3999C18.4312 27.9542 18.0938 26.387 18.092 24.8015C18.1668 24.518 18.893 22.1242 22.3741 21.1003ZM27.9186 33.9128V36.2776C27.9187 36.3137 27.9096 36.3492 27.8923 36.3809C27.8749 36.4125 27.8498 36.4392 27.8194 36.4586C26.9449 37.0137 25.9304 37.3086 24.8946 37.3086C23.8587 37.3086 22.8443 37.0137 21.9698 36.4586C21.9393 36.4392 21.9142 36.4125 21.8969 36.3809C21.8795 36.3492 21.8705 36.3137 21.8705 36.2776V33.9128C22.7902 34.4429 23.8331 34.7219 24.8946 34.7219C25.9561 34.7219 26.9989 34.4429 27.9186 33.9128ZM17.2693 24.9951H17.6319C17.6501 26.0429 17.8092 27.0835 18.1049 28.0889H17.269C16.8587 28.0889 16.4653 27.9259 16.1752 27.6358C15.8851 27.3457 15.7221 26.9522 15.7221 26.542C15.7221 26.1317 15.8851 25.7383 16.1752 25.4482C16.4653 25.1581 16.8587 24.9951 17.269 24.9951H17.2693ZM39.2891 46.1743C39.2763 46.1879 39.2608 46.1986 39.2436 46.2059C39.2264 46.2133 39.208 46.217 39.1893 46.217L10.6004 46.2194C10.5817 46.2195 10.5632 46.2157 10.5461 46.2084C10.5289 46.201 10.5134 46.1903 10.5005 46.1768C10.4882 46.164 10.4786 46.1489 10.4723 46.1324C10.4659 46.1158 10.463 46.0981 10.4637 46.0804C10.5446 44.3593 11.1451 42.703 12.1861 41.3299C13.227 39.9569 14.6596 38.9314 16.295 38.3888L21.5323 36.67C21.5829 36.7416 21.647 36.8026 21.7209 36.8497C22.6699 37.4522 23.7707 37.7722 24.8948 37.7722C26.0189 37.7722 27.1198 37.4522 28.0688 36.8497C28.1439 36.8018 28.2088 36.7394 28.2598 36.6664L33.4977 38.3878C35.1322 38.9309 36.5639 39.9564 37.6042 41.3292C38.6445 42.702 39.2447 44.3576 39.3256 46.0782C39.3263 46.0958 39.3235 46.1135 39.3172 46.13C39.3109 46.1465 39.3014 46.1616 39.2891 46.1743ZM48.6452 12.3486H37.2403C36.4932 12.3486 35.8855 12.98 35.8855 13.756V20.2813C35.8855 21.0573 36.4932 21.6886 37.2403 21.6886H38.0577L36.3829 24.8236C36.3277 24.9248 36.3073 25.0414 36.3247 25.1553C36.3422 25.2693 36.3965 25.3744 36.4794 25.4546C36.5718 25.5468 36.6968 25.599 36.8274 25.5998C36.9152 25.5994 37.0014 25.576 37.0774 25.5321L43.598 21.8211C43.75 21.7344 43.922 21.6886 44.097 21.6883H48.6455C49.3926 21.6883 50.0003 21.057 50.0003 20.281V13.756C50.0001 12.98 49.3923 12.3486 48.6452 12.3486ZM47.2691 18.7571H38.6164C38.5557 18.756 38.4978 18.7311 38.4553 18.6877C38.4128 18.6444 38.3889 18.5861 38.3889 18.5254C38.3889 18.4647 38.4128 18.4064 38.4553 18.3631C38.4978 18.3197 38.5557 18.2948 38.6164 18.2937H47.2691C47.3298 18.2948 47.3877 18.3197 47.4302 18.3631C47.4728 18.4064 47.4966 18.4647 47.4966 18.5254C47.4966 18.5861 47.4728 18.6444 47.4302 18.6877C47.3877 18.7311 47.3298 18.756 47.2691 18.7571ZM47.2691 15.6711H38.6164C38.586 15.6711 38.5559 15.6651 38.5278 15.6535C38.4997 15.6419 38.4741 15.6248 38.4526 15.6033C38.4311 15.5818 38.414 15.5562 38.4024 15.5281C38.3908 15.5 38.3848 15.4699 38.3848 15.4395C38.3848 15.4091 38.3908 15.379 38.4024 15.3508C38.414 15.3227 38.4311 15.2972 38.4526 15.2757C38.4741 15.2542 38.4997 15.2371 38.5278 15.2255C38.5559 15.2138 38.586 15.2079 38.6164 15.2079H47.2691C47.3306 15.2079 47.3895 15.2323 47.4329 15.2757C47.4764 15.3191 47.5008 15.3781 47.5008 15.4395C47.5008 15.5009 47.4764 15.5598 47.4329 15.6033C47.3895 15.6467 47.3306 15.6711 47.2691 15.6711Z" fill="#FFD40D"/>
</g>
<defs>
<clipPath id="clip0_2542_3168">
<rect width="40" height="40" fill="white" transform="translate(10 9.51562)"/>
</clipPath>
</defs>
</svg>
