<svg width="60" height="60" viewBox="0 0 60 60" fill="none" xmlns="http://www.w3.org/2000/svg">
<circle cx="30" cy="30" r="30" fill="#851A1D"/>
<path d="M35.3125 21.8594C35.3125 18.8391 32.8641 16.3906 29.8438 16.3906C26.8234 16.3906 24.375 18.8391 24.375 21.8594C24.375 24.8797 26.8234 27.3281 29.8438 27.3281C32.8641 27.3281 35.3125 24.8797 35.3125 21.8594Z" stroke="#FFD40D" stroke-width="2"/>
<path d="M38.9073 18.8928C39.5024 18.8514 40.1 18.9277 40.6657 19.1173C41.2314 19.3069 41.7542 19.606 42.2042 19.9977C42.6545 20.3893 43.0229 20.8658 43.2889 21.3998C43.5548 21.9339 43.7133 22.5151 43.7545 23.1103C43.7958 23.7055 43.7195 24.3031 43.5298 24.8688C43.3404 25.4345 43.0411 25.9574 42.6495 26.4074C42.2579 26.8575 41.7814 27.2261 41.2474 27.4921C40.7133 27.758 40.1321 27.9162 39.5369 27.9576M21.0994 18.8928C20.5041 18.8514 19.9066 18.9277 19.3409 19.1173C18.7752 19.3069 18.2524 19.606 17.8022 19.9977C17.3521 20.3893 16.9836 20.8658 16.7176 21.3998C16.4516 21.9339 16.2935 22.5151 16.2521 23.1103C16.2108 23.7055 16.2871 24.3031 16.4767 24.8688C16.6662 25.4345 16.9654 25.9574 17.357 26.4074C17.7487 26.8575 18.2251 27.2261 18.7592 27.4921C19.2933 27.758 19.8745 27.9162 20.4697 27.9576" stroke="#FFD40D" stroke-width="2" stroke-linecap="round" stroke-linejoin="round"/>
<path d="M20 37.09C20 40.1556 22.4851 42.6407 25.5507 42.6407H33.7992C36.8786 42.6407 39.375 40.1444 39.375 37.065C39.375 33.3136 35.7451 30.6325 32.1596 31.7357L31.3422 31.9872C30.1816 32.3442 28.9399 32.3396 27.7821 31.9739L27.2226 31.7971C23.6449 30.6671 20 33.3382 20 37.09Z" stroke="#FFD40D" stroke-width="2" stroke-linejoin="round"/>
<path d="M36.5625 42.016H40.5411C43.0037 42.016 45 40.0196 45 37.557V36.3012C45 33.9881 42.7975 32.3103 40.5674 32.9247L38.3512 33.5353M23.125 42.016H19.1464C16.6838 42.016 14.6875 40.0196 14.6875 37.557V36.3012C14.6875 33.9881 16.8901 32.3103 19.1201 32.9247L21.3363 33.5353" stroke="#FFD40D" stroke-width="2" stroke-linejoin="round"/>
</svg>
