<svg width="60" height="60" viewBox="0 0 60 60" fill="none" xmlns="http://www.w3.org/2000/svg">
<circle cx="30" cy="30" r="30" fill="#851A1D"/>
<path d="M32.2312 31.4963C32.1567 31.6431 32.143 31.8135 32.1934 31.9703C32.2437 32.1271 32.3539 32.2578 32.5 32.3338L33.8438 33.015H32.9312C32.722 33.0289 32.5157 32.96 32.3567 32.8232C32.1977 32.6865 32.0988 32.4928 32.0813 32.2838V25.8963C32.0813 25.7305 32.0154 25.5716 31.8982 25.4543C31.781 25.3371 31.622 25.2713 31.4563 25.2713C31.2905 25.2713 31.1315 25.3371 31.0143 25.4543C30.8971 25.5716 30.8313 25.7305 30.8313 25.8963V27.6588L28.9562 25.4838C28.9021 25.4218 28.8362 25.3711 28.7625 25.3346C28.6887 25.2981 28.6085 25.2765 28.5264 25.2709C28.4442 25.2654 28.3618 25.2761 28.2839 25.3025C28.2059 25.3288 28.1338 25.3702 28.0719 25.4244C28.0099 25.4786 27.9592 25.5444 27.9227 25.6182C27.8862 25.6919 27.8645 25.7722 27.859 25.8543C27.8535 25.9364 27.8642 26.0188 27.8906 26.0968C27.9169 26.1748 27.9583 26.2468 28.0125 26.3088L30.8437 29.5463C30.807 29.8618 30.7053 30.1664 30.545 30.4407C30.3847 30.715 30.1694 30.9531 29.9125 31.14L27.2375 33.14C27.1718 33.1897 27.1166 33.2518 27.0749 33.3228C27.0333 33.3938 27.006 33.4723 26.9947 33.5539C26.9834 33.6354 26.9882 33.7184 27.009 33.798C27.0297 33.8777 27.066 33.9525 27.1156 34.0182C27.1653 34.0838 27.2274 34.1391 27.2984 34.1807C27.3694 34.2224 27.4479 34.2496 27.5294 34.261C27.611 34.2723 27.694 34.2674 27.7736 34.2467C27.8533 34.2259 27.9281 34.1897 27.9938 34.14L30.625 32.1338L30.8125 31.9775V32.2838C30.8305 32.8242 31.0612 33.3357 31.4546 33.7068C31.8479 34.0779 32.3719 34.2785 32.9125 34.265H36.4563C36.5962 34.2642 36.7318 34.2164 36.8414 34.1294C36.951 34.0423 37.0281 33.921 37.0605 33.7848C37.093 33.6487 37.0787 33.5056 37.0202 33.3785C36.9616 33.2514 36.8621 33.1476 36.7375 33.0838L33.0562 31.2088C32.9084 31.1395 32.7393 31.1307 32.5852 31.1844C32.431 31.2382 32.304 31.3501 32.2312 31.4963ZM26.25 25.2713C26.0842 25.2713 25.9253 25.3371 25.8081 25.4543C25.6908 25.5716 25.625 25.7305 25.625 25.8963V33.3088C25.3966 33.4392 25.1381 33.5078 24.875 33.5078C24.6119 33.5078 24.3534 33.4392 24.125 33.3088V31.7775C24.125 31.6118 24.0592 31.4528 23.9419 31.3356C23.8247 31.2184 23.6658 31.1525 23.5 31.1525C23.3342 31.1525 23.1753 31.2184 23.0581 31.3356C22.9408 31.4528 22.875 31.6118 22.875 31.7775V33.6525C22.8752 33.748 22.8973 33.8421 22.9396 33.9277C22.9818 34.0133 23.0431 34.0881 23.1187 34.1463L23.2 34.2088C23.6592 34.5598 24.2174 34.7572 24.7952 34.7729C25.373 34.7886 25.9411 34.6218 26.4188 34.2963L26.6062 34.165C26.6908 34.1064 26.7596 34.0278 26.8064 33.9362C26.8533 33.8446 26.8769 33.7429 26.875 33.64V25.8963C26.875 25.7305 26.8092 25.5716 26.6919 25.4543C26.5747 25.3371 26.4158 25.2713 26.25 25.2713Z" fill="#FFD40D"/>
<path d="M46.35 29.5714L41.875 25.0964V18.7651C41.875 18.5994 41.8092 18.4404 41.6919 18.3232C41.5747 18.206 41.4158 18.1401 41.25 18.1401H34.9188L30.4438 13.6651C30.3267 13.5487 30.1682 13.4834 30.0031 13.4834C29.838 13.4834 29.6796 13.5487 29.5625 13.6651L25.0813 18.1401H18.75C18.5842 18.1401 18.4253 18.206 18.3081 18.3232C18.1909 18.4404 18.125 18.5994 18.125 18.7651V25.0964L13.65 29.5714C13.5336 29.6885 13.4683 29.8469 13.4683 30.012C13.4683 30.1771 13.5336 30.3355 13.65 30.4526L18.125 34.9339V41.2651C18.125 41.4309 18.1909 41.5899 18.3081 41.7071C18.4253 41.8243 18.5842 41.8901 18.75 41.8901H25.0813L29.5563 46.3651C29.6734 46.4816 29.8318 46.5469 29.9969 46.5469C30.162 46.5469 30.3204 46.4816 30.4375 46.3651L34.9188 41.8901H41.25C41.4158 41.8901 41.5747 41.8243 41.6919 41.7071C41.8092 41.5899 41.875 41.4309 41.875 41.2651V34.9339L46.35 30.4589C46.4086 30.4008 46.4551 30.3317 46.4868 30.2555C46.5185 30.1793 46.5349 30.0977 46.5349 30.0151C46.5349 29.9326 46.5185 29.8509 46.4868 29.7748C46.4551 29.6986 46.4086 29.6295 46.35 29.5714ZM40.8063 34.2339C40.7483 34.2923 40.7025 34.3616 40.6714 34.4377C40.6403 34.5139 40.6245 34.5954 40.625 34.6776V40.6401H34.6625C34.5803 40.6397 34.4987 40.6554 34.4226 40.6865C34.3464 40.7176 34.2772 40.7635 34.2188 40.8214L30 45.0151L25.7813 40.7964C25.7229 40.7385 25.6536 40.6926 25.5774 40.6615C25.5013 40.6304 25.4198 40.6147 25.3375 40.6151H19.375V34.6776C19.3755 34.5954 19.3597 34.5139 19.3286 34.4377C19.2975 34.3616 19.2517 34.2923 19.1938 34.2339L15 30.0151L19.2188 25.7964C19.2767 25.738 19.3225 25.6687 19.3536 25.5926C19.3847 25.5164 19.4005 25.4349 19.4 25.3526V19.3901H25.3625C25.4448 19.3906 25.5263 19.3749 25.6024 19.3438C25.6786 19.3126 25.7479 19.2668 25.8063 19.2089L30 15.0151L34.2188 19.2339C34.2772 19.2918 34.3464 19.3376 34.4226 19.3688C34.4987 19.3999 34.5803 19.4156 34.6625 19.4151H40.625V25.3776C40.6245 25.4599 40.6403 25.5414 40.6714 25.6176C40.7025 25.6937 40.7483 25.763 40.8063 25.8214L45 30.0151L40.8063 34.2339Z" fill="#FFD40D"/>
<path d="M30 20.0151C28.0222 20.0151 26.0888 20.6016 24.4443 21.7004C22.7998 22.7993 21.5181 24.361 20.7612 26.1883C20.0043 28.0156 19.8063 30.0262 20.1922 31.966C20.578 33.9058 21.5304 35.6877 22.9289 37.0862C24.3275 38.4847 26.1093 39.4371 28.0491 39.823C29.9889 40.2088 31.9996 40.0108 33.8268 39.2539C35.6541 38.4971 37.2159 37.2153 38.3147 35.5708C39.4135 33.9263 40 31.9929 40 30.0151C40 27.363 38.9464 24.8194 37.0711 22.9441C35.1957 21.0687 32.6522 20.0151 30 20.0151ZM30 38.7651C28.2694 38.7651 26.5777 38.252 25.1388 37.2905C23.6998 36.329 22.5783 34.9625 21.9161 33.3636C21.2538 31.7648 21.0805 30.0054 21.4181 28.3081C21.7558 26.6108 22.5891 25.0517 23.8128 23.828C25.0365 22.6042 26.5956 21.7709 28.293 21.4333C29.9903 21.0956 31.7496 21.2689 33.3485 21.9312C34.9473 22.5935 36.3139 23.715 37.2754 25.1539C38.2368 26.5928 38.75 28.2845 38.75 30.0151C38.75 32.3358 37.8281 34.5614 36.1872 36.2023C34.5462 37.8433 32.3206 38.7651 30 38.7651Z" fill="#FFD40D"/>
</svg>
