<svg width="60" height="60" viewBox="0 0 60 60" fill="none" xmlns="http://www.w3.org/2000/svg">
<circle cx="30" cy="30" r="30" fill="#851A1D"/>
<path d="M43.52 34.3158H45.6C46.92 34.3158 48 33.2358 48 31.9158V29.5158C48 28.1958 46.92 27.1158 45.6 27.1158H44C44 26.0758 43.32 25.1958 42.4 24.8358V15.1158C42.4 13.7958 41.32 12.7158 40 12.7158H16.8C15.48 12.7158 14.4 13.7958 14.4 15.1158V28.7158H12.8C12.36 28.7158 12 29.0758 12 29.5158C12 32.1558 14.16 34.3158 16.8 34.3158H28.48C28.84 35.2358 29.44 36.0758 30.2 36.7158H26.8C25.24 36.7158 24 37.9558 24 39.5158C24 40.3158 24.32 40.9958 24.84 41.5158C24.32 42.0358 24 42.7158 24 43.5158C24 45.0758 25.24 46.3158 26.8 46.3158H47.2C47.64 46.3158 48 45.9558 48 45.5158V37.5158C48 37.0758 47.64 36.7158 47.2 36.7158H41.8C42.56 36.0758 43.16 35.2358 43.52 34.3158ZM44 31.9158V28.7158H45.6C46.04 28.7158 46.4 29.0758 46.4 29.5158V31.9158C46.4 32.3558 46.04 32.7158 45.6 32.7158H43.96C43.96 32.4358 44 32.1958 44 31.9158ZM16.8 32.7158C15.32 32.7158 14.04 31.7158 13.68 30.3158H28V31.9158C28 32.1958 28.04 32.4358 28.04 32.7158H16.8ZM28 27.1158V28.7158H16V15.1158C16 14.6758 16.36 14.3158 16.8 14.3158H40C40.44 14.3158 40.8 14.6758 40.8 15.1158V24.7158H30.4C29.08 24.7158 28 25.7958 28 27.1158ZM46.4 44.7158H26.8C26.12 44.7158 25.6 44.1558 25.6 43.5158C25.6 42.8358 26.12 42.3158 26.8 42.3158H46.4V44.7158ZM46.4 38.3158V40.7158H26.8C26.12 40.7158 25.6 40.1558 25.6 39.5158C25.6 38.8358 26.12 38.3158 26.8 38.3158H46.4ZM37.6 36.7158H34.4C31.76 36.7158 29.6 34.5558 29.6 31.9158V27.1158C29.6 26.6758 29.96 26.3158 30.4 26.3158H41.6C42.04 26.3158 42.4 26.6758 42.4 27.1158V31.9158C42.4 34.5558 40.24 36.7158 37.6 36.7158Z" fill="#FFD40D"/>
</svg>
