<svg width="60" height="60" viewBox="0 0 60 60" fill="none" xmlns="http://www.w3.org/2000/svg">
<circle cx="30" cy="30" r="30" fill="#851A1D"/>
<path d="M29.9998 12.8486C26.4648 12.8526 23.0758 14.2586 20.5761 16.7583C18.0765 19.2579 16.6705 22.647 16.6665 26.182C16.6665 31.607 20.6048 36.112 24.7765 40.8803C26.0965 42.3903 27.4632 43.952 28.6798 45.532C28.8355 45.7339 29.0355 45.8975 29.2643 46.01C29.4932 46.1226 29.7448 46.1811 29.9998 46.1811C30.2549 46.1811 30.5065 46.1226 30.7353 46.01C30.9642 45.8975 31.1641 45.7339 31.3198 45.532C32.5365 43.952 33.9032 42.3903 35.2232 40.8803C39.3948 36.112 43.3332 31.607 43.3332 26.182C43.3292 22.647 41.9232 19.2579 39.4235 16.7583C36.9239 14.2586 33.5348 12.8526 29.9998 12.8486ZM29.9998 31.182C29.0109 31.182 28.0442 30.8887 27.222 30.3393C26.3997 29.7899 25.7589 29.009 25.3804 28.0954C25.002 27.1818 24.903 26.1764 25.0959 25.2065C25.2888 24.2366 25.765 23.3457 26.4643 22.6464C27.1636 21.9472 28.0545 21.471 29.0244 21.278C29.9943 21.0851 30.9996 21.1841 31.9133 21.5626C32.8269 21.941 33.6078 22.5819 34.1572 23.4041C34.7066 24.2264 34.9998 25.1931 34.9998 26.182C34.9998 27.508 34.4731 28.7798 33.5354 29.7175C32.5977 30.6552 31.3259 31.182 29.9998 31.182Z" fill="#FFD40D"/>
</svg>
