<svg width="60" height="60" viewBox="0 0 60 60" fill="none" xmlns="http://www.w3.org/2000/svg">
<circle cx="30" cy="30" r="30" fill="#851A1D"/>
<path d="M21.9844 43.9156C19.8244 43.9156 18.171 43.3023 17.0244 42.0756C15.8777 40.849 15.3044 39.1156 15.3044 36.8756V22.1556C15.3044 19.9156 15.8777 18.1823 17.0244 16.9556C18.171 15.729 19.8244 15.1156 21.9844 15.1156C24.1444 15.1156 25.7977 15.729 26.9444 16.9556C28.091 18.1823 28.6644 19.9156 28.6644 22.1556V36.8756C28.6644 39.1156 28.091 40.849 26.9444 42.0756C25.7977 43.3023 24.1444 43.9156 21.9844 43.9156ZM21.9844 39.9156C23.5044 39.9156 24.2644 38.9956 24.2644 37.1556V21.8756C24.2644 20.0356 23.5044 19.1156 21.9844 19.1156C20.4644 19.1156 19.7044 20.0356 19.7044 21.8756V37.1556C19.7044 38.9956 20.4644 39.9156 21.9844 39.9156ZM37.8 22.1556H33.2V19.0356C34.4533 19.0356 35.4533 18.929 36.2 18.7156C36.9733 18.5023 37.5867 18.1556 38.04 17.6756C38.4933 17.169 38.8933 16.449 39.24 15.5156H42.2V43.5156H37.8V22.1556Z" fill="#FFD40D"/>
</svg>
