<svg width="60" height="60" viewBox="0 0 60 60" fill="none" xmlns="http://www.w3.org/2000/svg">
<circle cx="30" cy="30" r="30" fill="#851A1D"/>
<path d="M30 28.9735L27.3917 31.0118C27.2461 31.1085 27.1061 31.1101 26.9717 31.0168C26.8372 30.9235 26.7978 30.8013 26.8533 30.6501L27.84 27.3418L25.2433 25.4585C25.1045 25.3618 25.0683 25.234 25.135 25.0751C25.2017 24.9163 25.3106 24.8362 25.4617 24.8351H28.6933L29.68 21.5468C29.7356 21.3957 29.8422 21.3201 30 21.3201C30.1578 21.3201 30.2645 21.3957 30.32 21.5468L31.3083 24.8351H34.5283C34.6806 24.8351 34.7917 24.9146 34.8617 25.0735C34.9317 25.2324 34.8967 25.3601 34.7567 25.4568L32.1517 27.3418L33.1383 30.6501C33.1939 30.8013 33.1545 30.9235 33.02 31.0168C32.8856 31.1101 32.7456 31.1085 32.6 31.0118L30 28.9735ZM30 42.7851L23.395 44.7585C22.9672 44.9107 22.5722 44.8468 22.21 44.5668C21.8478 44.2868 21.6667 43.9224 21.6667 43.4735V34.3001C20.6111 33.2624 19.7917 32.0468 19.2083 30.6535C18.625 29.2601 18.3333 27.7696 18.3333 26.1818C18.3333 22.9296 19.4645 20.1724 21.7267 17.9101C23.9889 15.6479 26.7467 14.5162 30 14.5151C33.2533 14.514 36.0111 15.6451 38.2733 17.9085C40.5356 20.1718 41.6667 22.9296 41.6667 26.1818C41.6667 27.7696 41.375 29.2601 40.7917 30.6535C40.2083 32.0468 39.3889 33.2618 38.3333 34.2985V43.4718C38.3333 43.9207 38.1522 44.2851 37.79 44.5651C37.4278 44.8451 37.0333 44.909 36.6067 44.7568L30 42.7851ZM30 36.1818C32.7778 36.1818 35.1389 35.2096 37.0833 33.2651C39.0278 31.3207 40 28.9596 40 26.1818C40 23.404 39.0278 21.0429 37.0833 19.0985C35.1389 17.154 32.7778 16.1818 30 16.1818C27.2222 16.1818 24.8611 17.154 22.9167 19.0985C20.9722 21.0429 20 23.404 20 26.1818C20 28.9596 20.9722 31.3207 22.9167 33.2651C24.8611 35.2096 27.2222 36.1818 30 36.1818Z" fill="#FFD40D"/>
</svg>
