<svg width="60" height="60" viewBox="0 0 60 60" fill="none" xmlns="http://www.w3.org/2000/svg">
<circle cx="30" cy="30" r="30" fill="#851A1D"/>
<path d="M21 15.5156C20.8271 15.5156 20.6573 15.5603 20.5069 15.6455C20.3565 15.7307 20.2308 15.8534 20.142 16.0016L14.142 26.0016C14.0355 26.1796 13.9869 26.3862 14.003 26.593C14.0192 26.7997 14.0992 26.9963 14.232 27.1556L29.232 45.1556C29.3258 45.2682 29.4433 45.3587 29.576 45.4208C29.7087 45.483 29.8534 45.5152 30 45.5152C30.1465 45.5152 30.2913 45.483 30.424 45.4208C30.5567 45.3587 30.6741 45.2682 30.768 45.1556L45.768 27.1556C45.9008 26.9963 45.9808 26.7997 45.9969 26.593C46.013 26.3862 45.9645 26.1796 45.858 26.0016L39.858 16.0016C39.7691 15.8534 39.6434 15.7307 39.493 15.6455C39.3427 15.5603 39.1728 15.5156 39 15.5156H21ZM16.766 25.5156L21.566 17.5156H25.524L22.324 25.5156H16.766ZM22.316 27.5156L26.85 39.1736L17.136 27.5156H22.316ZM30 41.7556L24.462 27.5156H35.538L30 41.7556ZM24.478 25.5156L27.678 17.5156H32.322L35.522 25.5156H24.478ZM37.678 25.5156L34.478 17.5156H38.434L43.234 25.5156H37.678ZM37.684 27.5156H42.864L33.15 39.1736L37.684 27.5156Z" fill="#FFD40D"/>
</svg>
