<svg width="60" height="60" viewBox="0 0 60 60" fill="none" xmlns="http://www.w3.org/2000/svg">
<circle cx="30" cy="30" r="30" fill="#851A1D"/>
<path d="M27.5 44.5156H25V45.7656H27.5V44.5156Z" fill="#FFD40D"/>
<path d="M46.875 21.3906H38.125V20.0531C38.6603 19.9149 39.1347 19.6032 39.4739 19.1667C39.8132 18.7301 39.9982 18.1935 40 17.6406C39.9994 17.5428 39.9759 17.4465 39.9312 17.3594L38.125 13.7406V12.6406C38.1235 12.1438 37.9255 11.6677 37.5742 11.3164C37.2229 10.9651 36.7468 10.7671 36.25 10.7656H16.25C15.7532 10.7671 15.2771 10.9651 14.9258 11.3164C14.5745 11.6677 14.3765 12.1438 14.375 12.6406V13.7406L12.5688 17.3594C12.5241 17.4465 12.5006 17.5428 12.5 17.6406C12.5018 18.1935 12.6868 18.7301 13.0261 19.1667C13.3653 19.6032 13.8397 19.9149 14.375 20.0531V46.3906C14.3765 46.8875 14.5745 47.3635 14.9258 47.7148C15.2771 48.0661 15.7532 48.2641 16.25 48.2656H36.25C36.7468 48.2641 37.2229 48.0661 37.5742 47.7148C37.9255 47.3635 38.1235 46.8875 38.125 46.3906V40.7656H46.875C47.0408 40.7656 47.1997 40.6998 47.3169 40.5826C47.4342 40.4654 47.5 40.3064 47.5 40.1406V22.0156C47.5 21.8499 47.4342 21.6909 47.3169 21.5737C47.1997 21.4565 47.0408 21.3906 46.875 21.3906ZM38.7438 17.7719C38.7117 18.0916 38.5578 18.3866 38.314 18.5958C38.0701 18.8051 37.7551 18.9124 37.4343 18.8955C37.1134 18.8786 36.8114 18.7388 36.5909 18.5052C36.3704 18.2715 36.2483 17.9619 36.25 17.6406V14.5156H37.1125L38.7438 17.7719ZM15.625 12.6406C15.625 12.4749 15.6908 12.3159 15.8081 12.1987C15.9253 12.0815 16.0842 12.0156 16.25 12.0156H36.25C36.4158 12.0156 36.5747 12.0815 36.6919 12.1987C36.8092 12.3159 36.875 12.4749 36.875 12.6406V13.2656H15.625V12.6406ZM35 14.5156V17.6406C35 17.9721 34.8683 18.2901 34.6339 18.5245C34.3995 18.7589 34.0815 18.8906 33.75 18.8906C33.4185 18.8906 33.1005 18.7589 32.8661 18.5245C32.6317 18.2901 32.5 17.9721 32.5 17.6406V14.5156H35ZM31.25 14.5156V17.6406C31.25 17.9721 31.1183 18.2901 30.8839 18.5245C30.6495 18.7589 30.3315 18.8906 30 18.8906C29.6685 18.8906 29.3505 18.7589 29.1161 18.5245C28.8817 18.2901 28.75 17.9721 28.75 17.6406V14.5156H31.25ZM27.5 14.5156V17.6406C27.5 17.9721 27.3683 18.2901 27.1339 18.5245C26.8995 18.7589 26.5815 18.8906 26.25 18.8906C25.9185 18.8906 25.6005 18.7589 25.3661 18.5245C25.1317 18.2901 25 17.9721 25 17.6406V14.5156H27.5ZM23.75 14.5156V17.6406C23.75 17.9721 23.6183 18.2901 23.3839 18.5245C23.1495 18.7589 22.8315 18.8906 22.5 18.8906C22.1685 18.8906 21.8505 18.7589 21.6161 18.5245C21.3817 18.2901 21.25 17.9721 21.25 17.6406V14.5156H23.75ZM20 14.5156V17.6406C20 17.9721 19.8683 18.2901 19.6339 18.5245C19.3995 18.7589 19.0815 18.8906 18.75 18.8906C18.4185 18.8906 18.1005 18.7589 17.8661 18.5245C17.6317 18.2901 17.5 17.9721 17.5 17.6406V14.5156H20ZM13.7563 17.7719L15.3875 14.5156H16.25V17.6406C16.2517 17.9619 16.1296 18.2715 15.9091 18.5052C15.6886 18.7388 15.3866 18.8786 15.0657 18.8955C14.7449 18.9124 14.4299 18.8051 14.186 18.5958C13.9422 18.3866 13.7883 18.0916 13.7563 17.7719ZM36.875 46.3906C36.875 46.5564 36.8092 46.7154 36.6919 46.8326C36.5747 46.9498 36.4158 47.0156 36.25 47.0156H16.25C16.0842 47.0156 15.9253 46.9498 15.8081 46.8326C15.6908 46.7154 15.625 46.5564 15.625 46.3906V43.2656H36.875V46.3906ZM36.875 42.0156H15.625V20.0531C16.1091 19.9241 16.5441 19.6544 16.875 19.2781C17.1068 19.5486 17.3944 19.7658 17.7181 19.9146C18.0417 20.0635 18.3938 20.1406 18.75 20.1406C19.1062 20.1406 19.4583 20.0635 19.7819 19.9146C20.1056 19.7658 20.3932 19.5486 20.625 19.2781C20.8568 19.5486 21.1444 19.7658 21.4681 19.9146C21.7917 20.0635 22.1438 20.1406 22.5 20.1406C22.8562 20.1406 23.2083 20.0635 23.5319 19.9146C23.8556 19.7658 24.1432 19.5486 24.375 19.2781C24.6068 19.5486 24.8944 19.7658 25.2181 19.9146C25.5417 20.0635 25.8938 20.1406 26.25 20.1406C26.6062 20.1406 26.9583 20.0635 27.2819 19.9146C27.6056 19.7658 27.8932 19.5486 28.125 19.2781C28.3568 19.5486 28.6444 19.7658 28.9681 19.9146C29.2917 20.0635 29.6438 20.1406 30 20.1406C30.3562 20.1406 30.7083 20.0635 31.0319 19.9146C31.3556 19.7658 31.6432 19.5486 31.875 19.2781C32.1068 19.5486 32.3944 19.7658 32.7181 19.9146C33.0417 20.0635 33.3938 20.1406 33.75 20.1406C34.1062 20.1406 34.4583 20.0635 34.7819 19.9146C35.1056 19.7658 35.3932 19.5486 35.625 19.2781C35.9559 19.6544 36.3909 19.9241 36.875 20.0531V21.3906H22.5C22.3342 21.3906 22.1753 21.4565 22.0581 21.5737C21.9408 21.6909 21.875 21.8499 21.875 22.0156V36.2031L19.4812 39.7969C19.4168 39.8895 19.3797 39.9984 19.3742 40.1111C19.3686 40.2239 19.3949 40.3359 19.45 40.4344C19.5023 40.5349 19.5813 40.619 19.6783 40.6775C19.7754 40.7359 19.8867 40.7664 20 40.7656H36.875V42.0156ZM46.25 39.5156H21.1688L23.0188 36.7344C23.0882 36.6332 23.1253 36.5133 23.125 36.3906V22.6406H46.25V39.5156Z" fill="#FFD40D"/>
<path d="M35.6128 33.1406L34.9878 30.0156C34.9589 29.8745 34.8822 29.7476 34.7706 29.6565C34.659 29.5653 34.5193 29.5156 34.3753 29.5156H25.6253C25.4812 29.5156 25.3415 29.5653 25.2299 29.6565C25.1183 29.7476 25.0416 29.8745 25.0128 30.0156L24.3878 33.1406C24.3732 33.2148 24.3711 33.2908 24.3815 33.3656L25.0065 37.1156C25.0303 37.2624 25.1057 37.396 25.2191 37.4922C25.3325 37.5884 25.4765 37.6411 25.6253 37.6406H34.3753C34.524 37.6411 34.668 37.5884 34.7814 37.4922C34.8948 37.396 34.9702 37.2624 34.994 37.1156L35.619 33.3656C35.6294 33.2908 35.6273 33.2148 35.6128 33.1406ZM26.1378 30.7656H33.8628L34.2378 32.6406H25.7628L26.1378 30.7656ZM30.6253 33.8906V34.5156H29.3753V33.8906H30.6253ZM33.844 36.3906H26.1565L25.7378 33.8906H28.1253V35.1406C28.1253 35.3064 28.1911 35.4654 28.3083 35.5826C28.4255 35.6998 28.5845 35.7656 28.7503 35.7656H31.2503C31.416 35.7656 31.575 35.6998 31.6922 35.5826C31.8094 35.4654 31.8753 35.3064 31.8753 35.1406V33.8906H34.2628L33.844 36.3906Z" fill="#FFD40D"/>
<path d="M36.875 27.0156C36.7092 27.0156 36.5503 27.0815 36.4331 27.1987C36.3158 27.3159 36.25 27.4748 36.25 27.6406V29.5156C36.25 29.6814 36.3158 29.8403 36.4331 29.9575C36.5503 30.0748 36.7092 30.1406 36.875 30.1406H36.925L37.5 37.0675C37.513 37.2241 37.5846 37.37 37.7004 37.4763C37.8163 37.5825 37.9678 37.6411 38.125 37.6406H43.125C43.2822 37.6411 43.4337 37.5825 43.5496 37.4763C43.6654 37.37 43.737 37.2241 43.75 37.0675L44.325 30.1406H44.375C44.5408 30.1406 44.6997 30.0748 44.8169 29.9575C44.9342 29.8403 45 29.6814 45 29.5156V27.6406C45 27.4748 44.9342 27.3159 44.8169 27.1987C44.6997 27.0815 44.5408 27.0156 44.375 27.0156H42.5V25.3994L43.5669 24.3325L42.6831 23.4487L41.4331 24.6987C41.3159 24.8159 41.25 24.9749 41.25 25.1406V27.0156H36.875ZM42.55 36.3906H38.7L38.1794 30.1406H43.0706L42.55 36.3906ZM43.75 28.8906H37.5V28.2656H43.75V28.8906Z" fill="#FFD40D"/>
</svg>
