<svg width="60" height="60" viewBox="0 0 60 60" fill="none" xmlns="http://www.w3.org/2000/svg">
<circle cx="30" cy="30" r="30" fill="#851A1D"/>
<path d="M21.9844 43.9156C19.8244 43.9156 18.171 43.3023 17.0244 42.0756C15.8777 40.849 15.3044 39.1156 15.3044 36.8756V22.1556C15.3044 19.9156 15.8777 18.1823 17.0244 16.9556C18.171 15.729 19.8244 15.1156 21.9844 15.1156C24.1444 15.1156 25.7977 15.729 26.9444 16.9556C28.091 18.1823 28.6644 19.9156 28.6644 22.1556V36.8756C28.6644 39.1156 28.091 40.849 26.9444 42.0756C25.7977 43.3023 24.1444 43.9156 21.9844 43.9156ZM21.9844 39.9156C23.5044 39.9156 24.2644 38.9956 24.2644 37.1556V21.8756C24.2644 20.0356 23.5044 19.1156 21.9844 19.1156C20.4644 19.1156 19.7044 20.0356 19.7044 21.8756V37.1556C19.7044 38.9956 20.4644 39.9156 21.9844 39.9156ZM37.88 43.9156C35.72 43.9156 34.08 43.3156 32.96 42.1156C31.8667 40.9156 31.32 39.1956 31.32 36.9556V34.6756H35.48V37.1556C35.48 38.9956 36.24 39.9156 37.76 39.9156C38.5067 39.9156 39.0667 39.689 39.44 39.2356C39.84 38.7556 40.04 37.929 40.04 36.7556V34.4756C40.04 33.1956 39.8133 32.289 39.36 31.7556C38.9067 31.1956 38.1733 30.9156 37.16 30.9156H35.68V26.9156H37.28C38.16 26.9156 38.8133 26.689 39.24 26.2356C39.6933 25.7823 39.92 25.0223 39.92 23.9556V21.9156C39.92 20.9556 39.72 20.249 39.32 19.7956C38.92 19.3423 38.3867 19.1156 37.72 19.1156C36.3067 19.1156 35.6 19.9823 35.6 21.7156V23.5556H31.44V22.0756C31.44 19.8356 31.9867 18.1156 33.08 16.9156C34.2 15.7156 35.8 15.1156 37.88 15.1156C39.9867 15.1156 41.5867 15.7156 42.68 16.9156C43.7733 18.089 44.32 19.7956 44.32 22.0356V23.0356C44.32 24.5556 44.0667 25.7823 43.56 26.7156C43.0533 27.6223 42.2667 28.2756 41.2 28.6756V28.7556C42.3467 29.1823 43.1733 29.8756 43.68 30.8356C44.1867 31.7956 44.44 33.0223 44.44 34.5156V36.9956C44.44 39.2356 43.88 40.9556 42.76 42.1556C41.6667 43.329 40.04 43.9156 37.88 43.9156Z" fill="#FFD40D"/>
</svg>
