<svg width="60" height="60" viewBox="0 0 60 60" fill="none" xmlns="http://www.w3.org/2000/svg">
<circle cx="30" cy="30" r="30" fill="#851A1D"/>
<path d="M27.9083 33.8923C28.2257 34.2846 28.7026 34.5108 29.2039 34.5108C29.2389 34.5108 29.2739 34.51 29.3081 34.5075C29.8476 34.4734 30.3359 34.1812 30.6207 33.7222L34.7492 27.0604C35.2342 26.2776 34.9925 25.2505 34.2104 24.7655C33.4259 24.2805 32.4005 24.5214 31.9155 25.3043L29.0233 29.9714L27.7106 28.3495C27.1295 27.6334 26.0797 27.5211 25.3668 28.1021C24.6507 28.6807 24.54 29.7305 25.1194 30.4459L27.9083 33.8923Z" fill="#FFD40D"/>
<path d="M24.3088 44.7118C26.0641 45.6867 28.0319 46.1742 29.9997 46.1742C31.9674 46.1742 33.9352 45.6867 35.6906 44.7118C40.6361 41.9644 44.0109 37.036 44.7181 31.529C45.2047 27.7472 45.0615 23.9329 44.2925 20.1919C43.7855 17.7269 41.9349 15.7681 39.4626 15.0804L32.8089 13.2314C30.9722 12.7212 29.0288 12.7196 27.1904 13.2314L20.536 15.0804C18.0645 15.7681 16.2139 17.7277 15.7069 20.1943C14.9378 23.9329 14.7946 27.7464 15.2813 31.529C15.9884 37.036 19.3633 41.9644 24.3088 44.7118ZM18.9718 20.8641C19.2257 19.6279 20.1673 18.6424 21.4287 18.2917L28.0824 16.4427C28.7098 16.2686 29.3543 16.1815 29.9997 16.1815C30.645 16.1815 31.2896 16.2686 31.917 16.4427L38.5698 18.2917C39.832 18.6424 40.7736 19.6288 41.0275 20.8665C41.7225 24.243 41.8519 27.687 41.4124 31.1042C40.8387 35.5646 38.0946 39.5628 34.0711 41.7983C31.5597 43.1932 28.4396 43.1932 25.9282 41.7983C21.9048 39.5628 19.1606 35.5646 18.5869 31.1042C18.1475 27.6878 18.2769 24.2422 18.9718 20.8641Z" fill="#FFD40D"/>
</svg>
