<svg width="60" height="60" viewBox="0 0 60 60" fill="none" xmlns="http://www.w3.org/2000/svg">
<circle cx="30" cy="30" r="30" fill="#851A1D"/>
<path d="M21.9844 43.9156C19.8244 43.9156 18.171 43.3023 17.0244 42.0756C15.8777 40.849 15.3044 39.1156 15.3044 36.8756V22.1556C15.3044 19.9156 15.8777 18.1823 17.0244 16.9556C18.171 15.729 19.8244 15.1156 21.9844 15.1156C24.1444 15.1156 25.7977 15.729 26.9444 16.9556C28.091 18.1823 28.6644 19.9156 28.6644 22.1556V36.8756C28.6644 39.1156 28.091 40.849 26.9444 42.0756C25.7977 43.3023 24.1444 43.9156 21.9844 43.9156ZM21.9844 39.9156C23.5044 39.9156 24.2644 38.9956 24.2644 37.1556V21.8756C24.2644 20.0356 23.5044 19.1156 21.9844 19.1156C20.4644 19.1156 19.7044 20.0356 19.7044 21.8756V37.1556C19.7044 38.9956 20.4644 39.9156 21.9844 39.9156ZM31.56 40.4756C31.56 38.4756 31.88 36.769 32.52 35.3556C33.16 33.9156 34.3067 32.329 35.96 30.5956C37.5867 28.8623 38.7067 27.3823 39.32 26.1556C39.96 24.929 40.28 23.649 40.28 22.3156C40.28 21.1156 40.08 20.289 39.68 19.8356C39.3067 19.3556 38.7467 19.1156 38 19.1156C36.48 19.1156 35.72 20.0356 35.72 21.8756V24.8756H31.56V22.1556C31.56 19.889 32.12 18.1556 33.24 16.9556C34.36 15.729 35.9867 15.1156 38.12 15.1156C40.2533 15.1156 41.88 15.729 43 16.9556C44.12 18.1556 44.68 19.889 44.68 22.1556C44.68 23.8623 44.2667 25.529 43.44 27.1556C42.64 28.7823 41.24 30.649 39.24 32.7556C37.9333 34.1423 37.0533 35.2756 36.6 36.1556C36.1467 37.009 35.92 37.929 35.92 38.9156V39.5156H44.28V43.5156H31.56V40.4756Z" fill="#FFD40D"/>
</svg>
