<svg width="13" height="9" viewBox="0 0 13 9" fill="none" xmlns="http://www.w3.org/2000/svg">
<path d="M8.60505 8.34808C8.57901 8.33506 8.5432 8.30902 8.49763 8.26996C8.45206 8.2309 8.40323 8.18533 8.35115 8.13325C8.26001 8.04211 8.19816 7.95097 8.16561 7.85983C8.13306 7.76868 8.1233 7.6515 8.13632 7.50828C8.14934 7.35204 8.19491 7.21532 8.27303 7.09814C8.35115 6.98096 8.59854 6.69451 9.01519 6.2388L9.75734 5.41853L0.67571 5.399L0.558527 5.3404C0.467385 5.30134 0.392519 5.25252 0.333928 5.19393C0.275337 5.13534 0.220001 5.06047 0.16792 4.96933C0.128859 4.89121 0.106073 4.83261 0.0995632 4.79355C0.093053 4.75449 0.089798 4.68288 0.089798 4.57872C0.089798 4.47456 0.093053 4.40295 0.0995632 4.36389C0.106073 4.32482 0.122349 4.27274 0.148389 4.20764C0.20047 4.1165 0.249296 4.04489 0.294867 3.99281C0.340438 3.94073 0.408794 3.88865 0.499936 3.83657L0.636649 3.73891H9.75734L9.01519 2.89911C8.59854 2.4434 8.35115 2.16021 8.27303 2.04953C8.19491 1.93886 8.14934 1.79889 8.13632 1.62963C8.1233 1.49943 8.13306 1.38876 8.16561 1.29762C8.19816 1.20647 8.26001 1.10882 8.35115 1.00466C8.44229 0.900497 8.53018 0.83214 8.61481 0.79959C8.69944 0.767039 8.80686 0.750764 8.93706 0.750764C9.09331 0.763784 9.24304 0.835396 9.38626 0.965598C9.52949 1.0958 9.9917 1.59708 10.7729 2.46944C11.5932 3.35482 12.0652 3.87888 12.1889 4.04163C12.3126 4.20439 12.3744 4.38342 12.3744 4.57872C12.3744 4.761 12.3158 4.93027 12.1986 5.08651C12.0815 5.24275 11.6127 5.77007 10.7924 6.66847C10.2196 7.29344 9.8257 7.7166 9.61086 7.93795C9.39603 8.15929 9.26908 8.28298 9.23002 8.30902C9.1519 8.34808 9.04774 8.37087 8.91753 8.37738C8.78733 8.38389 8.68317 8.37413 8.60505 8.34808Z" fill="#851A1D"/>
</svg>
