<svg width="43" height="43" viewBox="0 0 43 43" fill="none" xmlns="http://www.w3.org/2000/svg">
<g clip-path="url(#clip0_970_116)">
<path fill-rule="evenodd" clip-rule="evenodd" d="M33.1993 0.306397C34.4402 0.306182 35.6689 0.550485 36.8153 1.02534C37.9618 1.5002 39.0034 2.19631 39.8806 3.07389C40.7579 3.95146 41.4536 4.99331 41.9281 6.13988C42.4026 7.28645 42.6465 8.51529 42.6458 9.75615V33.2282C42.6462 34.4688 42.4022 35.6974 41.9276 36.8437C41.453 37.99 40.7572 39.0315 39.88 39.9088C39.0027 40.7861 37.9611 41.4819 36.8148 41.9565C35.6685 42.4311 34.44 42.6751 33.1993 42.6747H9.72404C8.48338 42.6751 7.25481 42.4311 6.10851 41.9565C4.96222 41.4819 3.92067 40.7861 3.0434 39.9088C2.16612 39.0315 1.47032 37.99 0.995739 36.8437C0.52116 35.6974 0.277111 34.4688 0.277538 33.2282V9.75778C0.27668 8.51678 0.520405 7.28777 0.99477 6.14101C1.46914 4.99425 2.16485 3.95221 3.04215 3.07446C3.91944 2.19671 4.96112 1.50046 6.10764 1.0255C7.25415 0.550539 8.48303 0.306182 9.72404 0.306397H33.1993ZM33.1993 1.93595H9.72404C8.69602 1.93163 7.67732 2.13098 6.72676 2.5225C5.77621 2.91401 4.91262 3.48993 4.18584 4.21701C3.45907 4.94409 2.88351 5.80792 2.49239 6.75864C2.10127 7.70936 1.90234 8.72813 1.90709 9.75615V33.2282C1.90234 34.256 2.10129 35.2747 2.49245 36.2252C2.88361 37.1757 3.45922 38.0394 4.18604 38.7662C4.91285 39.493 5.77647 40.0686 6.72701 40.4598C7.67755 40.8509 8.69617 41.0499 9.72404 41.0451H33.1993C34.2272 41.0499 35.2458 40.8509 36.1963 40.4598C37.1469 40.0686 38.0105 39.493 38.7373 38.7662C39.4641 38.0394 40.0397 37.1757 40.4309 36.2252C40.8221 35.2747 41.021 34.256 41.0163 33.2282V9.75778C41.0212 8.72963 40.8225 7.71068 40.4314 6.75977C40.0404 5.80886 39.4649 4.94483 38.7381 4.21758C38.0113 3.49033 37.1476 2.91427 36.197 2.52265C35.2463 2.13104 34.2275 1.93163 33.1993 1.93595ZM17.7137 13.3428L26.3503 21.4905L17.7137 29.6383L16.573 28.5628L24.069 21.4905L16.573 14.4183L17.7137 13.3428Z" fill="white"/>
</g>
<defs>
<clipPath id="clip0_970_116">
<rect width="42.3683" height="42.3683" fill="white" transform="matrix(-1 0 0 1 42.6458 0.306396)"/>
</clipPath>
</defs>
</svg>
