<svg width="60" height="60" viewBox="0 0 60 60" fill="none" xmlns="http://www.w3.org/2000/svg">
<circle cx="30" cy="30" r="30" fill="#851A1D"/>
<path d="M44.7272 13.8735H15.2727C13.7688 13.8735 12.5454 15.0969 12.5454 16.6008V42.4293C12.5454 43.9332 13.7688 45.1566 15.2727 45.1566H44.7272C46.2311 45.1566 47.4545 43.9332 47.4545 42.4293V16.6008C47.4545 15.0969 46.2311 13.8735 44.7272 13.8735ZM15.2727 14.9644H44.7272C45.6296 14.9644 46.3636 15.6985 46.3636 16.6008V21.5291H13.6363V16.6008C13.6363 15.6985 14.3703 14.9644 15.2727 14.9644ZM44.7272 44.0657H15.2727C14.3703 44.0657 13.6363 43.3316 13.6363 42.4293V22.62H46.3636V42.4293C46.3636 43.3316 45.6296 44.0657 44.7272 44.0657Z" fill="#FFD40D"/>
<path d="M43.6361 26.983H16.3633C16.0622 26.983 15.8179 27.2274 15.8179 27.5285V41.3382C15.8179 41.6393 16.0622 41.8836 16.3633 41.8836H43.6361C43.9372 41.8836 44.1815 41.6393 44.1815 41.3382V27.5285C44.1815 27.2274 43.9372 26.983 43.6361 26.983ZM43.0906 40.7927H16.9088V28.074H43.0906V40.7927ZM25.0601 20.0072H35.3903C36.026 20.0072 36.543 19.4905 36.543 18.8552V17.6386C36.543 17.0033 36.026 16.4866 35.3903 16.4866H25.0601C24.4248 16.4866 23.9081 17.0033 23.9081 17.6386V18.8552C23.9081 19.4905 24.4248 20.0072 25.0601 20.0072ZM24.999 17.6386C24.999 17.6048 25.0263 17.5775 25.0601 17.5775H35.3903C35.4244 17.5775 35.4521 17.6048 35.4521 17.6386V18.8552C35.4521 18.8889 35.4244 18.9163 35.3903 18.9163H25.0601C25.0263 18.9163 24.999 18.8889 24.999 18.8552V17.6386ZM19.1449 20.0651C20.1474 20.0651 20.9631 19.2494 20.9631 18.2469C20.9631 17.2444 20.1474 16.4287 19.1449 16.4287C18.1424 16.4287 17.3267 17.2444 17.3267 18.2469C17.3267 19.2494 18.1424 20.0651 19.1449 20.0651ZM19.1449 17.5196C19.5459 17.5196 19.8722 17.846 19.8722 18.2469C19.8722 18.6478 19.5459 18.9742 19.1449 18.9742C18.744 18.9742 18.4177 18.6478 18.4177 18.2469C18.4177 17.846 18.744 17.5196 19.1449 17.5196ZM40.8548 20.0651C41.8573 20.0651 42.673 19.2494 42.673 18.2469C42.673 17.2444 41.8573 16.4287 40.8548 16.4287C39.8523 16.4287 39.0366 17.2444 39.0366 18.2469C39.0366 19.2494 39.8523 20.0651 40.8548 20.0651ZM40.8548 17.5196C41.2557 17.5196 41.5821 17.846 41.5821 18.2469C41.5821 18.6478 41.2557 18.9742 40.8548 18.9742C40.4539 18.9742 40.1275 18.6478 40.1275 18.2469C40.1275 17.846 40.4539 17.5196 40.8548 17.5196ZM25.4066 25.347H34.5927C34.8939 25.347 35.1382 25.1027 35.1382 24.8016C35.1382 24.5004 34.8939 24.2561 34.5927 24.2561H25.4066C25.1055 24.2561 24.8612 24.5004 24.8612 24.8016C24.8612 25.1027 25.1055 25.347 25.4066 25.347Z" fill="#FFD40D"/>
<path d="M23.6612 39.3062C28.6716 39.3062 32.1967 39.3062 36.3384 39.3062C36.6395 39.3062 36.8838 39.0618 36.8838 38.7607C36.8838 38.4596 36.6395 38.2152 36.3384 38.2152H35.663C35.4045 35.5102 33.2467 33.3525 30.5415 33.0941V32.4415C30.5415 32.1403 30.2972 31.896 29.996 31.896C29.6949 31.896 29.4506 32.1403 29.4506 32.4415V33.0941C26.7492 33.3529 24.5946 35.5104 24.3365 38.2152H23.6612C23.36 38.2152 23.1157 38.4596 23.1157 38.7607C23.1157 39.0618 23.36 39.3062 23.6612 39.3062ZM29.996 34.1574C32.3501 34.1574 34.2968 35.9329 34.5678 38.2152H25.4318C25.702 35.9329 27.6459 34.1574 29.996 34.1574Z" fill="#FFD40D"/>
</svg>
