<svg width="60" height="60" viewBox="0 0 60 60" fill="none" xmlns="http://www.w3.org/2000/svg">
<circle cx="30" cy="30" r="30" fill="#851A1D"/>
<path d="M44.6125 17.6406L39.6125 12.6406H20.3688L15.3688 17.6406L30 33.5656L44.6125 17.6406ZM30 18.2656H34.1313L30 30.6656L25.8687 18.2656H30ZM26.6625 17.0156L30 14.0969L33.3375 17.0156H26.6625ZM35.45 18.2656H42.325L31.5187 30.0594L35.45 18.2656ZM36.5063 17.0156L39.375 14.1469L42.2437 17.0156H36.5063ZM35 16.7844L31.6625 13.8906H37.8687L35 16.7844ZM25.0625 16.7844L22.1312 13.8906H28.3375L25.0625 16.7844ZM23.4937 17.0156H17.7562L20.625 14.1469L23.4937 17.0156ZM24.55 18.2656L28.4812 30.0594L17.6688 18.2656H24.55ZM45 37.9969C44.05 37.0594 42.3625 37.0531 42.1813 37.0594L32.5 37.0156C32.446 36.1734 32.0937 35.3779 31.5063 34.7719C30.9324 34.2198 30.1711 33.905 29.375 33.8906H22.5C21.7353 33.8716 20.9768 34.0312 20.2846 34.3566C19.5923 34.6821 18.9856 35.1646 18.5125 35.7656H14.375V46.3906H28.2687C36.6812 46.3906 45.625 43.9781 45.625 39.5156C45.6289 39.2334 45.5756 38.9532 45.4681 38.6922C45.3607 38.4312 45.2015 38.1946 45 37.9969ZM15.625 45.1406V37.0156H18.0625L18.125 45.1406H15.625ZM28.2687 45.1406H19.375V36.7031C19.7237 36.2022 20.1925 35.7966 20.7384 35.5237C21.2843 35.2507 21.89 35.119 22.5 35.1406H29.375C29.8286 35.161 30.2595 35.3453 30.5875 35.6594C30.9421 36.0285 31.1622 36.5062 31.2125 37.0156H26.25V38.2656H31.8312L42.1875 38.3094C42.8783 38.2885 43.5575 38.4901 44.125 38.8844C44.2076 38.9656 44.2725 39.0631 44.3156 39.1707C44.3586 39.2782 44.3788 39.3936 44.375 39.5094C44.375 42.5656 37 45.1406 28.2687 45.1406Z" fill="#FFD40D"/>
</svg>
