<svg width="60" height="60" viewBox="0 0 60 60" fill="none" xmlns="http://www.w3.org/2000/svg">
<circle cx="30" cy="30" r="30" fill="#851A1D"/>
<path d="M45 41.1823V29.5156C43.3333 19.5156 33.3333 14.5156 33.3333 14.5156L29.8333 17.0156C30.003 17.6624 29.9742 18.3452 29.7507 18.9754C29.5273 19.6055 29.1195 20.1539 28.5803 20.5493C28.0411 20.9447 27.3955 21.1688 26.7273 21.1926C26.0591 21.2163 25.3992 21.0385 24.8333 20.6823L15 27.849V42.849C15 43.849 15.6667 44.5156 16.6667 44.5156H21.6667C21.6667 43.6316 22.0179 42.7837 22.643 42.1586C23.2681 41.5335 24.1159 41.1823 25 41.1823C25.8841 41.1823 26.7319 41.5335 27.357 42.1586C27.9821 42.7837 28.3333 43.6316 28.3333 44.5156H41.6667M25 29.5156H15" stroke="#FFD40D" stroke-width="2" stroke-linecap="round" stroke-linejoin="round"/>
<path d="M35 29.5156C35 28.1823 32.8333 27.0156 30 27.0156C27.1667 27.0156 25 28.1823 25 29.5156C25 30.8417 25.5268 32.1135 26.4645 33.0512C27.4021 33.9888 28.6739 34.5156 30 34.5156C31.3261 34.5156 32.5979 33.9888 33.5355 33.0512C34.4732 32.1135 35 30.8417 35 29.5156ZM35 29.5156H45" stroke="#FFD40D" stroke-width="2" stroke-linecap="round" stroke-linejoin="round"/>
<path d="M41.6668 44.5158C43.5078 44.5158 45.0002 43.0234 45.0002 41.1825C45.0002 39.3415 43.5078 37.8491 41.6668 37.8491C39.8259 37.8491 38.3335 39.3415 38.3335 41.1825C38.3335 43.0234 39.8259 44.5158 41.6668 44.5158Z" stroke="#FFD40D" stroke-width="2" stroke-linecap="round" stroke-linejoin="round"/>
</svg>
