<svg width="60" height="60" viewBox="0 0 60 60" fill="none" xmlns="http://www.w3.org/2000/svg">
<circle cx="30" cy="30" r="30" fill="#851A1D"/>
<path d="M44.6782 31.9105L44.6615 31.8438C41.4342 24.1521 35.3095 18.0395 27.6115 14.8271C27.283 14.6926 26.9306 14.6261 26.5756 14.6317C26.2206 14.6373 25.8704 14.7149 25.5463 14.8598C25.2222 15.0047 24.9309 15.2139 24.69 15.4748C24.4491 15.7356 24.2636 16.0426 24.1449 16.3771L15.2782 40.8605C15.1338 41.2576 15.087 41.6837 15.142 42.1027C15.1969 42.5217 15.3518 42.9214 15.5937 43.2679C15.8356 43.6144 16.1574 43.8976 16.5318 44.0936C16.9062 44.2895 17.3223 44.3925 17.7449 44.3938C18.051 44.3928 18.3549 44.3421 18.6449 44.2438L43.1449 35.3771C43.4795 35.2544 43.7862 35.0657 44.0467 34.8224C44.3072 34.5791 44.5163 34.286 44.6615 33.9605C44.8041 33.638 44.8791 33.2898 44.8819 32.9372C44.8848 32.5846 44.8155 32.2352 44.6782 31.9105ZM33.0449 36.8771C33.1441 36.98 33.2561 37.0696 33.3782 37.1438L18.0782 42.6821C17.9064 42.7411 17.7215 42.7505 17.5447 42.7092C17.3678 42.668 17.2061 42.5777 17.0782 42.4488C16.9425 42.3218 16.8478 42.1572 16.8063 41.9761C16.7647 41.795 16.7781 41.6056 16.8449 41.4321L20.8282 30.4321C20.9024 30.5542 20.9921 30.6663 21.0949 30.7655C21.6607 31.3313 22.4281 31.6491 23.2282 31.6491C24.0284 31.6491 24.7957 31.3313 25.3615 30.7655C25.9273 30.1997 26.2452 29.4323 26.2452 28.6321C26.2452 27.832 25.9273 27.0646 25.3615 26.4988C24.998 26.1333 24.5456 25.8689 24.0487 25.7315C23.5519 25.5942 23.0278 25.5886 22.5282 25.7155L24.3449 20.7488C28.869 22.8143 32.784 26.0117 35.7115 30.0321C34.7073 30.0848 33.7577 30.5061 33.0449 31.2155C32.6727 31.587 32.3775 32.0283 32.176 32.514C31.9746 32.9998 31.8709 33.5205 31.8709 34.0463C31.8709 34.5722 31.9746 35.0929 32.176 35.5786C32.3775 36.0644 32.6727 36.5056 33.0449 36.8771ZM43.1282 33.2938C43.0194 33.5313 42.822 33.7167 42.5782 33.8105L40.3782 34.5938C40.1949 34.2105 40.0115 33.8438 39.8282 33.4771C39.6282 33.0771 39.4115 32.6771 39.1949 32.2938C38.6782 31.3771 38.1115 30.4938 37.5282 29.6605C34.3388 25.0938 29.9815 21.4675 24.9115 19.1605L25.7115 16.9438C25.7546 16.8212 25.8228 16.709 25.9118 16.6143C26.0008 16.5196 26.1085 16.4445 26.2282 16.3938C26.3466 16.3333 26.4787 16.3045 26.6115 16.3105C26.754 16.3158 26.8947 16.3439 27.0282 16.3938C34.3146 19.4405 40.1057 25.2376 43.1449 32.5271V32.5605C43.1918 32.6775 43.2145 32.8028 43.2116 32.9289C43.2087 33.0549 43.1804 33.179 43.1282 33.2938Z" fill="#FFD40D"/>
<path d="M23.0583 38.7889C24.0478 38.7889 24.8499 37.9867 24.8499 36.9972C24.8499 36.0077 24.0478 35.2056 23.0583 35.2056C22.0688 35.2056 21.2666 36.0077 21.2666 36.9972C21.2666 37.9867 22.0688 38.7889 23.0583 38.7889Z" fill="#FFD40D"/>
</svg>
