<svg width="60" height="60" viewBox="0 0 60 60" fill="none" xmlns="http://www.w3.org/2000/svg">
<circle cx="30" cy="30" r="30" fill="#851A1D"/>
<path d="M16.6667 42.8486C15.75 42.8486 14.9656 42.5225 14.3134 41.8703C13.6612 41.2181 13.3345 40.4331 13.3334 39.5153V21.182H16.6667V39.5153H28.3334V42.8486H16.6667ZM21.6667 19.5153C20.75 19.5153 19.9656 19.1892 19.3134 18.537C18.6612 17.8848 18.3345 17.0998 18.3334 16.182C18.3323 15.2642 18.6589 14.4798 19.3134 13.8286C19.9678 13.1775 20.7523 12.8509 21.6667 12.8486C22.5812 12.8464 23.3662 13.1731 24.0217 13.8286C24.6773 14.4842 25.0034 15.2686 25 16.182C24.9967 17.0953 24.6706 17.8803 24.0217 18.537C23.3728 19.1936 22.5878 19.5198 21.6667 19.5153ZM30 46.182V37.8486H21.6667C20.75 37.8486 19.9656 37.5225 19.3134 36.8703C18.6612 36.2181 18.3345 35.4331 18.3334 34.5153V24.682C18.3334 23.7098 18.6667 22.8836 19.3334 22.2036C20 21.5236 20.8056 21.1831 21.75 21.182C22.2778 21.182 22.7712 21.2931 23.23 21.5153C23.6889 21.7375 24.0845 22.0431 24.4167 22.432C25.6667 23.7931 27.0073 25.0364 28.4384 26.162C29.8695 27.2875 31.5012 27.8498 33.3334 27.8486H35.5834C34.8889 27.3764 34.3406 26.7864 33.9384 26.0786C33.5362 25.3709 33.3345 24.572 33.3334 23.682H43.375C43.375 24.5709 43.1734 25.3698 42.77 26.0786C42.3667 26.7875 41.8189 27.3775 41.1267 27.8486H46.6667V31.182H40V46.182H36.6667V31.182H33.3334C31.8612 31.182 30.375 30.8625 28.875 30.2236C27.375 29.5848 26.0834 28.8209 25 27.932V33.682H30C30.9167 33.682 31.7017 34.0086 32.355 34.662C33.0084 35.3153 33.3345 36.0998 33.3334 37.0153V46.182H30Z" fill="#FFD40D"/>
</svg>
