<svg width="40" height="41" viewBox="0 0 40 41" fill="none" xmlns="http://www.w3.org/2000/svg">
<rect y="0.5" width="40" height="40" rx="20" fill="white"/>
<path d="M20.0003 27.5832H15.8337C13.3337 27.5832 11.667 26.3332 11.667 23.4165V17.5832C11.667 14.6665 13.3337 13.4165 15.8337 13.4165H24.167C26.667 13.4165 28.3337 14.6665 28.3337 17.5832V20.0832" stroke="#851A1D" stroke-width="1.5" stroke-miterlimit="10" stroke-linecap="round" stroke-linejoin="round"/>
<path d="M24.1663 18L21.558 20.0833C20.6997 20.7667 19.2913 20.7667 18.433 20.0833L15.833 18" stroke="#851A1D" stroke-width="1.5" stroke-miterlimit="10" stroke-linecap="round" stroke-linejoin="round"/>
<path d="M26.0085 22.8086L23.0585 25.7586C22.9419 25.8752 22.8335 26.0919 22.8085 26.2502L22.6502 27.3752C22.5919 27.7836 22.8752 28.0669 23.2835 28.0086L24.4085 27.8502C24.5669 27.8252 24.7919 27.7169 24.9002 27.6002L27.8502 24.6502C28.3585 24.1419 28.6002 23.5502 27.8502 22.8002C27.1085 22.0586 26.5169 22.3002 26.0085 22.8086Z" stroke="#851A1D" stroke-width="1.5" stroke-miterlimit="10" stroke-linecap="round" stroke-linejoin="round"/>
<path d="M25.584 23.2334C25.834 24.1334 26.534 24.8334 27.434 25.0834" stroke="#851A1D" stroke-width="1.5" stroke-miterlimit="10" stroke-linecap="round" stroke-linejoin="round"/>
</svg>
