<svg width="20" height="21" viewBox="0 0 20 21" fill="none" xmlns="http://www.w3.org/2000/svg">
<path d="M18.3327 6.38623V14.7196C18.3327 15.2721 18.1132 15.802 17.7225 16.1927C17.3318 16.5834 16.8019 16.8029 16.2493 16.8029H3.74935C3.19681 16.8029 2.66691 16.5834 2.27621 16.1927C1.88551 15.802 1.66602 15.2721 1.66602 14.7196V6.38623" stroke="#A0A3BD" stroke-width="1.70146" stroke-linecap="round" stroke-linejoin="round"/>
<path d="M18.3327 6.38656C18.3327 5.83402 18.1132 5.30412 17.7225 4.91342C17.3318 4.52272 16.8019 4.30322 16.2493 4.30322H3.74935C3.19681 4.30322 2.66691 4.52272 2.27621 4.91342C1.88551 5.30412 1.66602 5.83402 1.66602 6.38656L8.89518 10.9004C9.22629 11.1074 9.60889 11.2171 9.99935 11.2171C10.3898 11.2171 10.7724 11.1074 11.1035 10.9004L18.3327 6.38656Z" stroke="#A0A3BD" stroke-width="1.70146" stroke-linecap="round" stroke-linejoin="round"/>
</svg>
