<svg width="60" height="60" viewBox="0 0 60 60" fill="none" xmlns="http://www.w3.org/2000/svg">
<circle cx="30" cy="30" r="30" fill="#851A1D"/>
<path d="M43.3333 46.182H16.6667V12.8486H43.3333V46.182Z" stroke="#FFD40D" stroke-width="2"/>
<path d="M23.3333 32.8488C23.3333 31.0807 24.0357 29.385 25.2859 28.1347C26.5362 26.8845 28.2319 26.1821 30 26.1821C31.7681 26.1821 33.4638 26.8845 34.714 28.1347C35.9643 29.385 36.6666 31.0807 36.6666 32.8488C36.6666 34.6169 35.9643 36.3126 34.714 37.5628C33.4638 38.8131 31.7681 39.5155 30 39.5155C28.2319 39.5155 26.5362 38.8131 25.2859 37.5628C24.0357 36.3126 23.3333 34.6169 23.3333 32.8488ZM30 19.5155H29.9933V19.5088H30V19.5155Z" stroke="#FFD40D" stroke-width="2"/>
</svg>
