<svg width="20" height="20" viewBox="0 0 20 20" fill="none" xmlns="http://www.w3.org/2000/svg">
<g clip-path="url(#clip0_2471_2643)">
<path d="M10 0.3125C4.65812 0.3125 0.3125 4.65844 0.3125 10C0.3125 15.3419 4.65812 19.6875 10 19.6875C15.3419 19.6875 19.6875 15.3419 19.6875 10C19.6875 4.65844 15.3419 0.3125 10 0.3125ZM10 19.0625C5.00313 19.0625 0.9375 14.9969 0.9375 10C0.9375 5.00281 5.00313 0.9375 10 0.9375C14.9969 0.9375 19.0625 5.00281 19.0625 10C19.0625 14.9969 14.9969 19.0625 10 19.0625Z" fill="#851A1D"/>
<path d="M10 1.5625C5.3475 1.5625 1.5625 5.3475 1.5625 10C1.5625 14.6525 5.3475 18.4375 10 18.4375C14.6525 18.4375 18.4375 14.6525 18.4375 10C18.4375 5.3475 14.6525 1.5625 10 1.5625ZM15.5334 6.78344L16.5569 5.76C16.6881 5.96219 16.8103 6.17094 16.9228 6.38531L14.9419 8.36594C14.9119 8.27562 14.8872 8.18406 14.8538 8.09469C14.6144 7.45594 14.4347 6.79594 14.3166 6.12531L15.7372 4.70438C15.8963 4.87656 16.0472 5.05625 16.1903 5.24219L15.0912 6.34125L15.5334 6.78344ZM17.6834 11.4059L15.5506 13.5388L15.4681 12.63L17.8053 10.2928C17.7909 10.6716 17.7497 11.0431 17.6834 11.4059ZM4.46656 13.2166L3.44312 14.24C3.31187 14.0378 3.18969 13.8294 3.07719 13.6147L4.69594 11.9959C5.04906 12.6222 5.35594 13.2719 5.61438 13.9437L4.2625 15.2956C4.10344 15.1234 3.9525 14.9437 3.80906 14.7578L4.90813 13.6588L4.46656 13.2166ZM2.31656 8.59406L5.32625 5.58438C5.33969 5.69625 5.365 5.80688 5.41281 5.90812L5.59875 6.30312L2.195 9.70687C2.20906 9.32844 2.25031 8.95687 2.31656 8.59406ZM8.97094 3.81469L10.5747 2.21094C10.8719 2.23281 11.1647 2.27062 11.4519 2.325L8.98313 4.79375L8.94125 4.65406C8.77875 4.11344 8.29031 3.74969 7.72563 3.74969C7.52938 3.74969 7.33313 3.79594 7.15812 3.88344L6.89594 4.01469L8.59406 2.31656C8.95687 2.25031 9.32844 2.20875 9.70687 2.19469L8.52906 3.3725L8.97094 3.81469ZM14.2075 5.35063L14.1144 4.51219C14.1125 4.495 14.1081 4.47844 14.1056 4.46156L14.7578 3.80937C14.9437 3.9525 15.1234 4.10344 15.2956 4.26281L14.2075 5.35063ZM13.8272 3.85594C13.7247 3.7375 13.5991 3.6375 13.4537 3.56469C13.3775 3.52687 13.2966 3.49937 13.2141 3.47813L13.6147 3.07719C13.8294 3.18969 14.0378 3.31187 14.24 3.44312L13.8272 3.85594ZM12.3709 3.4375H11.455C11.3628 3.4375 11.2744 3.45125 11.1888 3.47219L12.1656 2.49531C12.4559 2.57906 12.7397 2.67781 13.015 2.79344L12.3709 3.4375ZM9.74281 6.94906L10.6569 6.035L10.8634 6.81969L10.0672 7.61594C9.95312 7.39656 9.84344 7.175 9.74281 6.94906ZM11.0472 7.51969L11.2537 8.30437L10.7484 8.80938C10.6919 8.71406 10.6372 8.6175 10.5784 8.52344C10.5091 8.4125 10.4478 8.29719 10.3822 8.18438L11.0472 7.51969ZM11.4378 9.00406L11.5872 9.57187C11.7203 10.0775 11.8047 10.5947 11.8456 11.1159L11.665 10.6641C11.4894 10.225 11.2872 9.79531 11.0659 9.37625L11.4378 9.00406ZM10.3503 4.87063L10.4725 5.33562L9.48438 6.32375C9.37625 6.04313 9.27719 5.75938 9.18906 5.47156L10.3472 4.31344C10.3263 4.39938 10.3125 4.48781 10.3125 4.58C10.3125 4.67844 10.3253 4.77656 10.3503 4.87063ZM7.67281 15.5016C7.51156 15.5822 7.33125 15.625 7.15063 15.625C6.945 15.625 6.76344 15.4866 6.70937 15.2878L6.68719 15.2066C6.17219 13.3178 5.31531 11.5662 4.14062 10C4.09031 9.93281 4.0625 9.84969 4.0625 9.76562C4.0625 9.55031 4.23781 9.375 4.45312 9.375H5.3125C5.59531 9.375 5.85344 9.51813 6.00375 9.75813L8.28125 13.4019C8.58781 13.8925 8.75 14.4581 8.75 15.0369C8.75 15.1888 8.62625 15.3125 8.47437 15.3125C8.19719 15.3125 7.92 15.3781 7.67281 15.5016ZM7.53625 11.0309L7.67156 10.8956C7.76594 11.1528 7.85375 11.4122 7.9375 11.6728L7.53625 11.0309ZM7.19625 10.4869L6.53375 9.42688C6.36219 9.1525 6.11 8.95125 5.81844 8.8425L6.48188 8.17906L7.00625 9.29344C7.15531 9.61031 7.29437 9.93219 7.42656 10.2569L7.19625 10.4869ZM5.02688 8.75H4.45312C4.17969 8.75 3.9325 8.85969 3.74969 9.03594L5.88156 6.90406L6.19875 7.57812L5.02688 8.75ZM2.21094 10.5747L3.72344 9.06219C3.54719 9.245 3.4375 9.49219 3.4375 9.76562C3.4375 9.92594 3.47719 10.0847 3.54969 10.2272L2.325 11.4519C2.27062 11.1647 2.2325 10.8722 2.21094 10.5747ZM3.90938 10.7512C4.06844 10.9775 4.22219 11.2069 4.3675 11.4403L2.79312 13.0147C2.6775 12.7394 2.57906 12.4553 2.495 12.1653L3.90938 10.7512ZM5.84719 14.5947C5.93031 14.8453 6.00875 15.0981 6.07875 15.3544L5.24219 16.1909C5.05625 16.0478 4.87656 15.8969 4.70438 15.7375L5.84719 14.5947ZM6.38625 15.9306C6.565 16.1094 6.80437 16.2219 7.06531 16.2428L6.38562 16.9225C6.17094 16.81 5.9625 16.6878 5.76031 16.5566L6.38625 15.9306ZM8.22531 15.9666C8.30719 15.9487 8.39062 15.9375 8.47437 15.9375C8.82094 15.9375 9.11875 15.7388 9.26938 15.4509C9.3225 15.5513 9.37688 15.6513 9.43313 15.75L7.71312 17.47C7.465 17.3941 7.22219 17.3059 6.98531 17.2066L8.22531 15.9666ZM8.90438 12.7669C8.58375 11.4838 8.13531 10.2253 7.57156 9.02719L5.97812 5.64156C5.95156 5.585 5.9375 5.52156 5.9375 5.45875C5.9375 5.29469 6.02875 5.14719 6.17531 5.07406L7.43781 4.44281C7.52656 4.39844 7.62594 4.375 7.72594 4.375C8.0125 4.375 8.26031 4.55938 8.34281 4.83375L8.56687 5.58063C8.9125 6.7325 9.41125 7.83406 10.0491 8.855C10.4528 9.50125 10.8013 10.1881 11.0844 10.8962L12.4487 14.3078C12.4828 14.3922 12.5 14.4816 12.5 14.5725C12.5 14.8803 12.3038 15.1525 12.0119 15.2497C11.8116 15.3166 11.6272 15.4306 11.4784 15.5797L10.9094 16.1487L10.9091 16.1491C10.7641 16.2941 10.4925 16.2691 10.3772 16.0962C9.69719 15.0763 9.20187 13.9559 8.90438 12.7669ZM13.0291 14.0753L12.5772 12.9453C12.5269 12.5666 12.5 12.1803 12.5 11.7959C12.5 10.9916 12.3962 10.1897 12.1916 9.41281L10.9547 4.71094C10.9434 4.66844 10.9375 4.62438 10.9375 4.58C10.9375 4.29469 11.1697 4.0625 11.455 4.0625H12.9134C13.0034 4.0625 13.0938 4.08375 13.1744 4.12375C13.3519 4.21281 13.4709 4.38375 13.4931 4.58125L13.595 5.49781C13.7019 6.45969 13.9284 7.40719 14.2684 8.31438C14.5466 9.05563 14.6875 9.83313 14.6875 10.625C14.6875 10.8419 14.6975 11.0613 14.7172 11.2775L14.9981 14.37C14.9994 14.3825 15 14.3959 15 14.4091C15 14.6131 14.8619 14.7903 14.6637 14.84C14.1788 14.9612 13.7228 15.1628 13.3088 15.4394L13.2794 15.4587L13.0763 14.9169C13.1059 14.8063 13.125 14.6912 13.125 14.5725C13.125 14.4016 13.0925 14.2341 13.0291 14.0753ZM17.7891 9.42531L15.3941 11.82L15.3397 11.2203C15.3253 11.0641 15.3213 10.9059 15.3181 10.7487L17.6509 8.41594C17.7191 8.74531 17.7641 9.0825 17.7891 9.42531ZM15.2744 9.90875C15.2459 9.62219 15.1959 9.33906 15.1334 9.05844L17.2069 6.985C17.3062 7.22187 17.3941 7.46469 17.4703 7.7125L15.2744 9.90875ZM7.38937 2.6375L2.63781 7.38906C3.42406 5.17844 5.17875 3.42375 7.38937 2.6375ZM12.6109 17.3622L13.0334 16.9397L12.5916 16.4978L11.4059 17.6834C11.0428 17.7497 10.6716 17.7913 10.2931 17.8053L10.6897 17.4088L10.2478 16.9669L9.42531 17.7894C9.0825 17.7644 8.74531 17.7191 8.41625 17.6513L9.76656 16.3009C9.79719 16.3484 9.82594 16.3966 9.85719 16.4437C10.0378 16.7134 10.3397 16.875 10.6644 16.875C10.9206 16.875 11.1713 16.7712 11.3516 16.5903L11.9206 16.0213C12.0013 15.9406 12.1009 15.8791 12.2094 15.8428C12.3791 15.7862 12.5288 15.6953 12.6584 15.5834L12.8322 16.0469C12.8656 16.1362 12.9381 16.2053 13.0288 16.2347C13.0603 16.245 13.0925 16.25 13.125 16.25C13.1859 16.25 13.2463 16.2322 13.2984 16.1975L13.6559 15.9597C14.0103 15.7228 14.4006 15.55 14.8153 15.4463C15.2922 15.3272 15.625 14.9006 15.625 14.4091C15.625 14.3894 15.6234 14.37 15.6225 14.3506L17.3625 12.6106C16.5759 14.8216 14.8216 16.5759 12.6109 17.3622Z" fill="#851A1D"/>
<path d="M9.88763 12.8849L9.4873 13.3652L11.3622 14.9277L11.7625 14.4474L9.88763 12.8849Z" fill="#851A1D"/>
<path d="M9.24395 10.9961L8.88086 11.5044L11.0683 13.0668L11.4314 12.5585L9.24395 10.9961Z" fill="#851A1D"/>
<path d="M9.0625 9.6875H8.4375V10.3125H9.0625V9.6875Z" fill="#851A1D"/>
<path d="M9.6875 8.75H9.0625V9.375H9.6875V8.75Z" fill="#851A1D"/>
<path d="M7.09574 5.71625L6.65381 6.1582L8.21632 7.72066L8.65825 7.27871L7.09574 5.71625Z" fill="#851A1D"/>
<path d="M13.75 12.812H13.125V13.437H13.75V12.812Z" fill="#851A1D"/>
<path d="M14.375 11.562H13.75V12.187H14.375V11.562Z" fill="#851A1D"/>
<path d="M12.7399 7.92458L12.2598 8.32471L13.8223 10.1996L14.3024 9.79948L12.7399 7.92458Z" fill="#851A1D"/>
<path d="M12.1149 5.73708L11.6348 6.13721L13.1973 8.01211L13.6774 7.61198L12.1149 5.73708Z" fill="#851A1D"/>
<path d="M13.125 4.6875H12.5V5.3125H13.125V4.6875Z" fill="#851A1D"/>
<path d="M7.09623 13.5292L6.6543 13.9712L7.59189 14.9088L8.03383 14.4668L7.09623 13.5292Z" fill="#851A1D"/>
<path d="M6.875 12.1875H6.25V12.8125H6.875V12.1875Z" fill="#851A1D"/>
<path d="M5.625 10H5V10.625H5.625V10Z" fill="#851A1D"/>
</g>
<defs>
<clipPath id="clip0_2471_2643">
<rect width="20" height="20" fill="white"/>
</clipPath>
</defs>
</svg>
