<svg width="60" height="60" viewBox="0 0 60 60" fill="none" xmlns="http://www.w3.org/2000/svg">
<circle cx="30" cy="30" r="30" fill="#851A1D"/>
<g clip-path="url(#clip0_2398_1229)">
<path d="M45 44.5156H15C14.8425 44.5044 14.8 44.5094 14.6475 44.4644C14.2487 44.3481 13.9187 44.0194 13.8012 43.6181C13.7562 43.4656 13.7612 43.4231 13.75 43.2656V15.7656C13.7612 15.6081 13.7562 15.5656 13.8012 15.4131C13.9175 15.0131 14.2462 14.6844 14.6475 14.5669C14.8 14.5219 14.8425 14.5269 15 14.5156H45C45.0588 14.5194 45.1187 14.5244 45.1775 14.5281C45.3325 14.5619 45.375 14.5619 45.5188 14.6281C45.8438 14.7769 46.0988 15.0706 46.1987 15.4131C46.2437 15.5656 46.2388 15.6081 46.25 15.7656V43.2656C46.2388 43.4231 46.2437 43.4656 46.1987 43.6181C46.0825 44.0181 45.7537 44.3469 45.3525 44.4644C45.2 44.5094 45.1575 44.5044 45 44.5156ZM43.75 25.7656H16.25V42.0156H43.75V25.7656ZM41.25 40.7656H18.75C18.5925 40.7544 18.55 40.7594 18.3975 40.7144C17.9975 40.5981 17.6687 40.2694 17.5512 39.8681C17.5062 39.7156 17.5113 39.6731 17.5 39.5156V28.2656C17.5113 28.1081 17.5062 28.0656 17.5512 27.9131C17.6675 27.5131 17.9962 27.1844 18.3975 27.0669C18.55 27.0219 18.5925 27.0269 18.75 27.0156H41.25C41.3088 27.0194 41.3687 27.0244 41.4275 27.0281C41.5825 27.0619 41.625 27.0619 41.7688 27.1281C42.0938 27.2769 42.3487 27.5706 42.4487 27.9131C42.4937 28.0656 42.4888 28.1081 42.5 28.2656V39.5156C42.4888 39.6731 42.4937 39.7156 42.4487 39.8681C42.3325 40.2681 42.0037 40.5969 41.6025 40.7144C41.45 40.7594 41.4075 40.7544 41.25 40.7656ZM40 29.5156H20V38.2656H40V29.5156ZM37.5 37.0156H22.5C22.4375 37.0106 22.375 37.0106 22.3137 37.0019C21.82 36.9269 21.3925 36.5331 21.2812 36.0444C21.17 35.5569 21.3813 35.0156 21.7963 34.7331C21.9513 34.6269 22.1287 34.5569 22.3137 34.5294C22.375 34.5206 22.4375 34.5206 22.5 34.5156H37.5C37.5625 34.5206 37.6238 34.5244 37.6863 34.5294C37.7475 34.5431 37.8088 34.5531 37.8687 34.5706C38.4613 34.7544 38.8625 35.4119 38.7188 36.0444C38.6075 36.5294 38.1825 36.9269 37.6863 37.0019C37.625 37.0106 37.5625 37.0106 37.5 37.0156ZM43.75 23.2656V17.0156H16.25V23.2656H43.75ZM24.3875 18.2656C25.0938 18.2719 25.7762 18.7094 26.0738 19.3469C26.3238 19.8831 26.3013 20.5381 26.0112 21.0556C25.58 21.8269 24.5613 22.2231 23.6975 21.8894C23.1225 21.6669 22.6738 21.1431 22.5425 20.5406C22.365 19.7231 22.7963 18.8081 23.5825 18.4419C23.8325 18.3244 24.1088 18.2644 24.3875 18.2656ZM29.3875 18.2656C30.0938 18.2719 30.7762 18.7094 31.0737 19.3469C31.3237 19.8831 31.3013 20.5381 31.0112 21.0556C30.58 21.8269 29.5613 22.2231 28.6975 21.8894C28.115 21.6631 27.6638 21.1294 27.5387 20.5169C27.3713 19.7044 27.8075 18.8031 28.5825 18.4419C28.8325 18.3244 29.1088 18.2644 29.3875 18.2656ZM19.3875 18.2656C20.0938 18.2719 20.7763 18.7094 21.0738 19.3481C21.3238 19.8831 21.3012 20.5381 21.0113 21.0556C20.58 21.8269 19.5613 22.2231 18.6975 21.8894C18.1225 21.6669 17.6737 21.1431 17.5425 20.5406C17.365 19.7231 17.7963 18.8081 18.5825 18.4419C18.8325 18.3244 19.1088 18.2644 19.3875 18.2656ZM41.25 20.7656H33.75C33.625 20.7569 33.5 20.7469 33.3813 20.7106C32.9075 20.5631 32.5413 20.1119 32.5037 19.6094C32.4662 19.1119 32.7563 18.6069 33.2075 18.3894C33.32 18.3356 33.44 18.2981 33.5637 18.2794C33.625 18.2706 33.6875 18.2706 33.75 18.2656H41.25C41.3125 18.2706 41.3738 18.2744 41.4363 18.2794C41.4975 18.2931 41.5588 18.3031 41.6187 18.3206C42.1525 18.4856 42.5387 19.0406 42.4963 19.6094C42.455 20.1669 42.0063 20.6656 41.4363 20.7519C41.375 20.7606 41.3125 20.7606 41.25 20.7656ZM19.3713 19.5156C19.0075 19.5194 18.6875 19.8869 18.7625 20.2619C18.8175 20.5394 19.0825 20.7619 19.3675 20.7656C19.7038 20.7694 20.0175 20.4594 19.9988 20.1094C19.9837 19.8019 19.7137 19.5269 19.395 19.5156C19.3862 19.5156 19.3788 19.5156 19.3713 19.5156ZM29.3713 19.5156C29.0075 19.5194 28.6875 19.8869 28.7625 20.2619C28.8175 20.5406 29.0825 20.7619 29.3675 20.7656C29.7025 20.7694 30.015 20.4619 30 20.1131C29.9862 19.8044 29.7188 19.5269 29.395 19.5156C29.3862 19.5156 29.3787 19.5156 29.3713 19.5156ZM24.3713 19.5156C24.0037 19.5194 23.6825 19.8969 23.7638 20.2731C23.8237 20.5481 24.0887 20.7644 24.3713 20.7656C24.7087 20.7681 25.0187 20.4569 24.9987 20.1056C24.9812 19.7956 24.71 19.5231 24.3862 19.5156C24.3812 19.5156 24.3762 19.5156 24.3713 19.5156Z" fill="#FFD40D"/>
</g>
<defs>
<clipPath id="clip0_2398_1229">
<rect width="40" height="40" fill="white" transform="translate(10 9.51562)"/>
</clipPath>
</defs>
</svg>
