<svg width="60" height="60" viewBox="0 0 60 60" fill="none" xmlns="http://www.w3.org/2000/svg">
<circle cx="30" cy="30" r="30" fill="#851A1D"/>
<path d="M15.2683 16.9633C17.2017 15.0295 19.7949 13.8984 22.5276 13.797C25.2603 13.6956 27.9302 14.6314 30.0016 16.4166C32.0712 14.6344 34.7376 13.6996 37.467 13.7995C40.1964 13.8994 42.7873 15.0265 44.7211 16.9553C46.6548 18.884 47.7888 21.472 47.8958 24.2011C48.0028 26.9302 47.0751 29.599 45.2983 31.6733L32.3566 44.6566C31.762 45.2514 30.9646 45.5994 30.1241 45.631C29.2837 45.6625 28.4624 45.3752 27.8249 44.8266L27.6416 44.6583L14.7016 31.6733C12.9258 29.6008 11.9976 26.9344 12.1026 24.2072C12.2077 21.48 13.3383 18.8929 15.2683 16.9633ZM17.6249 19.3199C16.262 20.6832 15.4764 22.519 15.4311 24.4462C15.3858 26.3734 16.0843 28.2441 17.3816 29.6699L17.6249 29.9266L29.9999 42.3016L38.8383 33.4599L32.9466 27.5699L31.1799 29.3366C30.2424 30.2746 28.9707 30.8017 27.6445 30.802C26.3183 30.8023 25.0463 30.2758 24.1083 29.3383C23.1703 28.4007 22.6432 27.129 22.6429 25.8028C22.6425 24.4766 23.1691 23.2046 24.1066 22.2666L27.6099 18.7616C26.2159 17.6486 24.4707 17.0689 22.6877 17.1266C20.9048 17.1843 19.2008 17.8757 17.8816 19.0766L17.6249 19.3199ZM31.7683 24.0333C32.0808 23.7208 32.5047 23.5453 32.9466 23.5453C33.3886 23.5453 33.8124 23.7208 34.125 24.0333L41.1949 31.1033L42.3749 29.9266C43.7607 28.5418 44.5496 26.6698 44.573 24.7109C44.5964 22.7519 43.8523 20.8616 42.5 19.4442C41.1477 18.0267 39.2944 17.1947 37.3365 17.126C35.3787 17.0573 33.4716 17.7574 32.0233 19.0766L31.7683 19.3199L26.4649 24.6233C26.1761 24.9119 26.0032 25.2967 25.9793 25.7044C25.9553 26.1121 26.0819 26.5144 26.3349 26.8349L26.4649 26.9799C26.7536 27.2688 27.1384 27.4416 27.5461 27.4656C27.9538 27.4896 28.3561 27.363 28.6766 27.1099L28.8216 26.9799L31.7683 24.0333Z" fill="#FFD40D"/>
</svg>
