<svg width="10" height="14" viewBox="0 0 10 14" fill="none" xmlns="http://www.w3.org/2000/svg">
<path d="M9.33333 4.66667C9.33333 4.05383 9.21263 3.447 8.9781 2.88081C8.74358 2.31462 8.39984 1.80017 7.9665 1.36683C7.53316 0.933495 7.01871 0.589751 6.45252 0.355229C5.88634 0.120707 5.2795 0 4.66667 0C4.05383 0 3.447 0.120707 2.88081 0.355229C2.31462 0.589751 1.80017 0.933495 1.36683 1.36683C0.933495 1.80017 0.589751 2.31462 0.355229 2.88081C0.120707 3.447 -9.13196e-09 4.05383 0 4.66667C0 5.59133 0.272667 6.45133 0.736667 7.17667H0.731333L4.66667 13.3333L8.602 7.17667H8.59733C9.07795 6.42774 9.33341 5.55655 9.33333 4.66667ZM4.66667 6.66667C4.13623 6.66667 3.62753 6.45595 3.25245 6.08088C2.87738 5.70581 2.66667 5.1971 2.66667 4.66667C2.66667 4.13623 2.87738 3.62753 3.25245 3.25245C3.62753 2.87738 4.13623 2.66667 4.66667 2.66667C5.1971 2.66667 5.70581 2.87738 6.08088 3.25245C6.45595 3.62753 6.66667 4.13623 6.66667 4.66667C6.66667 5.1971 6.45595 5.70581 6.08088 6.08088C5.70581 6.45595 5.1971 6.66667 4.66667 6.66667Z" fill="#FFD40D"/>
</svg>
