<svg width="14" height="14" viewBox="0 0 14 14" fill="none" xmlns="http://www.w3.org/2000/svg">
<path d="M12.6667 0H2.66667C2.31304 0 1.97391 0.140476 1.72386 0.390524C1.47381 0.640573 1.33333 0.979711 1.33333 1.33333V3.33333H0V4.66667H1.33333V6H0V7.33333H1.33333V8.66667H0V10H1.33333V12C1.33333 12.3536 1.47381 12.6928 1.72386 12.9428C1.97391 13.1929 2.31304 13.3333 2.66667 13.3333H12.6667C12.8435 13.3333 13.013 13.2631 13.1381 13.1381C13.2631 13.013 13.3333 12.8435 13.3333 12.6667V0.666667C13.3333 0.489856 13.2631 0.320286 13.1381 0.195262C13.013 0.0702379 12.8435 0 12.6667 0ZM7.33333 1.99933C8.432 1.99933 9.33333 2.9 9.33333 3.99933C9.33175 4.52934 9.12055 5.0372 8.74584 5.41204C8.37113 5.78687 7.86334 5.99824 7.33333 6C6.23533 6 5.33333 5.098 5.33333 3.99933C5.33333 2.9 6.23533 1.99933 7.33333 1.99933ZM11.3333 10.6667H3.33333V10.1667C3.33333 8.68733 5.13667 7.16667 7.33333 7.16667C9.53 7.16667 11.3333 8.68733 11.3333 10.1667V10.6667Z" fill="#FFD40D"/>
</svg>
