<svg width="60" height="60" viewBox="0 0 60 60" fill="none" xmlns="http://www.w3.org/2000/svg">
<circle cx="30" cy="30" r="30" fill="#851A1D"/>
<path d="M30.0001 13.4199C26.8166 13.4199 23.7046 14.3639 21.0576 16.1326C18.4106 17.9012 16.3476 20.4151 15.1293 23.3562C13.911 26.2974 13.5923 29.5338 14.2133 32.6561C14.8344 35.7784 16.3674 38.6464 18.6185 40.8975C20.8695 43.1486 23.7376 44.6816 26.8599 45.3026C29.9822 45.9237 33.2186 45.605 36.1597 44.3867C39.1009 43.1684 41.6147 41.1054 43.3834 38.4584C45.152 35.8114 46.0961 32.6994 46.0961 29.5159C46.0918 25.2483 44.3946 21.1567 41.377 18.139C38.3593 15.1213 34.2677 13.4242 30.0001 13.4199ZM30.0001 44.0119C27.133 44.0119 24.3304 43.1617 21.9465 41.5689C19.5627 39.9761 17.7047 37.7121 16.6075 35.0633C15.5103 32.4145 15.2233 29.4998 15.7826 26.6879C16.3419 23.8759 17.7225 21.293 19.7498 19.2657C21.7771 17.2384 24.3601 15.8578 27.172 15.2985C29.984 14.7391 32.8986 15.0262 35.5474 16.1234C38.1962 17.2205 40.4602 19.0785 42.053 21.4624C43.6459 23.8462 44.4961 26.6489 44.4961 29.5159C44.4961 33.3605 42.9688 37.0476 40.2503 39.7661C37.5318 42.4847 33.8446 44.0119 30.0001 44.0119Z" fill="#FFD40D"/>
<path d="M39.2 32.8599L38.8 32.5239C39.1455 31.569 39.3293 30.5632 39.344 29.5479C39.344 29.3357 39.2597 29.1322 39.1097 28.9822C38.9597 28.8322 38.7562 28.7479 38.544 28.7479C38.3319 28.7479 38.1284 28.8322 37.9783 28.9822C37.8283 29.1322 37.744 29.3357 37.744 29.5479C37.761 30.5609 37.576 31.5671 37.2 32.5079C36.6414 33.7894 35.7456 34.8953 34.608 35.7079C33.3093 36.6762 31.732 37.1982 30.112 37.1959C28.0752 37.1959 26.1217 36.3868 24.6815 34.9465C23.2412 33.5062 22.432 31.5528 22.432 29.5159C22.432 29.3037 22.3477 29.1002 22.1977 28.9502C22.0477 28.8002 21.8442 28.7159 21.632 28.7159C21.4199 28.7159 21.2164 28.8002 21.0663 28.9502C20.9163 29.1002 20.832 29.3037 20.832 29.5159C20.832 30.7346 21.0721 31.9413 21.5384 33.0672C22.0048 34.1931 22.6884 35.2161 23.5501 36.0778C25.2904 37.8182 27.6508 38.7959 30.112 38.7959C31.8569 38.7878 33.5623 38.2767 35.024 37.3239L35.44 37.6599C35.9479 38.0497 36.561 38.2782 37.2 38.3159C37.6196 38.32 38.0354 38.2368 38.421 38.0715C38.8067 37.9063 39.1537 37.6626 39.44 37.3559C39.7231 37.0589 39.9417 36.7067 40.0821 36.3212C40.2226 35.9357 40.2818 35.5253 40.256 35.1159C40.2398 34.6884 40.1379 34.2684 39.9566 33.8809C39.7752 33.4934 39.5179 33.1462 39.2 32.8599ZM38.288 36.2199C38.0301 36.464 37.6983 36.6153 37.3449 36.6501C36.9915 36.6848 36.6366 36.601 36.336 36.4119V36.3319C36.6697 36.0249 36.9799 35.6933 37.264 35.3399C37.5526 34.9752 37.8146 34.5902 38.048 34.1879V34.1079C38.3515 34.3968 38.5296 34.7931 38.544 35.2119C38.5813 35.5676 38.4905 35.925 38.288 36.2199ZM22.592 25.6599C22.6963 25.6686 22.8013 25.6564 22.9008 25.6239C23.0002 25.5914 23.0922 25.5393 23.1712 25.4707C23.2503 25.4021 23.3148 25.3184 23.3609 25.2245C23.4071 25.1306 23.434 25.0284 23.44 24.9239C23.4812 24.4274 23.717 23.9673 24.096 23.6439C24.2641 23.4913 24.4613 23.3744 24.6758 23.3001C24.8903 23.2259 25.1176 23.1959 25.344 23.2119C25.7693 23.2639 26.1628 23.4639 26.4553 23.777C26.7479 24.09 26.9209 24.4961 26.944 24.9239C26.9563 25.1234 27.0442 25.3107 27.19 25.4475C27.3357 25.5843 27.5282 25.6603 27.728 25.6599C27.8325 25.6539 27.9347 25.627 28.0286 25.5808C28.1225 25.5346 28.2063 25.4701 28.2748 25.3911C28.3434 25.3121 28.3955 25.2201 28.428 25.1206C28.4605 25.0212 28.4727 24.9162 28.464 24.8119C28.4182 23.9996 28.0833 23.2306 27.5199 22.6437C26.9565 22.0568 26.2017 21.6908 25.392 21.6119C24.9549 21.575 24.5149 21.6285 24.0992 21.7688C23.6836 21.9092 23.3013 22.1335 22.976 22.4279C22.6266 22.7247 22.3403 23.0886 22.1342 23.4982C21.928 23.9077 21.8063 24.3544 21.776 24.8119C21.7668 24.9229 21.7814 25.0345 21.8187 25.1394C21.856 25.2443 21.9152 25.34 21.9924 25.4203C22.0696 25.5005 22.163 25.5634 22.2664 25.6047C22.3698 25.646 22.4808 25.6648 22.592 25.6599ZM32.192 25.6599C32.2963 25.6686 32.4013 25.6564 32.5008 25.6239C32.6002 25.5914 32.6922 25.5393 32.7712 25.4707C32.8503 25.4021 32.9148 25.3184 32.9609 25.2245C33.0071 25.1306 33.034 25.0284 33.04 24.9239C33.0812 24.4274 33.317 23.9673 33.696 23.6439C33.8641 23.4913 34.0613 23.3744 34.2758 23.3001C34.4903 23.2259 34.7176 23.1959 34.944 23.2119C35.3693 23.2639 35.7628 23.4639 36.0553 23.777C36.3479 24.09 36.5209 24.4961 36.544 24.9239C36.5563 25.1234 36.6442 25.3107 36.79 25.4475C36.9357 25.5843 37.1282 25.6603 37.328 25.6599C37.4325 25.6539 37.5347 25.627 37.6286 25.5808C37.7225 25.5346 37.8063 25.4701 37.8748 25.3911C37.9434 25.3121 37.9955 25.2201 38.028 25.1206C38.0605 25.0212 38.0728 24.9162 38.064 24.8119C38.0182 23.9996 37.6833 23.2306 37.1199 22.6437C36.5565 22.0568 35.8017 21.6908 34.992 21.6119C34.5549 21.575 34.1149 21.6285 33.6992 21.7688C33.2836 21.9092 32.9013 22.1335 32.576 22.4279C32.2266 22.7247 31.9403 23.0886 31.7342 23.4982C31.528 23.9077 31.4063 24.3544 31.376 24.8119C31.3668 24.9229 31.3814 25.0345 31.4187 25.1394C31.456 25.2443 31.5152 25.34 31.5924 25.4203C31.6696 25.5005 31.763 25.5634 31.8664 25.6047C31.9698 25.646 32.0808 25.6648 32.192 25.6599Z" fill="#FFD40D"/>
</svg>
