<svg width="16" height="14" viewBox="0 0 16 14" fill="none" xmlns="http://www.w3.org/2000/svg">
<path d="M1.5 11C1.225 11 1 11.225 1 11.5C1 12.8813 2.11875 14 3.5 14H12.5C13.8813 14 15 12.8813 15 11.5C15 11.225 14.775 11 14.5 11H1.5ZM1 5.3125C1 5.69375 1.30938 6 1.6875 6H14.3125C14.6938 6 15 5.69063 15 5.3125C15 4.775 14.9188 4.2375 14.6625 3.76562C13.9688 2.49062 12.0906 0 8 0C3.90938 0 2.03125 2.4875 1.3375 3.76562C1.08125 4.2375 1 4.775 1 5.3125ZM0 8.5C0 9.05313 0.446875 9.5 1 9.5H15C15.5531 9.5 16 9.05313 16 8.5C16 7.94688 15.5531 7.5 15 7.5H1C0.446875 7.5 0 7.94688 0 8.5ZM8 1.25C8.41562 1.25 8.75 1.58438 8.75 2C8.75 2.41563 8.41562 2.75 8 2.75C7.58437 2.75 7.25 2.41563 7.25 2C7.25 1.58438 7.58437 1.25 8 1.25ZM3.75 3C3.75 2.58437 4.08437 2.25 4.5 2.25C4.91563 2.25 5.25 2.58437 5.25 3C5.25 3.41563 4.91563 3.75 4.5 3.75C4.08437 3.75 3.75 3.41563 3.75 3ZM11.5 2.25C11.9156 2.25 12.25 2.58437 12.25 3C12.25 3.41563 11.9156 3.75 11.5 3.75C11.0844 3.75 10.75 3.41563 10.75 3C10.75 2.58437 11.0844 2.25 11.5 2.25Z" fill="#851A1D"/>
</svg>
