<svg width="60" height="60" viewBox="0 0 60 60" fill="none" xmlns="http://www.w3.org/2000/svg">
<circle cx="30" cy="30" r="30" fill="#851A1D"/>
<path d="M47.4375 35.0906C46.375 30.3968 43.225 25.1656 38.7875 20.7281C34.35 16.2906 29.1188 13.1406 24.425 12.0781C23.0875 11.7718 21.7438 12.6218 21.425 13.9656L20.9125 16.1656C20.6563 17.2531 21.1625 18.3468 22.1 18.8843L21.1188 21.4593C21.1188 21.4593 21.1063 21.4781 21.1063 21.4906L12.6625 43.5593C12.3125 44.4968 12.5375 45.5656 13.2438 46.2718C13.7313 46.7531 14.3875 47.0156 15.05 47.0156C15.3563 47.0156 15.6625 46.9593 15.9625 46.8468L21.3375 44.7906C21.6563 44.6718 21.8188 44.3093 21.6938 43.9843C21.575 43.6656 21.2125 43.5031 20.8875 43.6281L15.5188 45.6843C15.0375 45.8656 14.4875 45.7468 14.1313 45.3843C13.7688 45.0281 13.65 44.4843 13.8313 44.0031L19.1625 30.0718C20 30.6718 21 30.9968 22.05 30.9968C23.3813 30.9968 24.6375 30.4781 25.575 29.5406C26.5188 28.5968 27.0375 27.3468 27.0375 26.0156C27.0375 24.6843 26.5188 23.4343 25.575 22.4906C24.7688 21.6843 23.7188 21.1906 22.6063 21.0718L23.275 19.3218C26.5813 20.4343 30.2563 22.8593 33.4563 26.0593C36.6563 29.2593 39.0813 32.9343 40.1938 36.2406L36.825 37.5343C36.65 37.1843 36.4188 36.8593 36.1438 36.5781C35.4375 35.8718 34.5 35.4843 33.5 35.4843C32.5 35.4843 31.5625 35.8718 30.8563 36.5781C29.9063 37.5343 29.5563 38.9156 29.8938 40.1843L25.5813 41.8343C25.2625 41.9531 25.1 42.3156 25.225 42.6406C25.3188 42.8906 25.5563 43.0406 25.8063 43.0406C25.8813 43.0406 25.9563 43.0281 26.0313 43.0031L36.6563 38.9343H36.6688C36.6688 38.9343 36.6813 38.9281 36.6875 38.9218L40.6313 37.4156C41.075 38.1843 41.8938 38.6718 42.7813 38.6718C42.9688 38.6718 43.1625 38.6531 43.35 38.6093L45.55 38.0906C46.8938 37.7781 47.7438 36.4281 47.4375 35.0906ZM45.2625 36.8718L43.0688 37.3906C42.425 37.5406 41.775 37.1593 41.5938 36.5218C41.5813 36.4781 41.5688 36.4406 41.5563 36.4031C41.5563 36.4031 41.5542 36.3989 41.55 36.3906C41.0063 34.5781 40.0813 32.6468 38.85 30.7406C37.625 28.8281 36.0875 26.9281 34.3375 25.1781C30.8375 21.6718 26.7563 19.0531 23.1313 17.9656H23.125C23.125 17.9656 23.1188 17.9656 23.1125 17.9593C23.075 17.9468 23.0375 17.9343 22.9938 17.9281C22.3563 17.7406 21.975 17.0906 22.125 16.4468L22.6438 14.2531C22.7813 13.6656 23.3063 13.2656 23.875 13.2656C23.9688 13.2656 24.0563 13.2781 24.15 13.2968C28.6188 14.3093 33.6313 17.3406 37.9 21.6156C42.175 25.8843 45.2063 30.9031 46.2188 35.3656C46.3688 36.0406 45.9438 36.7156 45.2625 36.8718Z" fill="#FFD40D"/>
<path d="M26.9001 33.4967C25.6813 32.2842 23.7063 32.2842 22.4938 33.4967C21.2813 34.7092 21.2751 36.6904 22.4938 37.9029C23.1001 38.5154 23.8938 38.8154 24.6938 38.8154C25.4938 38.8154 26.2876 38.5092 26.9001 37.9029C28.1126 36.6904 28.1126 34.7154 26.9001 33.4967ZM18.5313 41.8654C18.2876 42.1092 18.2876 42.5029 18.5313 42.7467C18.7751 42.9904 19.1688 42.9904 19.4126 42.7467C19.6563 42.5029 19.6563 42.1092 19.4126 41.8654C19.1688 41.6217 18.7751 41.6217 18.5313 41.8654ZM20.4751 37.9029C20.4751 37.5592 20.1938 37.2779 19.8501 37.2779C19.7313 37.2779 18.6813 37.3092 17.6501 38.3404C17.4063 38.5842 17.4063 38.9779 17.6501 39.2217C17.7751 39.3467 17.9313 39.4029 18.0938 39.4029C18.2563 39.4029 18.4126 39.3404 18.5376 39.2217C19.1938 38.5654 19.8251 38.5279 19.8626 38.5217C20.2063 38.5217 20.4813 38.2404 20.4813 37.8967L20.4751 37.9029ZM35.7001 32.6217C35.9438 32.3779 35.9438 31.9842 35.7001 31.7404C35.4563 31.4967 35.0626 31.4967 34.8188 31.7404C34.5751 31.9842 34.5751 32.3779 34.8188 32.6217C35.0626 32.8654 35.4563 32.8654 35.7001 32.6217ZM29.5376 27.3342C29.2938 27.5779 29.2938 27.9717 29.5376 28.2154C29.7813 28.4592 30.1751 28.4592 30.4188 28.2154C30.6626 27.9717 30.6626 27.5779 30.4188 27.3342C30.1751 27.0904 29.7813 27.0904 29.5376 27.3342ZM30.4188 35.0029C30.7626 35.0029 31.0438 34.7217 31.0438 34.3779C31.0438 32.9404 31.7063 32.2154 31.7438 32.1717C31.9813 31.9279 31.9813 31.5342 31.7438 31.2904C31.5001 31.0467 31.1063 31.0467 30.8626 31.2904C30.8188 31.3342 29.8001 32.3779 29.8001 34.3717C29.8001 34.7154 30.0813 34.9967 30.4251 34.9967L30.4188 35.0029ZM23.4376 42.6404C23.0938 42.6404 22.8126 42.9217 22.8126 43.2654C22.8126 43.6092 23.0938 43.8904 23.4376 43.8904C23.7813 43.8904 24.0626 43.6092 24.0626 43.2654C24.0626 42.9217 23.7813 42.6404 23.4376 42.6404Z" fill="#FFD40D"/>
</svg>
