<svg width="26" height="26" viewBox="0 0 26 26" fill="none" xmlns="http://www.w3.org/2000/svg">
<path d="M19.675 5.2459C19.3783 5.2459 19.0883 5.33387 18.8416 5.49869C18.595 5.66352 18.4027 5.89778 18.2892 6.17187C18.1756 6.44596 18.1459 6.74756 18.2038 7.03853C18.2617 7.3295 18.4046 7.59678 18.6143 7.80656C18.8241 8.01634 19.0914 8.1592 19.3824 8.21708C19.6733 8.27495 19.9749 8.24525 20.249 8.13172C20.5231 8.01819 20.7574 7.82593 20.9222 7.57925C21.087 7.33258 21.175 7.04257 21.175 6.7459C21.175 6.34807 21.017 5.96654 20.7357 5.68524C20.4544 5.40393 20.0728 5.2459 19.675 5.2459ZM25.425 8.2709C25.4007 7.23377 25.2064 6.20765 24.85 5.2334C24.5322 4.39981 24.0375 3.645 23.4 3.0209C22.781 2.38018 22.0244 1.88862 21.1875 1.5834C20.2158 1.2161 19.1886 1.01741 18.15 0.995898C16.825 0.920898 16.4 0.920898 13 0.920898C9.6 0.920898 9.175 0.920898 7.85 0.995898C6.81144 1.01741 5.78418 1.2161 4.8125 1.5834C3.9771 1.89171 3.22117 2.38285 2.6 3.0209C1.95928 3.63987 1.46772 4.39645 1.1625 5.2334C0.795201 6.20508 0.596512 7.23234 0.575 8.2709C0.5 9.5959 0.5 10.0209 0.5 13.4209C0.5 16.8209 0.5 17.2459 0.575 18.5709C0.596512 19.6095 0.795201 20.6367 1.1625 21.6084C1.46772 22.4453 1.95928 23.2019 2.6 23.8209C3.22117 24.4589 3.9771 24.9501 4.8125 25.2584C5.78418 25.6257 6.81144 25.8244 7.85 25.8459C9.175 25.9209 9.6 25.9209 13 25.9209C16.4 25.9209 16.825 25.9209 18.15 25.8459C19.1886 25.8244 20.2158 25.6257 21.1875 25.2584C22.0244 24.9532 22.781 24.4616 23.4 23.8209C24.0403 23.1991 24.5354 22.4436 24.85 21.6084C25.2064 20.6341 25.4007 19.608 25.425 18.5709C25.425 17.2459 25.5 16.8209 25.5 13.4209C25.5 10.0209 25.5 9.5959 25.425 8.2709ZM23.175 18.4209C23.1659 19.2144 23.0222 20.0005 22.75 20.7459C22.5504 21.2899 22.2298 21.7814 21.8125 22.1834C21.4071 22.5965 20.9165 22.9164 20.375 23.1209C19.6296 23.3931 18.8435 23.5368 18.05 23.5459C16.8 23.6084 16.3375 23.6209 13.05 23.6209C9.7625 23.6209 9.3 23.6209 8.05 23.5459C7.22611 23.5613 6.40574 23.4345 5.625 23.1709C5.10723 22.956 4.63919 22.6369 4.25 22.2334C3.83511 21.8318 3.51855 21.3399 3.325 20.7959C3.01982 20.0398 2.85055 19.2358 2.825 18.4209C2.825 17.1709 2.75 16.7084 2.75 13.4209C2.75 10.1334 2.75 9.6709 2.825 8.4209C2.8306 7.60972 2.97869 6.80583 3.2625 6.0459C3.48256 5.51829 3.82033 5.04797 4.25 4.6709C4.62977 4.24111 5.09911 3.89977 5.625 3.6709C6.38694 3.39595 7.19 3.25225 8 3.2459C9.25 3.2459 9.7125 3.1709 13 3.1709C16.2875 3.1709 16.75 3.1709 18 3.2459C18.7935 3.255 19.5796 3.39871 20.325 3.6709C20.893 3.88171 21.4029 4.22446 21.8125 4.6709C22.2221 5.05487 22.5422 5.52431 22.75 6.0459C23.0278 6.80707 23.1716 7.61062 23.175 8.4209C23.2375 9.6709 23.25 10.1334 23.25 13.4209C23.25 16.7084 23.2375 17.1709 23.175 18.4209ZM13 7.0084C11.7323 7.01087 10.4937 7.38906 9.44082 8.09517C8.38793 8.80129 7.56797 9.80364 7.08454 10.9756C6.60111 12.1475 6.4759 13.4365 6.72474 14.6796C6.97358 15.9226 7.58529 17.0641 8.48259 17.9596C9.37989 18.8552 10.5225 19.4647 11.7661 19.7111C13.0096 19.9575 14.2983 19.8298 15.4693 19.3441C16.6403 18.8584 17.6411 18.0364 18.3452 16.9822C19.0492 15.9279 19.425 14.6886 19.425 13.4209C19.4267 12.5773 19.2615 11.7417 18.939 10.9621C18.6166 10.1825 18.1432 9.47441 17.5461 8.87846C16.949 8.28251 16.2399 7.8105 15.4597 7.48956C14.6796 7.16862 13.8436 7.0051 13 7.0084ZM13 17.5834C12.1767 17.5834 11.372 17.3393 10.6874 16.8819C10.0029 16.4245 9.4694 15.7744 9.15435 15.0138C8.8393 14.2532 8.75687 13.4163 8.91748 12.6088C9.07809 11.8014 9.47453 11.0597 10.0567 10.4776C10.6388 9.89543 11.3805 9.49899 12.1879 9.33838C12.9954 9.17777 13.8323 9.2602 14.5929 9.57525C15.3535 9.8903 16.0036 10.4238 16.461 11.1083C16.9184 11.7929 17.1625 12.5976 17.1625 13.4209C17.1625 13.9675 17.0548 14.5088 16.8456 15.0138C16.6365 15.5188 16.3299 15.9777 15.9433 16.3642C15.5568 16.7508 15.0979 17.0574 14.5929 17.2665C14.0879 17.4757 13.5466 17.5834 13 17.5834Z" fill="#414142"/>
</svg>
