<svg width="60" height="60" viewBox="0 0 60 60" fill="none" xmlns="http://www.w3.org/2000/svg">
<circle cx="30" cy="30" r="30" fill="#851A1D"/>
<path fill-rule="evenodd" clip-rule="evenodd" d="M29.1667 14.5149C29.5749 14.515 29.9689 14.6649 30.274 14.9361C30.579 15.2074 30.7739 15.5812 30.8217 15.9866L30.8333 16.1816V28.1649L42.4 25.0116C42.8263 24.8958 43.2812 24.9539 43.6647 25.1733C44.0481 25.3927 44.3288 25.7554 44.445 26.1816C45.3164 29.3761 45.1643 32.7633 44.0102 35.8669C42.8561 38.9704 40.7581 41.6341 38.0113 43.483C35.2644 45.332 32.007 46.2734 28.6973 46.1746C25.3876 46.0758 22.1922 44.9418 19.5605 42.9323C16.9289 40.9227 14.9934 38.1387 14.0265 34.9718C13.0596 31.805 13.1099 28.4147 14.1702 25.2779C15.2306 22.141 17.2477 19.4156 19.9378 17.485C22.6278 15.5543 25.8555 14.5156 29.1667 14.5149ZM27.5 17.9583C24.3599 18.384 21.4986 19.9863 19.4948 22.4411C17.4909 24.8959 16.4941 28.0201 16.7058 31.1819C16.9175 34.3436 18.322 37.307 20.6352 39.4728C22.9485 41.6385 25.9978 42.845 29.1667 42.8483C30.9017 42.8484 32.6178 42.4873 34.2056 41.788C35.7935 41.0887 37.2184 40.0665 38.3896 38.7865C39.5609 37.5064 40.4528 35.9966 41.0087 34.353C41.5646 32.7094 41.7722 30.9681 41.6183 29.2399L41.5583 28.6966L29.605 31.9566C29.3734 32.0196 29.131 32.0319 28.8942 31.9926C28.6574 31.9532 28.432 31.8632 28.2332 31.7287C28.0344 31.5942 27.8671 31.4184 27.7425 31.2132C27.618 31.008 27.5393 30.7784 27.5117 30.5399L27.5 30.3483V17.9583ZM30.8333 32.8483C31.9384 32.8483 32.9982 33.2873 33.7796 34.0687C34.561 34.8501 35 35.9099 35 37.0149C35 38.12 34.561 39.1798 33.7796 39.9612C32.9982 40.7426 31.9384 41.1816 30.8333 41.1816C29.7283 41.1816 28.6685 40.7426 27.8871 39.9612C27.1057 39.1798 26.6667 38.12 26.6667 37.0149C26.6667 35.9099 27.1057 34.8501 27.8871 34.0687C28.6685 33.2873 29.7283 32.8483 30.8333 32.8483ZM30.8333 36.1816C30.6123 36.1816 30.4004 36.2694 30.2441 36.4257C30.0878 36.582 30 36.7939 30 37.0149C30 37.236 30.0878 37.4479 30.2441 37.6042C30.4004 37.7605 30.6123 37.8483 30.8333 37.8483C31.0544 37.8483 31.2663 37.7605 31.4226 37.6042C31.5789 37.4479 31.6667 37.236 31.6667 37.0149C31.6667 36.7939 31.5789 36.582 31.4226 36.4257C31.2663 36.2694 31.0544 36.1816 30.8333 36.1816ZM38.3333 31.1816C38.7416 31.1817 39.1356 31.3315 39.4406 31.6028C39.7457 31.8741 39.9406 32.2479 39.9883 32.6533L40 32.8649C39.9995 33.2897 39.8369 33.6983 39.5453 34.0072C39.2536 34.3161 38.8551 34.502 38.431 34.5269C38.007 34.5518 37.5894 34.4138 37.2636 34.1412C36.9379 33.8685 36.7285 33.4818 36.6783 33.0599L36.6667 32.8483C36.6667 32.4062 36.8423 31.9823 37.1548 31.6698C37.4674 31.3572 37.8913 31.1816 38.3333 31.1816ZM22.5 29.5149C23.1631 29.5149 23.7989 29.7783 24.2678 30.2472C24.7366 30.716 25 31.3519 25 32.0149C25 32.678 24.7366 33.3139 24.2678 33.7827C23.7989 34.2515 23.1631 34.5149 22.5 34.5149C21.837 34.5149 21.2011 34.2515 20.7322 33.7827C20.2634 33.3139 20 32.678 20 32.0149C20 31.3519 20.2634 30.716 20.7322 30.2472C21.2011 29.7783 21.837 29.5149 22.5 29.5149ZM35.49 12.9216C39.0129 14.0087 42.0472 16.2888 44.0717 19.3699C44.3087 19.731 44.3964 20.1699 44.3162 20.5943C44.236 21.0187 43.9942 21.3953 43.6417 21.6449L43.4733 21.7499L34.1267 26.8133C33.8695 26.9526 33.5802 27.0218 33.2877 27.0139C32.9953 27.006 32.7102 26.9213 32.4609 26.7683C32.2116 26.6152 32.0069 26.3993 31.8675 26.1422C31.7281 25.885 31.6589 25.5957 31.6667 25.3033L31.6867 25.0949L33.3533 14.2616C33.3897 14.0251 33.4766 13.7992 33.608 13.5992C33.7395 13.3993 33.9124 13.23 34.1152 13.1028C34.3179 12.9757 34.5456 12.8937 34.7828 12.8624C35.0201 12.8312 35.2613 12.8513 35.49 12.9216ZM23.3333 22.8483C23.7416 22.8483 24.1356 22.9982 24.4406 23.2695C24.7457 23.5407 24.9406 23.9145 24.9883 24.3199L25 24.5316C24.9995 24.9564 24.8369 25.365 24.5453 25.6739C24.2536 25.9828 23.8551 26.1687 23.431 26.1936C23.007 26.2185 22.5894 26.0805 22.2636 25.8078C21.9379 25.5352 21.7285 25.1484 21.6783 24.7266L21.6667 24.5149C21.6667 24.0729 21.8423 23.649 22.1548 23.3364C22.4674 23.0239 22.8913 22.8483 23.3333 22.8483ZM36.33 16.8283L35.4917 22.2833L40.17 19.7483C39.0918 18.5348 37.7875 17.543 36.33 16.8283Z" fill="#FFD40D"/>
</svg>
