<svg width="60" height="60" viewBox="0 0 60 60" fill="none" xmlns="http://www.w3.org/2000/svg">
<circle cx="30" cy="30" r="30" fill="#851A1D"/>
<path d="M31.0382 22.932C31.0382 24.082 30.5716 25.0153 29.9966 25.0153C29.4216 25.0153 28.9549 24.082 28.9549 22.932C28.9549 21.782 29.4216 20.8486 29.9966 20.8486C30.5716 20.8486 31.0382 21.782 31.0382 22.932ZM37.2682 24.082C36.6932 25.077 35.8232 25.652 35.3249 25.3653C34.8266 25.077 34.8899 24.0353 35.4649 23.0403C36.0399 22.0436 36.9099 21.4686 37.4082 21.757C37.9066 22.0453 37.8432 23.0853 37.2682 24.082ZM24.6682 25.3653C24.1699 25.652 23.3016 25.077 22.7249 24.082C22.1499 23.0853 22.0866 22.0436 22.5849 21.7553C23.0849 21.4686 23.9549 22.0436 24.5299 23.0386C25.1049 24.0353 25.1666 25.077 24.6682 25.3653Z" fill="#FFD40D"/>
<path fill-rule="evenodd" clip-rule="evenodd" d="M15.4168 26.6816V30.605C14.4569 30.8774 13.6121 31.4554 13.0105 32.2515C12.409 33.0475 12.0835 34.018 12.0835 35.0158C12.0835 36.0136 12.409 36.9841 13.0105 37.7801C13.6121 38.5762 14.4569 39.1542 15.4168 39.4266V40.015C15.4168 41.2305 15.8997 42.3963 16.7592 43.2559C17.6188 44.1154 18.7845 44.5983 20.0001 44.5983H40.0001C41.2157 44.5983 42.3815 44.1154 43.241 43.2559C44.1006 42.3963 44.5835 41.2305 44.5835 40.015V39.425C45.5426 39.1521 46.3867 38.5739 46.9877 37.7781C47.5887 36.9823 47.9138 36.0122 47.9138 35.015C47.9138 34.0177 47.5887 33.0477 46.9877 32.2519C46.3867 31.456 45.5426 30.8779 44.5835 30.605V26.6816C44.5835 23.4383 42.8285 20.5983 40.1785 18.61C37.5285 16.6233 33.9268 15.4316 30.0001 15.4316C26.0735 15.4316 22.4718 16.6233 19.8218 18.61C17.1718 20.5966 15.4168 23.4383 15.4168 26.6816ZM17.9168 26.6816C17.9168 24.4016 19.1451 22.2433 21.3218 20.61C23.5001 18.9783 26.5618 17.9316 30.0001 17.9316C33.4385 17.9316 36.5018 18.9783 38.6785 20.61C40.8535 22.2433 42.0835 24.4016 42.0835 26.6816V27.0983H17.9168V26.6816ZM17.9168 30.4316V29.5983H42.0835V30.4316H36.6668C36.3353 30.4316 36.0173 30.5633 35.7829 30.7978C35.5485 31.0322 35.4168 31.3501 35.4168 31.6816V33.3483C35.4168 33.6798 35.2851 33.9978 35.0507 34.2322C34.8162 34.4666 34.4983 34.5983 34.1668 34.5983C33.8353 34.5983 33.5173 34.4666 33.2829 34.2322C33.0485 33.9978 32.9168 33.6798 32.9168 33.3483V31.6816C32.9168 31.3501 32.7851 31.0322 32.5507 30.7978C32.3162 30.5633 31.9983 30.4316 31.6668 30.4316H17.9168ZM16.6668 32.9316C16.1143 32.9316 15.5843 33.1511 15.1936 33.5418C14.8029 33.9325 14.5835 34.4624 14.5835 35.015C14.5835 35.5675 14.8029 36.0974 15.1936 36.4881C15.5843 36.8788 16.1143 37.0983 16.6668 37.0983H43.3335C43.886 37.0983 44.4159 36.8788 44.8066 36.4881C45.1973 36.0974 45.4168 35.5675 45.4168 35.015C45.4168 34.4624 45.1973 33.9325 44.8066 33.5418C44.4159 33.1511 43.886 32.9316 43.3335 32.9316H37.9168V33.3483C37.9168 34.3429 37.5217 35.2967 36.8184 36C36.1152 36.7032 35.1614 37.0983 34.1668 37.0983C33.1722 37.0983 32.2184 36.7032 31.5151 36C30.8119 35.2967 30.4168 34.3429 30.4168 33.3483V32.9316H16.6668ZM17.9168 40.015V39.5983H42.0835V40.015C42.0835 41.165 41.1501 42.0983 40.0001 42.0983H20.0001C18.8501 42.0983 17.9168 41.165 17.9168 40.015Z" fill="#FFD40D"/>
</svg>
