<svg width="18" height="26" viewBox="0 0 18 26" fill="none" xmlns="http://www.w3.org/2000/svg">
<path d="M9 12.1411C8.1712 12.1411 7.37634 11.8119 6.79029 11.2258C6.20424 10.6398 5.875 9.84491 5.875 9.01611C5.875 8.18731 6.20424 7.39246 6.79029 6.8064C7.37634 6.22035 8.1712 5.89111 9 5.89111C9.8288 5.89111 10.6237 6.22035 11.2097 6.8064C11.7958 7.39246 12.125 8.18731 12.125 9.01611C12.125 9.42649 12.0442 9.83286 11.8871 10.212C11.7301 10.5911 11.4999 10.9356 11.2097 11.2258C10.9195 11.516 10.575 11.7462 10.1959 11.9032C9.81674 12.0603 9.41038 12.1411 9 12.1411ZM9 0.266113C6.67936 0.266113 4.45376 1.18799 2.81282 2.82893C1.17187 4.46987 0.25 6.69547 0.25 9.01611C0.25 15.5786 9 25.2661 9 25.2661C9 25.2661 17.75 15.5786 17.75 9.01611C17.75 6.69547 16.8281 4.46987 15.1872 2.82893C13.5462 1.18799 11.3206 0.266113 9 0.266113Z" fill="#FFD40D"/>
</svg>
