<svg width="60" height="60" viewBox="0 0 60 60" fill="none" xmlns="http://www.w3.org/2000/svg">
<circle cx="30" cy="30" r="30" fill="#851A1D"/>
<path d="M43.3334 37.8486C44.289 37.8486 45.0945 38.182 45.7501 38.8486C46.4056 39.5153 46.7278 40.2931 46.7167 41.182L33.3334 46.182L21.6667 42.8486V27.8486H24.9167L37.0334 32.332C37.9001 32.6764 38.3334 33.2986 38.3334 34.1986C38.3334 34.7209 38.1445 35.1764 37.7667 35.5653C37.389 35.9542 36.9112 36.1597 36.3334 36.182H31.6667L28.7501 35.0653L28.2001 36.632L31.6667 37.8486H43.3334ZM36.6667 14.8986C37.8445 13.532 39.3445 12.8486 41.1667 12.8486C42.6778 12.8486 43.9556 13.4042 45.0001 14.5153C46.0445 15.6264 46.6001 16.9042 46.6667 18.3486C46.6667 19.4931 46.1112 20.8597 45.0001 22.4486C43.889 24.0375 42.7945 25.3653 41.7167 26.432C40.639 27.4986 38.9556 29.082 36.6667 31.182C34.3556 29.082 32.6556 27.4986 31.5667 26.432C30.4778 25.3653 29.3834 24.0375 28.2834 22.4486C27.1834 20.8597 26.6445 19.4931 26.6667 18.3486C26.6667 16.8375 27.2056 15.5597 28.2834 14.5153C29.3612 13.4709 30.6612 12.9153 32.1834 12.8486C33.9612 12.8486 35.4556 13.532 36.6667 14.8986ZM11.6401 27.8486H18.3334V46.182H11.6401V27.8486Z" fill="#FFD40D"/>
</svg>
