<svg width="26" height="25" viewBox="0 0 26 25" fill="none" xmlns="http://www.w3.org/2000/svg">
<g filter="url(#filter0_i_2120_2875)">
<path d="M25.6642 10.0348C25.6518 10.3298 25.4959 10.6666 25.1933 10.9327C23.9819 11.9969 22.7698 13.0601 21.5571 14.1223C20.9908 14.6191 20.4238 15.1152 19.856 15.6104C19.7749 15.681 19.7543 15.7435 19.7792 15.8529C20.2151 17.7576 20.6474 19.663 21.0762 21.5692C21.163 21.9523 21.2485 22.3361 21.3422 22.7179C21.4789 23.2832 21.3043 23.8419 20.8637 24.1582C20.3788 24.506 19.864 24.5287 19.3515 24.2247C17.7191 23.2543 16.0888 22.28 14.4606 21.3018C14.0805 21.0747 13.6957 20.8529 13.3219 20.6174C13.1969 20.5386 13.1061 20.538 12.9777 20.6151C10.9977 21.8037 9.01332 22.9849 7.03559 24.1731C6.61557 24.4252 6.18657 24.52 5.72232 24.3295C5.10809 24.0774 4.78717 23.4315 4.93981 22.7604C5.37147 20.8609 5.8038 18.9613 6.23679 17.0617C6.32791 16.6627 6.40939 16.2606 6.50816 15.8645C6.53676 15.7501 6.5168 15.6826 6.43001 15.6071C5.68596 14.96 4.94381 14.3106 4.20353 13.659C3.16628 12.7485 2.12504 11.8442 1.09378 10.927C0.672765 10.5532 0.513137 10.076 0.685735 9.53029C0.858332 8.98457 1.2441 8.656 1.81942 8.5968C2.83905 8.49238 3.86033 8.40492 4.88095 8.31147C5.8906 8.21902 6.90024 8.12723 7.90989 8.03611C8.24644 8.00585 8.58299 7.97193 8.91987 7.94632C9.02828 7.93834 9.08615 7.89078 9.12672 7.79201C10.0413 5.64303 10.9573 3.49492 11.875 1.34771C12.1284 0.754092 12.581 0.422532 13.1563 0.437497C13.7316 0.452462 14.1467 0.733474 14.3748 1.26191C14.9957 2.69956 15.6086 4.14053 16.2242 5.58084C16.5374 6.31246 16.8514 7.04609 17.1593 7.78104C17.2065 7.89411 17.2741 7.93801 17.3921 7.94732C18.2036 8.01605 19.0148 8.0881 19.8258 8.16348C21.0066 8.27079 22.1873 8.37898 23.3678 8.48806C23.743 8.52131 24.1184 8.55457 24.4926 8.59647C25.173 8.67695 25.6695 9.24463 25.6642 10.0348Z" fill="#F1F2F9"/>
</g>
<defs>
<filter id="filter0_i_2120_2875" x="0.617188" y="0.437012" width="25.0469" height="25" filterUnits="userSpaceOnUse" color-interpolation-filters="sRGB">
<feFlood flood-opacity="0" result="BackgroundImageFix"/>
<feBlend mode="normal" in="SourceGraphic" in2="BackgroundImageFix" result="shape"/>
<feColorMatrix in="SourceAlpha" type="matrix" values="0 0 0 0 0 0 0 0 0 0 0 0 0 0 0 0 0 0 127 0" result="hardAlpha"/>
<feOffset dy="1"/>
<feGaussianBlur stdDeviation="1"/>
<feComposite in2="hardAlpha" operator="arithmetic" k2="-1" k3="1"/>
<feColorMatrix type="matrix" values="0 0 0 0 0 0 0 0 0 0 0 0 0 0 0 0 0 0 0.07 0"/>
<feBlend mode="normal" in2="shape" result="effect1_innerShadow_2120_2875"/>
</filter>
</defs>
</svg>
