<svg width="77" height="61" viewBox="0 0 77 61" fill="none" xmlns="http://www.w3.org/2000/svg">
<circle cx="46.4415" cy="30.3266" r="29.9298" fill="#851A1D"/>
<circle cx="30.0235" cy="30.3266" r="29.9298" fill="#FFF2F2"/>
<path d="M15.5391 29.3611C15.0058 29.3611 14.5736 29.7934 14.5736 30.3266C14.5736 30.8598 15.0058 31.2921 15.5391 31.2921L15.5391 29.3611ZM45.1861 31.0093C45.5631 30.6322 45.5631 30.0209 45.1861 29.6439L39.0418 23.4996C38.6648 23.1226 38.0535 23.1226 37.6764 23.4996C37.2994 23.8767 37.2994 24.488 37.6764 24.865L43.138 30.3266L37.6764 35.7882C37.2994 36.1652 37.2994 36.7765 37.6764 37.1536C38.0535 37.5306 38.6648 37.5306 39.0418 37.1536L45.1861 31.0093ZM15.5391 31.2921L44.5034 31.2921L44.5034 29.3611L15.5391 29.3611L15.5391 31.2921Z" fill="#851A1D"/>
</svg>
