<svg width="17" height="18" viewBox="0 0 17 18" fill="none" xmlns="http://www.w3.org/2000/svg">
<path d="M16.8974 16.9858L12.1774 12.2658C13.3116 10.9041 13.8772 9.15754 13.7565 7.38946C13.6358 5.62138 12.8381 3.96789 11.5294 2.77297C10.2206 1.57804 8.50156 0.93369 6.72982 0.973947C4.95808 1.0142 3.27007 1.73597 2.01694 2.98911C0.763805 4.24224 0.0420361 5.93025 0.00177886 7.70199C-0.0384784 9.47373 0.605876 11.1928 1.8008 12.5015C2.99572 13.8103 4.64921 14.608 6.41729 14.7287C8.18537 14.8494 9.93192 14.2838 11.2936 13.1495L16.0136 17.8695L16.8974 16.9858ZM1.27235 7.86952C1.27235 6.757 1.60225 5.66946 2.22033 4.74444C2.83842 3.81941 3.71692 3.09844 4.74476 2.6727C5.77259 2.24695 6.90359 2.13556 7.99473 2.3526C9.08588 2.56964 10.0882 3.10537 10.8748 3.89204C11.6615 4.67871 12.1972 5.68099 12.4143 6.77213C12.6313 7.86328 12.5199 8.99428 12.0942 10.0221C11.6684 11.0499 10.9475 11.9285 10.0224 12.5465C9.09741 13.1646 8.00987 13.4945 6.89735 13.4945C5.40601 13.4929 3.97624 12.8997 2.9217 11.8452C1.86717 10.7906 1.274 9.36085 1.27235 7.86952Z" fill="#201E1C"/>
</svg>
