<svg width="20" height="20" viewBox="0 0 20 20" fill="none" xmlns="http://www.w3.org/2000/svg">
<path d="M1.28123 12.7875C1.81248 10.4406 3.38749 7.82499 5.60624 5.60624C7.82499 3.38749 10.4406 1.81248 12.7875 1.28123C13.4562 1.12811 14.1281 1.55311 14.2875 2.22498L14.5437 3.32499C14.6719 3.86874 14.4187 4.41561 13.95 4.68436L14.4406 5.97186C14.4406 5.97186 14.4469 5.98123 14.4469 5.98748L18.6687 17.0219C18.8437 17.4906 18.7312 18.025 18.3781 18.3781C18.1344 18.6187 17.8062 18.75 17.475 18.75C17.3219 18.75 17.1687 18.7219 17.0187 18.6656L14.3312 17.6375C14.1719 17.5781 14.0906 17.3969 14.1531 17.2344C14.2125 17.075 14.3937 16.9937 14.5562 17.0562L17.2406 18.0844C17.4812 18.175 17.7562 18.1156 17.9344 17.9344C18.1156 17.7562 18.175 17.4844 18.0844 17.2437L15.4187 10.2781C15 10.5781 14.5 10.7406 13.975 10.7406C13.3094 10.7406 12.6812 10.4812 12.2125 10.0125C11.7406 9.54061 11.4812 8.91561 11.4812 8.24998C11.4812 7.58436 11.7406 6.95936 12.2125 6.48748C12.6156 6.08436 13.1406 5.83748 13.6969 5.77811L13.3625 4.90311C11.7094 5.45936 9.87186 6.67186 8.27186 8.27186C6.67186 9.87186 5.45936 11.7094 4.90311 13.3625L6.58749 14.0094C6.67499 13.8344 6.79061 13.6719 6.92811 13.5312C7.28123 13.1781 7.74999 12.9844 8.24999 12.9844C8.74999 12.9844 9.21874 13.1781 9.57186 13.5312C10.0469 14.0094 10.2219 14.7 10.0531 15.3344L12.2094 16.1594C12.3687 16.2187 12.45 16.4 12.3875 16.5625C12.3406 16.6875 12.2219 16.7625 12.0969 16.7625C12.0594 16.7625 12.0219 16.7562 11.9844 16.7437L6.67186 14.7094H6.66561C6.66561 14.7094 6.65936 14.7062 6.65624 14.7031L4.68436 13.95C4.46249 14.3344 4.05311 14.5781 3.60936 14.5781C3.51561 14.5781 3.41874 14.5687 3.32499 14.5469L2.22499 14.2875C1.55311 14.1312 1.12811 13.4562 1.28123 12.7875ZM2.36874 13.6781L3.46561 13.9375C3.78749 14.0125 4.11249 13.8219 4.20311 13.5031C4.20936 13.4812 4.21561 13.4625 4.22186 13.4437C4.22186 13.4437 4.2229 13.4417 4.22499 13.4375C4.49686 12.5312 4.95936 11.5656 5.57499 10.6125C6.18749 9.65623 6.95624 8.70623 7.83124 7.83123C9.58124 6.07811 11.6219 4.76873 13.4344 4.22498H13.4375C13.4375 4.22498 13.4406 4.22498 13.4437 4.22186C13.4625 4.21561 13.4812 4.20936 13.5031 4.20623C13.8219 4.11248 14.0125 3.78748 13.9375 3.46561L13.6781 2.36873C13.6094 2.07498 13.3469 1.87498 13.0625 1.87498C13.0156 1.87498 12.9719 1.88124 12.925 1.89061C10.6906 2.39686 8.18436 3.91248 6.04999 6.04998C3.91249 8.18436 2.39686 10.6937 1.89061 12.925C1.81561 13.2625 2.02811 13.6 2.36874 13.6781Z" fill="#851A1D"/>
<path d="M11.5502 11.9905C12.1596 11.3843 13.1471 11.3843 13.7533 11.9905C14.3596 12.5968 14.3627 13.5874 13.7533 14.1937C13.4502 14.4999 13.0533 14.6499 12.6533 14.6499C12.2533 14.6499 11.8564 14.4968 11.5502 14.1937C10.9439 13.5874 10.9439 12.5999 11.5502 11.9905ZM15.7346 16.1749C15.8564 16.2968 15.8564 16.4937 15.7346 16.6155C15.6127 16.7374 15.4158 16.7374 15.2939 16.6155C15.1721 16.4937 15.1721 16.2968 15.2939 16.1749C15.4158 16.053 15.6127 16.053 15.7346 16.1749ZM14.7627 14.1937C14.7627 14.0218 14.9033 13.8812 15.0752 13.8812C15.1346 13.8812 15.6596 13.8968 16.1752 14.4124C16.2971 14.5343 16.2971 14.7312 16.1752 14.853C16.1127 14.9155 16.0346 14.9437 15.9533 14.9437C15.8721 14.9437 15.7939 14.9124 15.7314 14.853C15.4033 14.5249 15.0877 14.5062 15.0689 14.503C14.8971 14.503 14.7596 14.3624 14.7596 14.1905L14.7627 14.1937ZM7.1502 11.553C7.02832 11.4312 7.02832 11.2343 7.1502 11.1124C7.27207 10.9905 7.46895 10.9905 7.59082 11.1124C7.7127 11.2343 7.7127 11.4312 7.59082 11.553C7.46895 11.6749 7.27207 11.6749 7.1502 11.553ZM10.2314 8.90928C10.3533 9.03115 10.3533 9.22803 10.2314 9.3499C10.1096 9.47178 9.9127 9.47178 9.79082 9.3499C9.66895 9.22803 9.66895 9.03115 9.79082 8.90928C9.9127 8.7874 10.1096 8.7874 10.2314 8.90928ZM9.79082 12.7437C9.61895 12.7437 9.47832 12.603 9.47832 12.4312C9.47832 11.7124 9.14707 11.3499 9.12832 11.328C9.00957 11.2062 9.00957 11.0093 9.12832 10.8874C9.2502 10.7655 9.44707 10.7655 9.56894 10.8874C9.59082 10.9093 10.1002 11.4312 10.1002 12.428C10.1002 12.5999 9.95957 12.7405 9.7877 12.7405L9.79082 12.7437ZM13.2814 16.5624C13.4533 16.5624 13.5939 16.703 13.5939 16.8749C13.5939 17.0468 13.4533 17.1874 13.2814 17.1874C13.1096 17.1874 12.9689 17.0468 12.9689 16.8749C12.9689 16.703 13.1096 16.5624 13.2814 16.5624Z" fill="#851A1D"/>
</svg>
