<svg width="40" height="40" viewBox="0 0 40 40" fill="none" xmlns="http://www.w3.org/2000/svg">
<rect width="40" height="40" rx="5" fill="white"/>
<path d="M17.293 13.636C17.1055 13.8235 17.0002 14.0778 17.0002 14.343C17.0002 14.6082 17.1055 14.8625 17.293 15.05L22.243 20L17.293 24.95C17.1109 25.1386 17.0101 25.3912 17.0123 25.6534C17.0146 25.9156 17.1198 26.1664 17.3052 26.3518C17.4906 26.5372 17.7414 26.6424 18.0036 26.6447C18.2658 26.6469 18.5184 26.5461 18.707 26.364L24.364 20.707C24.5515 20.5195 24.6568 20.2652 24.6568 20C24.6568 19.7348 24.5515 19.4805 24.364 19.293L18.707 13.636C18.5195 13.4485 18.2652 13.3432 18 13.3432C17.7348 13.3432 17.4805 13.4485 17.293 13.636Z" fill="#851A1D"/>
</svg>
