<svg width="60" height="60" viewBox="0 0 60 60" fill="none" xmlns="http://www.w3.org/2000/svg">
<circle cx="30" cy="30" r="30" fill="#851A1D"/>
<path d="M15.51 44.0076L22.285 37.2326M37.41 22.1026C36.5729 21.2648 36.1029 20.1289 36.1034 18.9446C36.1038 17.7603 36.5748 16.6247 37.4125 15.7876C38.2503 14.9505 39.3862 14.4805 40.5705 14.481C41.7548 14.4814 42.8904 14.9523 43.7275 15.7901C44.5439 16.6317 44.9965 17.7608 44.9874 18.9333C44.9784 20.1058 44.5085 21.2278 43.6792 22.0567C42.8499 22.8857 41.7278 23.3552 40.5552 23.3637C39.3827 23.3723 38.2513 22.9193 37.41 22.1026ZM36.15 23.3676V30.1026H29.4125V23.3651L36.15 23.3676ZM25.2 28.4151L31.1 34.3151L25.8425 39.5726L19.9475 33.6776L25.2 28.4151Z" stroke="#FFD40D" stroke-width="2" stroke-linejoin="round"/>
</svg>
