<svg width="26" height="21" viewBox="0 0 26 21" fill="none" xmlns="http://www.w3.org/2000/svg">
<path d="M25.5 2.67092C24.5604 3.07853 23.5668 3.348 22.55 3.47092C23.6227 2.83007 24.4266 1.82189 24.8125 0.633416C23.8044 1.2335 22.701 1.65629 21.55 1.88342C20.7807 1.04913 19.7562 0.493787 18.6373 0.304481C17.5183 0.115175 16.3682 0.302614 15.3672 0.837403C14.3663 1.37219 13.5712 2.22408 13.1065 3.25946C12.6419 4.29484 12.5341 5.45515 12.8 6.55841C10.7618 6.45532 8.76805 5.92461 6.94832 5.00074C5.12858 4.07688 3.52356 2.78053 2.2375 1.19592C1.78642 1.98363 1.5494 2.87569 1.55 3.78342C1.5484 4.62639 1.75527 5.45669 2.15219 6.20037C2.54912 6.94406 3.12377 7.57805 3.825 8.04592C3.00997 8.02374 2.21236 7.80504 1.5 7.40841V7.47091C1.50611 8.65203 1.91999 9.79478 2.67164 10.7059C3.42329 11.617 4.46657 12.2405 5.625 12.4709C5.17907 12.6066 4.71609 12.6782 4.25 12.6834C3.92736 12.6796 3.60553 12.6504 3.2875 12.5959C3.61739 13.6119 4.25578 14.4998 5.11384 15.1361C5.97191 15.7724 7.00697 16.1254 8.075 16.1459C6.2715 17.565 4.04485 18.3395 1.75 18.3459C1.33217 18.3473 0.914669 18.3222 0.5 18.2709C2.84304 19.7837 5.57352 20.5868 8.3625 20.5834C10.2871 20.6034 12.1964 20.2397 13.9789 19.5135C15.7614 18.7873 17.3813 17.7133 18.744 16.354C20.1067 14.9948 21.185 13.3777 21.9157 11.597C22.6464 9.81644 23.015 7.90807 23 5.98341C23 5.77091 23 5.54592 23 5.32092C23.9809 4.58943 24.8268 3.6927 25.5 2.67092Z" fill="#FFFFFF"/>
</svg>
