<svg width="20" height="21" viewBox="0 0 20 21" fill="none" xmlns="http://www.w3.org/2000/svg">
<path d="M2.70801 18.7703V17.7287C2.70801 16.7711 2.89661 15.8229 3.26305 14.9383C3.62949 14.0536 4.16659 13.2498 4.84369 12.5727C5.52078 11.8956 6.32461 11.3585 7.20927 10.9921C8.09394 10.6256 9.04212 10.437 9.99968 10.437C10.9572 10.437 11.9054 10.6256 12.7901 10.9921C13.6747 11.3585 14.4786 11.8956 15.1557 12.5727C15.8328 13.2498 16.3699 14.0536 16.7363 14.9383C17.1027 15.8229 17.2913 16.7711 17.2913 17.7287V18.7703" stroke="#A0A3BD" stroke-width="1.70146" stroke-linecap="round" stroke-linejoin="round"/>
<path d="M9.99967 10.4368C11.1047 10.4368 12.1646 9.99786 12.946 9.21646C13.7274 8.43506 14.1663 7.37525 14.1663 6.27018C14.1663 5.16511 13.7274 4.10531 12.946 3.3239C12.1646 2.5425 11.1047 2.10352 9.99967 2.10352C8.89461 2.10352 7.8348 2.5425 7.0534 3.3239C6.27199 4.10531 5.83301 5.16511 5.83301 6.27018C5.83301 7.37525 6.27199 8.43506 7.0534 9.21646C7.8348 9.99786 8.89461 10.4368 9.99967 10.4368V10.4368Z" stroke="#A0A3BD" stroke-width="1.70146" stroke-linecap="round" stroke-linejoin="round"/>
</svg>
