<svg width="17" height="17" viewBox="0 0 17 17" fill="none" xmlns="http://www.w3.org/2000/svg">
<path fill-rule="evenodd" clip-rule="evenodd" d="M6.41481 1.27598C6.28828 1.39048 6.15531 1.49766 6.01655 1.597C5.77679 1.75792 5.50727 1.86895 5.22406 1.92527C5.10096 1.9494 4.97223 1.95986 4.71557 1.97998C4.07112 2.03147 3.74849 2.05721 3.47976 2.15215C3.1725 2.26064 2.89342 2.43654 2.66301 2.66695C2.4326 2.89737 2.25669 3.17644 2.14821 3.48371C2.05327 3.75243 2.02752 4.07506 1.97603 4.71952C1.96726 4.8899 1.94899 5.05966 1.92132 5.228C1.865 5.51121 1.75397 5.78074 1.59306 6.0205C1.52306 6.12509 1.43939 6.22325 1.27204 6.41876C0.852861 6.91115 0.642869 7.15735 0.519771 7.41481C0.23576 8.01019 0.23576 8.70211 0.519771 9.29749C0.642869 9.55495 0.852861 9.80115 1.27204 10.2935C1.43939 10.489 1.52306 10.5872 1.59306 10.6918C1.75397 10.9316 1.865 11.2011 1.92132 11.4843C1.94546 11.6074 1.95592 11.7361 1.97603 11.9928C2.02752 12.6372 2.05327 12.9599 2.14821 13.2286C2.25669 13.5359 2.4326 13.8149 2.66301 14.0453C2.89342 14.2758 3.1725 14.4517 3.47976 14.5601C3.74849 14.6551 4.07112 14.6808 4.71557 14.7323C4.97223 14.7524 5.10096 14.7629 5.22406 14.787C5.50727 14.8434 5.77679 14.9552 6.01655 15.1153C6.12115 15.1853 6.2193 15.269 6.41481 15.4363C6.90721 15.8555 7.1534 16.0655 7.41086 16.1886C8.00624 16.4726 8.69817 16.4726 9.29354 16.1886C9.551 16.0655 9.7972 15.8555 10.2896 15.4363C10.4851 15.269 10.5833 15.1853 10.6879 15.1153C10.9276 14.9544 11.1971 14.8434 11.4803 14.787C11.6034 14.7629 11.7322 14.7524 11.9888 14.7323C12.6333 14.6808 12.9559 14.6551 13.2246 14.5601C13.5319 14.4517 13.811 14.2758 14.0414 14.0453C14.2718 13.8149 14.4477 13.5359 14.5562 13.2286C14.6511 12.9599 14.6769 12.6372 14.7284 11.9928C14.7485 11.7361 14.7589 11.6074 14.7831 11.4843C14.8394 11.2011 14.9512 10.9316 15.1113 10.6918C15.1813 10.5872 15.265 10.489 15.4324 10.2935C15.8515 9.80115 16.0615 9.55495 16.1846 9.29749C16.4686 8.70211 16.4686 8.01019 16.1846 7.41481C16.0615 7.15735 15.8515 6.91115 15.4324 6.41876C15.3179 6.29222 15.2107 6.15925 15.1113 6.0205C14.9506 5.78065 14.839 5.51128 14.7831 5.228C14.7554 5.05965 14.7372 4.8899 14.7284 4.71952C14.6769 4.07506 14.6511 3.75243 14.5562 3.48371C14.4477 3.17644 14.2718 2.89737 14.0414 2.66695C13.811 2.43654 13.5319 2.26064 13.2246 2.15215C12.9559 2.05721 12.6333 2.03147 11.9888 1.97998C11.8185 1.9712 11.6487 1.95294 11.4803 1.92527C11.1971 1.86934 10.9277 1.75776 10.6879 1.597C10.5493 1.49745 10.4163 1.39028 10.2896 1.27598C9.7972 0.856805 9.551 0.646814 9.29354 0.523715C8.99962 0.383223 8.67798 0.310303 8.3522 0.310303C8.02643 0.310303 7.70479 0.383223 7.41086 0.523715C7.1534 0.646814 6.90721 0.856805 6.41481 1.27598ZM11.4345 5.27467C11.557 5.39745 11.6258 5.56383 11.6258 5.73729C11.6258 5.91076 11.557 6.07713 11.4345 6.19992L6.19597 11.4392C6.13628 11.5046 6.06398 11.5571 5.98341 11.5937C5.90285 11.6303 5.81571 11.6502 5.72724 11.6522C5.63877 11.6542 5.55082 11.6383 5.46869 11.6053C5.38656 11.5724 5.31195 11.5232 5.24938 11.4606C5.18681 11.398 5.13757 11.3234 5.10463 11.2413C5.07169 11.1591 5.05573 11.0712 5.05773 10.9827C5.05972 10.8943 5.07962 10.8071 5.11623 10.7265C5.15284 10.646 5.20539 10.5737 5.27072 10.514L10.5084 5.27547C10.6312 5.15294 10.7976 5.08412 10.9711 5.08412C11.1445 5.08412 11.3109 5.15294 11.4337 5.27547M11.4071 10.5397C11.4071 10.7713 11.3152 10.9933 11.1515 11.157C10.9877 11.3207 10.7657 11.4127 10.5342 11.4127C10.3027 11.4127 10.0806 11.3207 9.91691 11.157C9.7532 10.9933 9.66123 10.7713 9.66123 10.5397C9.66123 10.3082 9.7532 10.0862 9.91691 9.92247C10.0806 9.75875 10.3027 9.66678 10.5342 9.66678C10.7657 9.66678 10.9877 9.75875 11.1515 9.92247C11.3152 10.0862 11.4071 10.3082 11.4071 10.5397ZM6.16942 7.04793C6.40094 7.04793 6.62298 6.95596 6.78669 6.79225C6.9504 6.62854 7.04237 6.4065 7.04237 6.17497C7.04237 5.94345 6.9504 5.72142 6.78669 5.5577C6.62298 5.39399 6.40094 5.30202 6.16942 5.30202C5.9379 5.30202 5.71586 5.39399 5.55215 5.5577C5.38844 5.72142 5.29647 5.94345 5.29647 6.17497C5.29647 6.4065 5.38844 6.62854 5.55215 6.79225C5.71586 6.95596 5.9379 7.04793 6.16942 7.04793Z" fill="white"/>
</svg>
