<svg width="41" height="41" viewBox="0 0 41 41" fill="none" xmlns="http://www.w3.org/2000/svg">
<rect x="0.5" y="0.5" width="40" height="40" rx="20" fill="#851A1D"/>
<path d="M20.5001 27.5833H16.3334C13.8334 27.5833 12.1667 26.3333 12.1667 23.4166V17.5833C12.1667 14.6666 13.8334 13.4166 16.3334 13.4166H24.6667C27.1667 13.4166 28.8334 14.6666 28.8334 17.5833V20.0833" stroke="white" stroke-width="1.5" stroke-miterlimit="10" stroke-linecap="round" stroke-linejoin="round"/>
<path d="M24.6666 18L22.0582 20.0833C21.1999 20.7667 19.7916 20.7667 18.9332 20.0833L16.3333 18" stroke="white" stroke-width="1.5" stroke-miterlimit="10" stroke-linecap="round" stroke-linejoin="round"/>
<path d="M26.5083 22.8083L23.5583 25.7583C23.4416 25.875 23.3333 26.0917 23.3083 26.25L23.1499 27.375C23.0916 27.7833 23.375 28.0667 23.7833 28.0083L24.9083 27.85C25.0666 27.825 25.2916 27.7167 25.4 27.6L28.35 24.65C28.8583 24.1417 29.1 23.55 28.35 22.8C27.6083 22.0583 27.0166 22.3 26.5083 22.8083Z" stroke="white" stroke-width="1.5" stroke-miterlimit="10" stroke-linecap="round" stroke-linejoin="round"/>
<path d="M26.0833 23.2333C26.3333 24.1333 27.0333 24.8333 27.9333 25.0833" stroke="white" stroke-width="1.5" stroke-miterlimit="10" stroke-linecap="round" stroke-linejoin="round"/>
</svg>
