<svg width="77" height="61" viewBox="0 0 77 61" fill="none" xmlns="http://www.w3.org/2000/svg">
<circle cx="29.9298" cy="29.9298" r="29.9298" transform="matrix(-1 0 0 1 60.5195 0.39679)" fill="#851A1D"/>
<circle cx="29.9298" cy="29.9298" r="29.9298" transform="matrix(-1 0 0 1 76.9355 0.39679)" fill="#FFF2F2"/>
<path d="M61.4863 29.3611C62.0195 29.3611 62.4518 29.7934 62.4518 30.3266C62.4518 30.8598 62.0195 31.2921 61.4863 31.2921L61.4863 29.3611ZM31.8393 31.0093C31.4623 30.6322 31.4623 30.0209 31.8393 29.6439L37.9836 23.4996C38.3606 23.1226 38.9719 23.1226 39.349 23.4996C39.726 23.8767 39.726 24.488 39.349 24.865L33.8874 30.3266L39.349 35.7882C39.726 36.1652 39.726 36.7765 39.349 37.1536C38.9719 37.5306 38.3606 37.5306 37.9836 37.1536L31.8393 31.0093ZM61.4863 31.2921L32.522 31.2921L32.522 29.3611L61.4863 29.3611L61.4863 31.2921Z" fill="#851A1D"/>
</svg>
