<svg width="18" height="18" viewBox="0 0 18 18" fill="none" xmlns="http://www.w3.org/2000/svg">
<path d="M8.75 6.25C8.13193 6.25 7.52775 6.06672 7.01384 5.72334C6.49994 5.37996 6.0994 4.89191 5.86288 4.32089C5.62635 3.74987 5.56447 3.12154 5.68505 2.51534C5.80562 1.90915 6.10325 1.35233 6.54029 0.915293C6.97733 0.478254 7.53415 0.180626 8.14034 0.0600474C8.74653 -0.0605314 9.37487 0.00135401 9.94589 0.237878C10.5169 0.474402 11.005 0.874941 11.3483 1.38884C11.6917 1.90275 11.875 2.50693 11.875 3.125C11.875 3.53538 11.7942 3.94174 11.6371 4.32089C11.4801 4.70003 11.2499 5.04453 10.9597 5.33471C10.6695 5.62489 10.325 5.85508 9.94589 6.01213C9.56674 6.16917 9.16038 6.25 8.75 6.25ZM8.75 12.925C9.15467 12.0841 9.74252 11.3445 10.4704 10.7605C11.1982 10.1765 12.0476 9.76285 12.9562 9.55H12.9875C12.746 8.60962 12.1986 7.77628 11.4314 7.18123C10.6642 6.58618 9.7209 6.26322 8.75 6.26322C7.7791 6.26322 6.83579 6.58618 6.06861 7.18123C5.30144 7.77628 4.754 8.60962 4.5125 9.55C5.42677 9.75862 6.28238 10.1703 7.01592 10.7545C7.74946 11.3388 8.34212 12.0806 8.75 12.925ZM15.3562 12.5C14.844 12.4999 14.3323 12.5354 13.825 12.6063C11.1563 12.9688 9.1125 14.25 8.825 15.8313C8.78614 15.968 8.76101 16.1083 8.75 16.25C8.75093 16.101 8.73626 15.9522 8.70625 15.8063C8.3875 14.225 6.34375 12.9438 3.70625 12.5813C3.18799 12.5173 2.66585 12.4901 2.14375 12.5H0V17.5H17.5V12.5H15.3562ZM9.425 12.9813C9.21321 13.377 9.04955 13.7966 8.9375 14.2313C9.88125 13.1188 11.6 12.2938 13.7375 12.0063C14.2734 11.9252 14.8143 11.8813 15.3562 11.875H16.25V10H14.4125C13.9704 10.0008 13.5299 10.0532 13.1 10.1563C12.3248 10.346 11.5976 10.6952 10.9649 11.1816C10.3321 11.668 9.80768 12.2809 9.425 12.9813ZM3.75 11.9875C5.8875 12.275 7.60625 13.1 8.55625 14.2125C8.3383 13.4122 7.94941 12.6687 7.41639 12.0331C6.88337 11.3976 6.21889 10.8852 5.46875 10.5313C5.11841 10.368 4.75178 10.2423 4.375 10.1563C3.95321 10.0551 3.52123 10.0027 3.0875 10H1.25V11.875H2.14375C2.68113 11.8752 3.21784 11.9128 3.75 11.9875Z" fill="#851A1D"/>
</svg>
