<svg width="20" height="20" viewBox="0 0 20 20" fill="none" xmlns="http://www.w3.org/2000/svg">
<path d="M8.75 17.5H7.5V18.125H8.75V17.5Z" fill="#851A1D"/>
<path d="M18.4375 5.9375H14.0625V5.26875C14.3301 5.19965 14.5673 5.04377 14.737 4.82551C14.9066 4.60725 14.9991 4.33892 15 4.0625C14.9997 4.01358 14.9879 3.96541 14.9656 3.92188L14.0625 2.1125V1.5625C14.0618 1.31409 13.9627 1.07606 13.7871 0.900407C13.6114 0.724752 13.3734 0.625742 13.125 0.625H3.125C2.87659 0.625742 2.63856 0.724752 2.46291 0.900407C2.28725 1.07606 2.18824 1.31409 2.1875 1.5625V2.1125L1.28438 3.92188C1.26207 3.96541 1.25029 4.01358 1.25 4.0625C1.2509 4.33892 1.3434 4.60725 1.51303 4.82551C1.68266 5.04377 1.91985 5.19965 2.1875 5.26875V18.4375C2.18824 18.6859 2.28725 18.9239 2.46291 19.0996C2.63856 19.2752 2.87659 19.3743 3.125 19.375H13.125C13.3734 19.3743 13.6114 19.2752 13.7871 19.0996C13.9627 18.9239 14.0618 18.6859 14.0625 18.4375V15.625H18.4375C18.5204 15.625 18.5999 15.5921 18.6585 15.5335C18.7171 15.4749 18.75 15.3954 18.75 15.3125V6.25C18.75 6.16712 18.7171 6.08763 18.6585 6.02903C18.5999 5.97042 18.5204 5.9375 18.4375 5.9375ZM14.3719 4.12812C14.3559 4.28797 14.2789 4.4355 14.157 4.54011C14.0351 4.64472 13.8776 4.69837 13.7171 4.68993C13.5567 4.68148 13.4057 4.61159 13.2955 4.49477C13.1852 4.37794 13.1242 4.22314 13.125 4.0625V2.5H13.5563L14.3719 4.12812ZM2.8125 1.5625C2.8125 1.47962 2.84542 1.40013 2.90403 1.34153C2.96263 1.28292 3.04212 1.25 3.125 1.25H13.125C13.2079 1.25 13.2874 1.28292 13.346 1.34153C13.4046 1.40013 13.4375 1.47962 13.4375 1.5625V1.875H2.8125V1.5625ZM12.5 2.5V4.0625C12.5 4.22826 12.4342 4.38723 12.3169 4.50444C12.1997 4.62165 12.0408 4.6875 11.875 4.6875C11.7092 4.6875 11.5503 4.62165 11.4331 4.50444C11.3158 4.38723 11.25 4.22826 11.25 4.0625V2.5H12.5ZM10.625 2.5V4.0625C10.625 4.22826 10.5592 4.38723 10.4419 4.50444C10.3247 4.62165 10.1658 4.6875 10 4.6875C9.83424 4.6875 9.67527 4.62165 9.55806 4.50444C9.44085 4.38723 9.375 4.22826 9.375 4.0625V2.5H10.625ZM8.75 2.5V4.0625C8.75 4.22826 8.68415 4.38723 8.56694 4.50444C8.44973 4.62165 8.29076 4.6875 8.125 4.6875C7.95924 4.6875 7.80027 4.62165 7.68306 4.50444C7.56585 4.38723 7.5 4.22826 7.5 4.0625V2.5H8.75ZM6.875 2.5V4.0625C6.875 4.22826 6.80915 4.38723 6.69194 4.50444C6.57473 4.62165 6.41576 4.6875 6.25 4.6875C6.08424 4.6875 5.92527 4.62165 5.80806 4.50444C5.69085 4.38723 5.625 4.22826 5.625 4.0625V2.5H6.875ZM5 2.5V4.0625C5 4.22826 4.93415 4.38723 4.81694 4.50444C4.69973 4.62165 4.54076 4.6875 4.375 4.6875C4.20924 4.6875 4.05027 4.62165 3.93306 4.50444C3.81585 4.38723 3.75 4.22826 3.75 4.0625V2.5H5ZM1.87813 4.12812L2.69375 2.5H3.125V4.0625C3.12585 4.22314 3.0648 4.37794 2.95455 4.49477C2.84429 4.61159 2.69328 4.68148 2.53286 4.68993C2.37244 4.69837 2.21493 4.64472 2.09301 4.54011C1.9711 4.4355 1.89415 4.28797 1.87813 4.12812ZM13.4375 18.4375C13.4375 18.5204 13.4046 18.5999 13.346 18.6585C13.2874 18.7171 13.2079 18.75 13.125 18.75H3.125C3.04212 18.75 2.96263 18.7171 2.90403 18.6585C2.84542 18.5999 2.8125 18.5204 2.8125 18.4375V16.875H13.4375V18.4375ZM13.4375 16.25H2.8125V5.26875C3.05456 5.20422 3.27206 5.06937 3.4375 4.88125C3.55341 5.0165 3.69721 5.12507 3.85904 5.1995C4.02086 5.27394 4.19688 5.31248 4.375 5.31248C4.55312 5.31248 4.72914 5.27394 4.89096 5.1995C5.05279 5.12507 5.19659 5.0165 5.3125 4.88125C5.42841 5.0165 5.57221 5.12507 5.73404 5.1995C5.89586 5.27394 6.07188 5.31248 6.25 5.31248C6.42812 5.31248 6.60414 5.27394 6.76596 5.1995C6.92779 5.12507 7.07159 5.0165 7.1875 4.88125C7.30341 5.0165 7.44721 5.12507 7.60904 5.1995C7.77086 5.27394 7.94688 5.31248 8.125 5.31248C8.30312 5.31248 8.47914 5.27394 8.64096 5.1995C8.80279 5.12507 8.94659 5.0165 9.0625 4.88125C9.17841 5.0165 9.32221 5.12507 9.48404 5.1995C9.64586 5.27394 9.82188 5.31248 10 5.31248C10.1781 5.31248 10.3541 5.27394 10.516 5.1995C10.6778 5.12507 10.8216 5.0165 10.9375 4.88125C11.0534 5.0165 11.1972 5.12507 11.359 5.1995C11.5209 5.27394 11.6969 5.31248 11.875 5.31248C12.0531 5.31248 12.2291 5.27394 12.391 5.1995C12.5528 5.12507 12.6966 5.0165 12.8125 4.88125C12.9779 5.06937 13.1954 5.20422 13.4375 5.26875V5.9375H6.25C6.16712 5.9375 6.08763 5.97042 6.02903 6.02903C5.97042 6.08763 5.9375 6.16712 5.9375 6.25V13.3438L4.74062 15.1406C4.7084 15.1869 4.68984 15.2414 4.68708 15.2978C4.68432 15.3541 4.69746 15.4101 4.725 15.4594C4.75113 15.5096 4.79064 15.5517 4.83917 15.5809C4.8877 15.6101 4.94335 15.6254 5 15.625H13.4375V16.25ZM18.125 15H5.58438L6.50938 13.6094C6.54412 13.5588 6.56265 13.4989 6.5625 13.4375V6.5625H18.125V15Z" fill="#851A1D"/>
<path d="M12.8064 11.8125L12.4939 10.25C12.4795 10.1794 12.4411 10.116 12.3853 10.0704C12.3295 10.0249 12.2597 9.99999 12.1876 10H7.81263C7.74059 9.99999 7.67075 10.0249 7.61495 10.0704C7.55914 10.116 7.52078 10.1794 7.50638 10.25L7.19388 11.8125C7.1866 11.8496 7.18554 11.8876 7.19075 11.925L7.50325 13.8C7.51515 13.8734 7.55284 13.9402 7.60955 13.9883C7.66625 14.0364 7.73826 14.0627 7.81263 14.0625H12.1876C12.262 14.0627 12.334 14.0364 12.3907 13.9883C12.4474 13.9402 12.4851 13.8734 12.497 13.8L12.8095 11.925C12.8147 11.8876 12.8137 11.8496 12.8064 11.8125ZM8.06888 10.625H11.9314L12.1189 11.5625H7.88138L8.06888 10.625ZM10.3126 12.1875V12.5H9.68763V12.1875H10.3126ZM11.922 13.4375H8.07825L7.86888 12.1875H9.06263V12.8125C9.06263 12.8954 9.09555 12.9749 9.15416 13.0335C9.21276 13.0921 9.29225 13.125 9.37513 13.125H10.6251C10.708 13.125 10.7875 13.0921 10.8461 13.0335C10.9047 12.9749 10.9376 12.8954 10.9376 12.8125V12.1875H12.1314L11.922 13.4375Z" fill="#851A1D"/>
<path d="M13.4375 8.75023C13.3546 8.75023 13.2751 8.78316 13.2165 8.84176C13.1579 8.90037 13.125 8.97985 13.125 9.06273V10.0002C13.125 10.0831 13.1579 10.1626 13.2165 10.2212C13.2751 10.2798 13.3546 10.3127 13.4375 10.3127H13.4625L13.75 13.7762C13.7565 13.8545 13.7923 13.9275 13.8502 13.9806C13.9081 14.0337 13.9839 14.063 14.0625 14.0627H16.5625C16.6411 14.063 16.7169 14.0337 16.7748 13.9806C16.8327 13.9275 16.8685 13.8545 16.875 13.7762L17.1625 10.3127H17.1875C17.2704 10.3127 17.3499 10.2798 17.4085 10.2212C17.4671 10.1626 17.5 10.0831 17.5 10.0002V9.06273C17.5 8.97985 17.4671 8.90037 17.4085 8.84176C17.3499 8.78316 17.2704 8.75023 17.1875 8.75023H16.25V7.94211L16.7834 7.40867L16.3416 6.9668L15.7166 7.5918C15.658 7.65039 15.625 7.72986 15.625 7.81273V8.75023H13.4375ZM16.275 13.4377H14.35L14.0897 10.3127H16.5353L16.275 13.4377ZM16.875 9.68773H13.75V9.37523H16.875V9.68773Z" fill="#851A1D"/>
</svg>
