<svg width="20" height="20" viewBox="0 0 20 20" fill="none" xmlns="http://www.w3.org/2000/svg">
<g clip-path="url(#clip0_2449_2945)">
<path d="M3.90625 4.21875C2.78594 4.21875 1.875 3.30781 1.875 2.1875C1.875 1.06719 2.78594 0.15625 3.90625 0.15625C5.02656 0.15625 5.9375 1.06719 5.9375 2.1875C5.9375 3.30781 5.02656 4.21875 3.90625 4.21875ZM3.90625 1.09375C3.30313 1.09375 2.8125 1.58438 2.8125 2.1875C2.8125 2.79063 3.30313 3.28125 3.90625 3.28125C4.50938 3.28125 5 2.79063 5 2.1875C5 1.58438 4.50938 1.09375 3.90625 1.09375ZM16.5625 12.0312C15.7016 12.0312 15 11.3297 15 10.4688C15 9.60781 15.7016 8.90625 16.5625 8.90625C17.4234 8.90625 18.125 9.60781 18.125 10.4688C18.125 11.3297 17.4234 12.0312 16.5625 12.0312ZM16.5625 9.84375C16.2172 9.84375 15.9375 10.1234 15.9375 10.4688C15.9375 10.8141 16.2172 11.0938 16.5625 11.0938C16.9078 11.0938 17.1875 10.8141 17.1875 10.4688C17.1875 10.1234 16.9078 9.84375 16.5625 9.84375ZM10 4.21875C8.87969 4.21875 7.96875 3.30781 7.96875 2.1875C7.96875 1.06719 8.87969 0.15625 10 0.15625C11.1203 0.15625 12.0312 1.06719 12.0312 2.1875C12.0312 3.30781 11.1203 4.21875 10 4.21875ZM10 1.09375C9.39687 1.09375 8.90625 1.58438 8.90625 2.1875C8.90625 2.79063 9.39687 3.28125 10 3.28125C10.6031 3.28125 11.0938 2.79063 11.0938 2.1875C11.0938 1.58438 10.6031 1.09375 10 1.09375Z" fill="#851A1D"/>
<path d="M19.6798 16.7906L19.4048 15.2797C19.158 13.925 18.0736 12.9016 16.7064 12.7359C15.033 12.5328 13.7423 11.2203 13.5689 9.54376L13.3986 7.91407C13.3122 7.07062 12.9155 6.28936 12.2855 5.72198C11.6555 5.1546 10.8371 4.8416 9.9892 4.84376C9.26108 4.84376 8.56576 5.06876 7.97826 5.49532C7.87769 5.56835 7.81018 5.67829 7.79056 5.80102C7.77093 5.92376 7.80079 6.04926 7.87358 6.15001C7.9466 6.25059 8.05654 6.31809 8.17928 6.33772C8.30201 6.35734 8.42751 6.32749 8.52826 6.2547C8.95262 5.94578 9.46431 5.77996 9.9892 5.78126C11.2689 5.78126 12.333 6.74064 12.4658 8.01251L12.6361 9.6422C12.7767 10.9891 13.4892 12.1469 14.5314 12.8781V15.3125C14.5314 15.8797 14.7658 16.3922 15.1423 16.7609L15.3142 19.4031C15.3298 19.6516 15.5361 19.8422 15.7814 19.8422C15.7908 19.8422 15.8017 19.8422 15.8111 19.8406C16.0689 19.825 16.2658 19.6016 16.2501 19.3438L16.122 17.2922C16.2642 17.3234 16.4126 17.3422 16.5642 17.3422H17.0033L16.8783 19.3438C16.8745 19.4052 16.8828 19.4668 16.9028 19.5251C16.9228 19.5833 16.9541 19.637 16.9949 19.6832C17.0356 19.7293 17.0851 19.767 17.1404 19.794C17.1958 19.821 17.2559 19.8369 17.3173 19.8406C17.3267 19.8406 17.3376 19.8422 17.347 19.8422C17.5923 19.8422 17.7986 19.6516 17.8142 19.4031L17.9705 16.9031C17.9783 16.7734 17.933 16.6469 17.8439 16.5531C17.7548 16.4594 17.6298 16.4063 17.5001 16.4063H16.5626C15.9595 16.4063 15.4689 15.9156 15.4689 15.3125V13.3844C15.8236 13.5234 16.2001 13.6203 16.5939 13.6672C17.5517 13.7828 18.3111 14.4984 18.483 15.4469L18.758 16.9578C18.769 17.0184 18.7919 17.0762 18.8253 17.1279C18.8586 17.1796 18.9019 17.2242 18.9525 17.2591C19.0032 17.2941 19.0602 17.3188 19.1204 17.3317C19.1806 17.3446 19.2427 17.3455 19.3033 17.3344C19.558 17.2906 19.7267 17.0453 19.6798 16.7906Z" fill="#851A1D"/>
<path d="M12.0312 11.7188C11.7719 11.7188 11.5625 11.9281 11.5625 12.1875V14.8438H8.4375C8.4375 14.5844 8.22813 14.375 7.96875 14.375C7.70937 14.375 7.5 14.5844 7.5 14.8438C7.5 15.3609 7.92031 15.7813 8.4375 15.7813H8.47188L8.75156 19.4109C8.76058 19.5287 8.81371 19.6387 8.90033 19.7189C8.98695 19.7992 9.10067 19.8438 9.21875 19.8438C9.23125 19.8438 9.24219 19.8438 9.25469 19.8422C9.37857 19.8326 9.49359 19.7742 9.57446 19.6799C9.65532 19.5856 9.69542 19.463 9.68594 19.3391L9.4125 15.7813H10.5875L10.3141 19.3391C10.3046 19.463 10.3447 19.5856 10.4255 19.6799C10.5064 19.7742 10.6214 19.8326 10.7453 19.8422C10.7578 19.8438 10.7703 19.8438 10.7812 19.8438C11.0234 19.8438 11.2297 19.6563 11.2484 19.4109L11.5281 15.7813H11.5625C12.0797 15.7813 12.5 15.3609 12.5 14.8438V12.1875C12.5 11.9281 12.2906 11.7188 12.0312 11.7188ZM7.46094 7.91564C7.37493 7.07192 6.97837 6.29029 6.3483 5.7226C5.71824 5.1549 4.89965 4.84167 4.05156 4.84376C2.1625 4.84376 0.625 6.38126 0.625 8.27189V12.8125C0.625 13.4234 1.01719 13.9453 1.5625 14.1391V18.4375C1.5625 19.2125 2.19375 19.8438 2.96875 19.8438C3.32969 19.8438 3.65781 19.7063 3.90625 19.4828C4.16321 19.7152 4.49731 19.8438 4.84375 19.8438C5.61875 19.8438 6.25 19.2125 6.25 18.4375V14.375C6.25 14.1156 6.04063 13.9063 5.78125 13.9063C5.52187 13.9063 5.3125 14.1156 5.3125 14.375V18.4375C5.3125 18.6953 5.10156 18.9063 4.84375 18.9063C4.58594 18.9063 4.375 18.6953 4.375 18.4375V12.8125C4.375 12.5531 4.16563 12.3438 3.90625 12.3438C3.64687 12.3438 3.4375 12.5531 3.4375 12.8125V18.4375C3.4375 18.6953 3.22656 18.9063 2.96875 18.9063C2.71094 18.9063 2.5 18.6953 2.5 18.4375V13.75C2.5 13.4906 2.29062 13.2813 2.03125 13.2813C1.77344 13.2813 1.5625 13.0703 1.5625 12.8125V8.27189C1.5625 6.89845 2.67969 5.78126 4.05156 5.78126C5.32344 5.78126 6.38281 6.7297 6.525 7.99064V12.8125C6.525 13.0719 6.73437 13.2813 6.99375 13.2813C7.25312 13.2813 7.4625 13.0719 7.4625 12.8125V7.96407C7.46406 7.94845 7.4625 7.93282 7.46094 7.91564Z" fill="#851A1D"/>
</g>
<defs>
<clipPath id="clip0_2449_2945">
<rect width="20" height="20" fill="white"/>
</clipPath>
</defs>
</svg>
