<svg width="20" height="20" viewBox="0 0 20 20" fill="none" xmlns="http://www.w3.org/2000/svg">
<path d="M10.0002 1.11133C8.24217 1.11133 6.52359 1.63265 5.06182 2.60938C3.60005 3.5861 2.46074 4.97435 1.78796 6.59859C1.11518 8.22282 0.93915 10.0101 1.28213 11.7344C1.62511 13.4586 2.47169 15.0425 3.71483 16.2856C4.95796 17.5287 6.54181 18.3753 8.26609 18.7183C9.99036 19.0613 11.7776 18.8853 13.4019 18.2125C15.0261 17.5397 16.4143 16.4004 17.3911 14.9386C18.3678 13.4768 18.8891 11.7583 18.8891 10.0002C18.8891 7.64274 17.9526 5.38181 16.2856 3.71482C14.6186 2.04783 12.3577 1.11133 10.0002 1.11133ZM10.0002 17.778C8.46192 17.778 6.95817 17.3218 5.67912 16.4672C4.40007 15.6126 3.40317 14.3978 2.81449 12.9766C2.22581 11.5554 2.07178 9.99159 2.37189 8.48285C2.672 6.97411 3.41276 5.58824 4.5005 4.5005C5.58824 3.41276 6.97411 2.67199 8.48285 2.37189C9.99159 2.07178 11.5554 2.22581 12.9766 2.81449C14.3979 3.40317 15.6126 4.40007 16.4672 5.67912C17.3218 6.95816 17.778 8.46192 17.778 10.0002C17.778 12.063 16.9586 14.0413 15.4999 15.4999C14.0413 16.9586 12.063 17.778 10.0002 17.778Z" fill="#851A1D"/>
<path d="M7.45519 6.24452C7.45519 6.09718 7.39666 5.95587 7.29247 5.85168C7.18828 5.7475 7.04697 5.68896 6.89963 5.68896C6.75229 5.68896 6.61098 5.7475 6.50679 5.85168C6.40261 5.95587 6.34408 6.09718 6.34408 6.24452V10.689C6.34408 10.9837 6.22701 11.2663 6.01864 11.4746C5.81026 11.683 5.52765 11.8001 5.23296 11.8001C4.93828 11.8001 4.65566 11.683 4.44729 11.4746C4.23892 11.2663 4.12185 10.9837 4.12185 10.689C4.12185 10.5416 4.06332 10.4003 3.95913 10.2961C3.85495 10.1919 3.71364 10.1334 3.5663 10.1334C3.41896 10.1334 3.27765 10.1919 3.17346 10.2961C3.06927 10.4003 3.01074 10.5416 3.01074 10.689C3.01074 11.2783 3.24487 11.8436 3.66162 12.2603C4.07836 12.6771 4.64359 12.9112 5.23296 12.9112C5.82233 12.9112 6.38757 12.6771 6.80431 12.2603C7.22106 11.8436 7.45519 11.2783 7.45519 10.689V6.24452Z" fill="#851A1D"/>
<path d="M16.9107 12.1779L14.5718 8.84452C14.523 8.7742 14.4587 8.7161 14.3837 8.67475C14.3088 8.63341 14.2253 8.60994 14.1398 8.60618C14.0543 8.60241 13.9691 8.61845 13.8908 8.65305C13.8125 8.68765 13.7433 8.73987 13.6885 8.80563L12.7774 9.86119C12.6853 9.97685 12.6429 10.1244 12.6596 10.2713C12.6763 10.4182 12.7506 10.5524 12.8663 10.6445C12.9819 10.7366 13.1294 10.779 13.2764 10.7623C13.4233 10.7456 13.5575 10.6713 13.6496 10.5556L14.0718 10.0556L15.3885 11.9445H13.4941C13.3045 11.943 13.1167 11.9092 12.9385 11.8445C12.4926 11.6184 12.1273 11.2601 11.8926 10.8186C11.658 10.3772 11.5653 9.87397 11.6274 9.37785V6.24452C11.6274 6.09718 11.5689 5.95587 11.4647 5.85168C11.3605 5.7475 11.2192 5.68896 11.0718 5.68896C10.9245 5.68896 10.7832 5.7475 10.679 5.85168C10.5748 5.95587 10.5163 6.09718 10.5163 6.24452V8.80008L9.2385 7.52785C9.13441 7.42438 8.9936 7.3663 8.84683 7.3663C8.70006 7.3663 8.55926 7.42438 8.45517 7.52785C8.35169 7.63194 8.29361 7.77275 8.29361 7.91952C8.29361 8.06629 8.35169 8.2071 8.45517 8.31119L10.4274 10.2834C10.3639 10.6226 10.2197 10.9415 10.007 11.2133C9.79423 11.485 9.51922 11.7015 9.20517 11.8445C8.78612 11.991 8.32977 11.991 7.91072 11.8445C7.84141 11.8215 7.76826 11.8124 7.69543 11.8177C7.6226 11.823 7.55153 11.8426 7.48627 11.8754C7.42101 11.9081 7.36284 11.9534 7.31509 12.0086C7.26733 12.0639 7.23093 12.128 7.20794 12.1973C7.18496 12.2666 7.17586 12.3398 7.18115 12.4126C7.18644 12.4854 7.20602 12.5565 7.23878 12.6218C7.27154 12.687 7.31683 12.7452 7.37207 12.7929C7.42731 12.8407 7.49141 12.8771 7.56072 12.9001C7.89545 13.0132 8.24629 13.0714 8.59961 13.0723C8.94111 13.0759 9.28028 13.0156 9.59961 12.8945C10.2172 12.6472 10.7351 12.2016 11.0718 11.6279C11.4114 12.1992 11.9284 12.644 12.5441 12.8945C12.843 13.005 13.1587 13.0633 13.4774 13.0667H16.4607C16.5618 13.0659 16.6607 13.0376 16.7469 12.9847C16.833 12.9319 16.9031 12.8565 16.9496 12.7667C16.9991 12.6748 17.0217 12.5709 17.0148 12.4667C17.008 12.3626 16.9719 12.2624 16.9107 12.1779Z" fill="#851A1D"/>
</svg>
