<svg width="16" height="17" viewBox="0 0 16 17" fill="none" xmlns="http://www.w3.org/2000/svg">
<path d="M4.61355 4.30922L4.69272 4.37839L11.7644 11.4492C11.8571 11.5418 11.9266 11.655 11.9674 11.7795C12.0082 11.904 12.019 12.0363 11.999 12.1658C11.9791 12.2953 11.9288 12.4182 11.8525 12.5247C11.7761 12.6311 11.6757 12.718 11.5594 12.7784L11.4627 12.8201L2.80855 16.0092C1.18188 16.6092 -0.402283 15.0801 0.0918837 13.4559L0.13355 13.3342L3.32188 4.68006C3.36404 4.56542 3.43087 4.46145 3.51766 4.3755C3.60445 4.28956 3.70907 4.22374 3.82412 4.18272C3.93917 4.14169 4.06182 4.12646 4.18341 4.1381C4.305 4.14973 4.42254 4.18795 4.52772 4.25006L4.61355 4.30922ZM12.1394 7.92922C12.8986 7.96922 13.9394 8.12922 14.8444 8.67256C15.0279 8.78133 15.1626 8.9563 15.221 9.16146C15.2793 9.36661 15.2568 9.58632 15.158 9.77535C15.0592 9.96438 14.8917 10.1083 14.6899 10.1776C14.4882 10.2468 14.2676 10.2361 14.0736 10.1476L13.9869 10.1017C13.4186 9.76006 12.6919 9.62672 12.0519 9.59339C11.7882 9.57882 11.5238 9.57993 11.2602 9.59672L10.9969 9.62255C10.7795 9.65061 10.5598 9.59188 10.3854 9.4591C10.211 9.32633 10.096 9.13018 10.0652 8.91317C10.0344 8.69615 10.0903 8.47574 10.2209 8.29968C10.3514 8.12362 10.5461 8.00609 10.7627 7.97256C11.2191 7.91367 11.6801 7.89888 12.1394 7.92839M13.8269 5.60672C14.0392 5.60717 14.2434 5.68865 14.3977 5.83452C14.5519 5.98039 14.6447 6.17966 14.6571 6.39163C14.6694 6.6036 14.6004 6.81229 14.464 6.97508C14.3277 7.13787 14.1344 7.24248 13.9236 7.26756L13.8269 7.27339H13.2369C13.0246 7.27294 12.8204 7.19147 12.6661 7.04559C12.5118 6.89972 12.419 6.70045 12.4067 6.48848C12.3944 6.27651 12.4634 6.06782 12.5997 5.90503C12.7361 5.74224 12.9294 5.63763 13.1402 5.61256L13.2369 5.60672H13.8269ZM11.1752 4.96756C11.3187 5.11105 11.4049 5.30197 11.4176 5.50449C11.4304 5.70701 11.3688 5.90722 11.2444 6.06756L11.1752 6.14589L10.2911 7.03006C10.1411 7.17951 9.93986 7.26628 9.72823 7.27275C9.51661 7.27921 9.31046 7.20488 9.15165 7.06485C8.99285 6.92482 8.8933 6.7296 8.87322 6.51883C8.85314 6.30806 8.91404 6.09755 9.04355 5.93006L9.11272 5.85172L9.99605 4.96839C10.0734 4.89091 10.1654 4.82944 10.2665 4.78751C10.3677 4.74557 10.4761 4.72398 10.5856 4.72398C10.6951 4.72398 10.8036 4.74557 10.9048 4.78751C11.0059 4.82944 11.0978 4.89008 11.1752 4.96756ZM9.01938 0.580055C9.39272 1.70172 9.19272 2.93006 8.95938 3.78839C8.81973 4.32369 8.62711 4.84376 8.38438 5.34089C8.2857 5.5387 8.11248 5.6892 7.90283 5.75929C7.69318 5.82938 7.46427 5.81332 7.26647 5.71464C7.06866 5.61596 6.91816 5.44274 6.84806 5.23309C6.77797 5.02344 6.79403 4.79453 6.89272 4.59672C7.08661 4.19746 7.24015 3.77983 7.35105 3.35006C7.54022 2.65672 7.63522 1.90422 7.48938 1.28756L7.43855 1.10756C7.40223 1.00334 7.38698 0.892945 7.39367 0.782784C7.40037 0.672624 7.42888 0.56489 7.47755 0.465837C7.52622 0.366785 7.59408 0.278386 7.67719 0.205773C7.7603 0.133161 7.85701 0.0777806 7.9617 0.0428474C8.06639 0.00791411 8.17697 -0.00587609 8.28704 0.00227725C8.3971 0.0104306 8.50445 0.040365 8.60285 0.0903429C8.70124 0.140321 8.78874 0.209347 8.86024 0.293413C8.93175 0.37748 8.98584 0.474913 9.01938 0.580055ZM13.5319 2.61172C13.6881 2.768 13.7759 2.97992 13.7759 3.20089C13.7759 3.42186 13.6881 3.63378 13.5319 3.79006L12.9427 4.37922C12.8658 4.45881 12.7739 4.5223 12.6722 4.56597C12.5706 4.60965 12.4612 4.63264 12.3506 4.6336C12.2399 4.63456 12.1302 4.61347 12.0278 4.57157C11.9253 4.52967 11.8323 4.4678 11.7541 4.38955C11.6758 4.31131 11.6139 4.21826 11.572 4.11585C11.5301 4.01344 11.509 3.9037 11.51 3.79305C11.511 3.68241 11.534 3.57306 11.5776 3.47139C11.6213 3.36972 11.6848 3.27776 11.7644 3.20089L12.3536 2.61172C12.5098 2.4555 12.7217 2.36773 12.9427 2.36773C13.1637 2.36773 13.3756 2.4555 13.5319 2.61172Z" fill="#851A1D"/>
</svg>
