<svg width="20" height="20" viewBox="0 0 20 20" fill="none" xmlns="http://www.w3.org/2000/svg">
<g clip-path="url(#clip0_2526_5859)">
<path d="M10.3125 8.44594V7.1875H9.6875V8.44594C4.65812 8.625 0.3125 13.0691 0.3125 18.125C0.3125 18.2079 0.345424 18.2874 0.404029 18.346C0.462634 18.4046 0.54212 18.4375 0.625 18.4375H19.375C19.4579 18.4375 19.5374 18.4046 19.596 18.346C19.6546 18.2874 19.6875 18.2079 19.6875 18.125C19.6875 13.0691 15.3419 8.625 10.3125 8.44594ZM0.943438 17.8125C1.12125 13.1163 5.27688 9.0625 10 9.0625C14.7231 9.0625 18.8787 13.1163 19.0566 17.8125H0.943438Z" fill="#851A1D"/>
<path d="M15.5225 12.7188C15.7116 12.9113 15.8919 13.1144 16.0591 13.3212L16.5453 12.9288C16.3659 12.7063 16.1703 12.4884 15.9691 12.2812L15.5225 12.7188ZM10 10.3125C11.7815 10.3334 13.5007 10.9708 14.8653 12.1162L15.2625 11.6338C13.786 10.3963 11.9264 9.70851 10 9.6875V10.3125Z" fill="#851A1D"/>
<path d="M19.375 19.0625H0.625V19.6875H19.375V19.0625Z" fill="#851A1D"/>
<path d="M9.80281 3.52375C9.95232 3.64665 10.0746 3.79929 10.162 3.97198C10.2494 4.14466 10.3 4.33362 10.3105 4.52688C10.3209 4.72013 10.2912 4.91346 10.223 5.09459C10.1548 5.27572 10.0497 5.4407 9.91438 5.57906L9.77719 5.71844L10.2228 6.15594L10.3597 6.01656C10.5561 5.81619 10.7086 5.57711 10.8076 5.31456C10.9066 5.052 10.9498 4.77172 10.9345 4.49155C10.9192 4.21138 10.8458 3.93746 10.7188 3.68723C10.5919 3.437 10.4142 3.21594 10.1972 3.03813C10.0477 2.91522 9.92535 2.76258 9.83797 2.5899C9.75058 2.41721 9.70003 2.22825 9.68954 2.035C9.67905 1.84174 9.70884 1.64842 9.77703 1.46729C9.84521 1.28616 9.9503 1.12118 10.0856 0.982813L10.2228 0.843437L9.77719 0.40625L9.64031 0.545625C9.4439 0.746 9.29136 0.985075 9.19239 1.24763C9.09343 1.51018 9.05022 1.79047 9.0655 2.07064C9.08079 2.35081 9.15424 2.62473 9.28118 2.87496C9.40812 3.12519 9.58577 3.34625 9.80281 3.52406V3.52375ZM13.2403 3.52375C13.3898 3.64665 13.5121 3.79929 13.5995 3.97198C13.6869 4.14466 13.7375 4.33362 13.748 4.52688C13.7584 4.72013 13.7287 4.91346 13.6605 5.09459C13.5923 5.27572 13.4872 5.4407 13.3519 5.57906L13.2147 5.71844L13.6603 6.15594L13.7972 6.01656C13.9936 5.81619 14.1461 5.57711 14.2451 5.31456C14.3441 5.052 14.3873 4.77172 14.372 4.49155C14.3567 4.21138 14.2833 3.93746 14.1563 3.68723C14.0294 3.437 13.8517 3.21594 13.6347 3.03813C13.4852 2.91522 13.3629 2.76258 13.2755 2.5899C13.1881 2.41721 13.1375 2.22825 13.127 2.035C13.1166 1.84174 13.1463 1.64842 13.2145 1.46729C13.2827 1.28616 13.3878 1.12118 13.5231 0.982813L13.6603 0.843437L13.2147 0.40625L13.0778 0.545625C12.8814 0.746 12.7289 0.985075 12.6299 1.24763C12.5309 1.51018 12.4877 1.79047 12.503 2.07064C12.5183 2.35081 12.5917 2.62473 12.7187 2.87496C12.8456 3.12519 13.0233 3.34625 13.2403 3.52406V3.52375ZM6.36531 3.52375C6.51482 3.64665 6.63715 3.79929 6.72454 3.97198C6.81193 4.14466 6.86247 4.33362 6.87296 4.52688C6.88345 4.72013 6.85366 4.91346 6.78547 5.09459C6.71729 5.27572 6.6122 5.4407 6.47688 5.57906L6.33969 5.71844L6.78531 6.15594L6.92219 6.01656C7.1186 5.81619 7.27115 5.57711 7.37011 5.31456C7.46907 5.052 7.51229 4.77172 7.497 4.49155C7.48171 4.21138 7.40826 3.93746 7.28132 3.68723C7.15438 3.437 6.97674 3.21594 6.75969 3.03813C6.61018 2.91522 6.48785 2.76258 6.40046 2.5899C6.31308 2.41721 6.26253 2.22825 6.25204 2.035C6.24155 1.84174 6.27134 1.64842 6.33953 1.46729C6.40771 1.28616 6.5128 1.12118 6.64813 0.982813L6.78531 0.843437L6.33969 0.40625L6.20281 0.545625C6.0064 0.746 5.85386 0.985075 5.75489 1.24763C5.65593 1.51018 5.61272 1.79047 5.628 2.07064C5.64329 2.35081 5.71674 2.62473 5.84368 2.87496C5.97062 3.12519 6.14827 3.34625 6.36531 3.52406V3.52375Z" fill="#851A1D"/>
</g>
<defs>
<clipPath id="clip0_2526_5859">
<rect width="20" height="20" fill="white"/>
</clipPath>
</defs>
</svg>
