<svg width="60" height="60" viewBox="0 0 60 60" fill="none" xmlns="http://www.w3.org/2000/svg">
<path d="M24.1457 48.5348C25.5079 48.5348 26.6106 47.424 26.6106 46.0699C26.6106 44.7159 25.4998 43.6051 24.1457 43.6051C22.7836 43.6051 21.6809 44.7159 21.6809 46.0699C21.6809 47.424 22.7836 48.5348 24.1457 48.5348ZM24.1457 44.4159C25.062 44.4159 25.7998 45.1618 25.7998 46.0699C25.7998 46.9861 25.0538 47.724 24.1457 47.724C23.2295 47.724 22.4917 46.978 22.4917 46.0699C22.4906 45.8524 22.5327 45.6368 22.6154 45.4357C22.6981 45.2345 22.8199 45.0517 22.9737 44.8979C23.1276 44.7441 23.3103 44.6223 23.5115 44.5396C23.7127 44.4569 23.9282 44.4148 24.1457 44.4159ZM17.5457 31.7915L23.6025 33.8348C23.6733 33.8615 23.7504 33.8664 23.8241 33.8491C23.8977 33.8318 23.9645 33.7929 24.016 33.7375C24.1214 33.6321 24.162 33.4699 24.1133 33.324L22.143 27.4699C22.889 26.0591 23.2863 24.478 23.2863 22.8726C23.2863 17.4564 18.8755 13.0537 13.4592 13.0537C8.05114 13.0537 3.64844 17.4564 3.64844 22.8726C3.64844 28.2807 8.05114 32.6834 13.4592 32.6834C14.8782 32.6834 16.2484 32.3834 17.5457 31.7915ZM4.45925 22.8726C4.45925 17.9024 8.49709 13.8645 13.4592 13.8645C18.4295 13.8645 22.4755 17.9024 22.4755 22.8726C22.4755 24.397 22.0863 25.9051 21.3484 27.2348C21.2917 27.3321 21.2836 27.4537 21.316 27.5591L23.0836 32.8051L17.643 30.9726C17.5947 30.954 17.543 30.9459 17.4913 30.9487C17.4396 30.9515 17.3891 30.9652 17.343 30.9888C16.1275 31.5679 14.7976 31.8672 13.4511 31.8645C8.49709 31.8726 4.45925 27.8348 4.45925 22.8726Z" fill="#FFD40D"/>
<path d="M19.5247 26.2942V25.7023C19.5247 25.5888 19.5004 25.4834 19.4598 25.3861C19.695 25.151 19.8328 24.8266 19.8328 24.478C19.8328 24.1293 19.695 23.8131 19.4761 23.578C19.695 23.3428 19.8328 23.0347 19.8328 22.6861C19.8328 22.3131 19.6707 21.9726 19.4193 21.7374C19.4842 21.6077 19.5247 21.478 19.5085 21.332C19.4021 20.0209 18.804 18.7984 17.8341 17.9096C16.8642 17.0209 15.5942 16.5317 14.2788 16.5401H13.0707C11.6598 16.5401 10.3463 17.0834 9.35714 18.0807C8.48442 18.952 7.94744 20.1035 7.84093 21.332C7.82471 21.478 7.86525 21.6077 7.93011 21.7374C7.67876 21.9726 7.5166 22.3131 7.5166 22.6861C7.5166 23.0347 7.65444 23.3428 7.88147 23.578C7.65444 23.8131 7.5166 24.1293 7.5166 24.478C7.5166 24.8996 7.72741 25.2888 8.06795 25.5239C8.05174 25.5807 8.03552 25.6374 8.03552 25.6942V26.278C8.03552 26.8113 8.24737 27.3227 8.62447 27.6998C9.00157 28.0769 9.51303 28.2888 10.0463 28.2888H17.5301C18.6166 28.2969 19.5247 27.3969 19.5247 26.2942ZM8.83011 24.8996C8.76525 24.8996 8.70038 24.9239 8.63552 24.9401C8.54337 24.9049 8.46395 24.8427 8.40756 24.7618C8.35118 24.6808 8.32043 24.5848 8.3193 24.4861C8.3193 24.2104 8.53822 23.9915 8.8139 23.9915H18.5274C18.795 23.9915 19.0139 24.2104 19.0139 24.4861C19.0139 24.6645 18.9247 24.8185 18.7707 24.9077L18.7625 24.9158C18.7463 24.9158 18.7301 24.9077 18.7139 24.9077H8.83011V24.8996ZM8.3193 22.6942C8.3193 22.4185 8.53822 22.1996 8.8139 22.1996H18.5274C18.795 22.1996 19.0139 22.4185 19.0139 22.6942C19.0139 22.9699 18.8031 23.1807 18.5274 23.1807H8.8139C8.53822 23.1807 8.3193 22.9618 8.3193 22.6942ZM9.92471 18.6564C10.7517 17.8212 11.8707 17.3591 13.0625 17.3591H14.2707C16.5896 17.3591 18.495 19.1023 18.6896 21.3888C18.6734 21.3888 18.6571 21.3969 18.6409 21.3969C18.6004 21.3969 18.568 21.3888 18.5274 21.3888H8.8139C8.75714 21.3888 8.70038 21.3969 8.64363 21.405C8.73282 20.3672 9.18687 19.3942 9.92471 18.6564ZM8.83011 26.2942L8.82201 25.7104H18.7058V26.2942C18.7058 26.951 18.1707 27.4942 17.5058 27.4942H10.022C9.37336 27.4861 8.83011 26.951 8.83011 26.2942Z" fill="#FFD40D"/>
<path d="M56.3517 42.2349C56.3517 39.7457 54.6571 37.6376 52.2328 37.0944L51.7139 36.9809V16.5322C51.7139 9.42952 45.9328 3.64844 38.8301 3.64844C31.7274 3.64844 25.9463 9.42952 25.9463 16.5322V20.2538C25.922 20.3917 25.9058 20.5376 25.9058 20.6836V23.5214C25.9058 23.6674 25.9301 23.8133 25.9463 23.9511V35.9187H9.28414C8.98006 35.9188 8.67952 35.9839 8.40262 36.1096C8.12572 36.2352 7.87884 36.4185 7.6785 36.6473C7.47816 36.876 7.32897 37.1449 7.24092 37.4359C7.15286 37.727 7.12798 38.0335 7.16792 38.3349L9.349 54.5106C9.41776 55.0207 9.6694 55.4885 10.0572 55.8271C10.4449 56.1656 10.9424 56.3518 11.4571 56.3511H54.0004C55.2976 56.3511 56.3517 55.2971 56.3517 53.9998V42.2349ZM55.5409 42.2349V46.0782L51.6814 47.7322C50.8139 48.1052 50.2544 48.9484 50.2544 49.8971V55.5403H38.4166C38.6436 55.2484 38.8058 54.8998 38.8544 54.5106L40.6625 41.1079C42.3409 39.9647 44.4247 38.2214 45.5193 36.1214C45.949 36.4052 46.4355 36.6241 46.9706 36.7457L52.0625 37.889C54.1058 38.343 55.5409 40.1268 55.5409 42.2349ZM40.5247 36.6403C40.1193 36.1782 39.5355 35.9106 38.9193 35.9106H32.3922C33.4058 35.116 34.0463 33.8998 34.0463 32.5457V32.5376C35.3274 33.689 36.9004 34.4511 38.8544 34.4511C40.776 34.4511 42.3409 33.6971 43.6058 32.562C43.6139 33.7376 44.0922 34.7998 44.8706 35.5782C43.9706 37.4106 42.1706 38.9917 40.8004 39.9971L41.0274 38.3187C41.1166 37.7187 40.9301 37.1106 40.5247 36.6403ZM26.749 20.2863C26.8415 19.8557 27.0786 19.4697 27.4207 19.1924C27.7629 18.9151 28.1897 18.7632 28.6301 18.762H29.2868V25.443H28.6301C28.1897 25.4418 27.7629 25.2899 27.4207 25.0126C27.0786 24.7353 26.8415 24.3493 26.749 23.9187V20.2863ZM28.6301 17.9511C28.476 17.9511 28.3382 17.9755 28.1922 17.9917V17.3674C28.1922 11.5214 32.9517 6.76195 38.8058 6.76195C44.6517 6.76195 49.4112 11.5214 49.4112 17.3674V17.9917C49.2652 17.9674 49.1274 17.9511 48.9733 17.9511H47.9193C47.6922 17.9511 47.5139 18.1295 47.5139 18.3565V18.5917C45.1625 17.3998 43.5085 15.7133 42.6166 13.5484C42.5903 13.4879 42.5503 13.4343 42.4996 13.3921C42.4489 13.3498 42.389 13.3201 42.3247 13.3052C42.2599 13.2916 42.1927 13.2942 42.1291 13.3125C42.0655 13.3309 42.0074 13.3646 41.9598 13.4106C38.976 16.216 34.9787 17.9592 30.0976 18.5998V18.3647C30.0976 18.1376 29.9193 17.9592 29.6922 17.9592H28.6301V17.9511ZM50.9031 23.5214C50.9031 24.389 50.3274 25.1106 49.5328 25.3538V24.6728C49.5328 24.4457 49.3544 24.2674 49.1274 24.2674C48.9004 24.2674 48.722 24.4457 48.722 24.6728V25.4511H48.3247V18.7701H48.9814C50.0436 18.7701 50.9031 19.6295 50.9031 20.6917V23.5214ZM47.5382 25.962C47.5868 26.1241 47.7409 26.2538 47.9193 26.2538H48.722V26.5944C48.722 27.4944 48.1382 28.2728 47.2787 28.5322L46.3544 28.8079C46.8328 27.8592 47.222 26.8782 47.5382 25.962ZM30.0976 19.4187C34.9787 18.7944 39.0085 17.1079 42.0895 14.3836C43.1517 16.5971 44.976 18.316 47.5058 19.5079V23.0674C47.1571 24.5836 46.4679 26.9998 45.2517 29.1484L41.1652 30.3728C40.7193 29.8619 39.9571 29.5295 39.0977 29.5295C37.7274 29.5295 36.6166 30.3728 36.6166 31.4187C36.6166 32.4647 37.7274 33.3079 39.0977 33.3079C40.4679 33.3079 41.5787 32.4647 41.5787 31.4187C41.5787 31.3133 41.5625 31.2079 41.5382 31.1106L44.6031 30.1944C43.2571 32.1403 41.4003 33.6565 38.8544 33.6565C32.9355 33.6565 30.6652 25.3619 30.0976 22.7511V19.4187ZM40.7679 31.4106C40.7679 31.9944 39.9977 32.489 39.0977 32.489C38.1895 32.489 37.4274 31.9944 37.4274 31.4106C37.4274 30.8268 38.1976 30.3322 39.0977 30.3322C40.0058 30.3322 40.7679 30.8268 40.7679 31.4106ZM47.1409 35.9511C46.3665 35.7822 45.6736 35.3528 45.1777 34.7344C44.6819 34.1161 44.4132 33.3464 44.4166 32.5538V31.7511C44.9355 31.1592 45.3895 30.5106 45.7949 29.8295L47.5058 29.3187C48.7139 28.9538 49.5247 27.8592 49.5247 26.6025V26.1971C50.0517 26.0917 50.522 25.8241 50.8949 25.4592V36.7944L47.1409 35.9511ZM38.8301 4.45925C45.4868 4.45925 50.9031 9.87546 50.9031 16.5322V18.7457C50.7085 18.5511 50.4733 18.3971 50.222 18.2674V17.3755C50.222 11.0836 45.0976 5.95925 38.8058 5.95925C32.5058 5.95925 27.3814 11.0836 27.3814 17.3755V18.2755C27.1544 18.3971 26.9355 18.543 26.749 18.7133V16.5403C26.749 9.87546 32.1652 4.45925 38.8301 4.45925ZM26.749 25.4998C27.2355 25.9701 27.9004 26.2538 28.6301 26.2538H29.6922C29.9193 26.2538 30.0976 26.0755 30.0976 25.8484V25.816C30.7463 27.7782 31.7436 30.016 33.2355 31.7187V32.5538C33.2355 34.143 32.1652 35.5214 30.6247 35.9187H26.7571V25.4998H26.749ZM10.1517 54.3971L7.97873 38.2214C7.93008 37.8484 8.0436 37.4674 8.29495 37.1755C8.5463 36.8836 8.90306 36.7214 9.28414 36.7214H38.9193C39.3004 36.7214 39.6571 36.8836 39.9085 37.1755C40.1598 37.4592 40.2733 37.8403 40.2247 38.2214L38.0436 54.3971C37.9544 55.0376 37.4031 55.5241 36.7544 55.5322H11.4571C10.8004 55.5403 10.2409 55.0457 10.1517 54.3971ZM54.0004 55.5403H51.0733V49.8971C51.0733 49.2809 51.4382 48.7214 52.0058 48.4782L55.5409 46.9619V53.9998C55.5409 54.843 54.8517 55.5403 54.0004 55.5403Z" fill="#FFD40D"/>
</svg>
