<svg width="60" height="60" viewBox="0 0 60 60" fill="none" xmlns="http://www.w3.org/2000/svg">
<g clip-path="url(#clip0_2542_3607)">
<path d="M30 55.0061C27.9325 55.0061 26.25 53.3236 26.25 51.2561C26.25 49.7999 27.4187 45.0049 30 45.0049C32.5813 45.0049 33.75 49.7999 33.75 51.2561C33.75 53.3236 32.0675 55.0061 30 55.0061ZM30 47.6111C29.4638 48.2099 28.75 50.2236 28.75 51.2561C28.75 51.9461 29.3112 52.5061 30 52.5061C30.6887 52.5061 31.25 51.9461 31.25 51.2561C31.25 50.2236 30.5363 48.2099 30 47.6111Z" fill="#FFD40D"/>
<path d="M30 55.0122C25.175 55.0122 21.25 51.026 21.25 46.126C21.25 43.1972 23.2588 42.0785 24.8738 41.1785C25.895 40.6097 26.8613 40.071 27.5813 39.1285C27.765 38.876 27.9475 38.566 28.1063 38.2285C28.54 37.3085 28.75 36.1447 28.75 34.6747C28.75 33.1435 29.55 32.6947 30.0275 32.5647C30.5975 32.4085 32.1125 31.9897 35.5612 37.7735L35.7238 38.0572C36.4275 39.2585 38.75 43.4322 38.75 46.1247C38.75 51.0247 34.825 55.0122 30 55.0122ZM31.205 35.8785C31.1025 37.1922 30.8275 38.316 30.3687 39.2922C30.1412 39.7747 29.8775 40.2222 29.5837 40.6235C28.5325 42.001 27.235 42.7235 26.0912 43.3597C24.4675 44.266 23.75 44.7247 23.75 46.1247C23.75 49.646 26.5538 52.511 30 52.511C33.4462 52.511 36.25 49.646 36.25 46.1247C36.25 44.7947 35.1687 42.0535 33.5588 39.3072L33.4037 39.0372C32.525 37.5622 31.7675 36.5347 31.205 35.8785Z" fill="#FFD40D"/>
<path d="M28.575 41.1375C28.4988 41.1375 28.4237 41.13 28.3475 41.1163C27.8925 41.0325 27.3537 40.92 26.81 40.7262C24.6487 40.0025 22.7713 38.5262 21.5438 36.5787C20.535 35.0025 20 33.1562 20 31.25V23.75C20 23.0587 20.56 22.5 21.25 22.5H38.75C39.44 22.5 40 23.0587 40 23.75V31.25C40 32.545 39.755 33.8062 39.2712 34.9962C39.06 35.5437 38.78 36.0887 38.445 36.5987C37.6763 37.8337 36.585 38.9262 35.3038 39.7337C35.0162 39.915 34.6662 39.9712 34.3337 39.8875C34.0025 39.805 33.72 39.5912 33.5512 39.2937L33.405 39.0375C32.525 37.5612 31.7675 36.5337 31.2063 35.8787C31.1038 37.1925 30.8287 38.3162 30.37 39.2925C30.1425 39.775 29.8787 40.2225 29.585 40.6237C29.3462 40.9512 28.9688 41.1375 28.575 41.1375ZM22.5 25V31.25C22.5 32.68 22.8988 34.0587 23.6538 35.24C24.5788 36.7087 25.9875 37.8162 27.6225 38.3637C27.7375 38.4037 27.8562 38.4425 27.9837 38.4775C28.0262 38.3962 28.0675 38.3137 28.1075 38.2287C28.54 37.3087 28.75 36.145 28.75 34.675C28.75 33.1437 29.55 32.695 30.0275 32.565C30.565 32.4187 31.9437 32.035 34.9925 36.8487C35.5175 36.3787 35.9737 35.8387 36.3387 35.2537C36.5925 34.8662 36.7912 34.48 36.9462 34.0762C37.3162 33.165 37.5 32.2212 37.5 31.25V25H22.5Z" fill="#FFD40D"/>
<path d="M26.25 31.25C25.56 31.25 25 30.6912 25 30V28.75C25 28.0588 25.56 27.5 26.25 27.5C26.94 27.5 27.5 28.0588 27.5 28.75V30C27.5 30.6912 26.94 31.25 26.25 31.25ZM33.75 31.25C33.06 31.25 32.5 30.6912 32.5 30V28.75C32.5 28.0588 33.06 27.5 33.75 27.5C34.44 27.5 35 28.0588 35 28.75V30C35 30.6912 34.44 31.25 33.75 31.25ZM38.75 25H21.25C20.56 25 20 24.4412 20 23.75V19.8962C16.4575 19.2987 13.75 16.21 13.75 12.5C13.75 8.36375 17.1137 5 21.25 5C21.7975 5 22.3412 5.06 22.8737 5.1775C23.8537 2.1425 26.695 0 30 0C33.305 0 36.1462 2.1425 37.1263 5.1775C37.6588 5.06 38.2025 5 38.75 5C42.8862 5 46.25 8.36375 46.25 12.5C46.25 16.21 43.5425 19.2987 40 19.8962V23.75C40 24.4412 39.44 25 38.75 25ZM22.5 22.5H37.5V18.75C37.5 18.0588 38.06 17.5 38.75 17.5C41.5075 17.5 43.75 15.2575 43.75 12.5C43.75 9.7425 41.5075 7.5 38.75 7.5C38.05 7.5 37.36 7.645 36.6975 7.93375C36.3337 8.0925 35.9175 8.0675 35.5737 7.86875C35.23 7.67125 35.0012 7.32125 34.9575 6.92625C34.6737 4.4025 32.5425 2.5 30 2.5C27.4575 2.5 25.3263 4.4025 25.0425 6.92625C24.9988 7.32 24.77 7.67125 24.4263 7.86875C24.0838 8.0675 23.665 8.0925 23.3025 7.93375C22.64 7.645 21.95 7.5 21.25 7.5C18.4925 7.5 16.25 9.7425 16.25 12.5C16.25 15.2575 18.4925 17.5 21.25 17.5C21.94 17.5 22.5 18.0588 22.5 18.75V22.5ZM48.75 60H11.25C10.56 60 10 59.4412 10 58.75V53.75C10 53.0588 10.56 52.5 11.25 52.5H48.75C49.44 52.5 50 53.0588 50 53.75V58.75C50 59.4412 49.44 60 48.75 60ZM12.5 57.5H47.5V55H12.5V57.5Z" fill="#FFD40D"/>
</g>
<defs>
<clipPath id="clip0_2542_3607">
<rect width="60" height="60" fill="white"/>
</clipPath>
</defs>
</svg>
