<svg width="60" height="60" viewBox="0 0 60 60" fill="none" xmlns="http://www.w3.org/2000/svg">
<g clip-path="url(#clip0_2542_3615)">
<path d="M11.25 16.875V0.9375C11.25 0.68886 11.1512 0.450403 10.9754 0.274587C10.7996 0.0987721 10.5611 0 10.3125 0C10.0639 0 9.8254 0.0987721 9.64959 0.274587C9.47377 0.450403 9.375 0.68886 9.375 0.9375V13.125H6.5625V0.9375C6.5625 0.68886 6.46373 0.450403 6.28791 0.274587C6.1121 0.0987721 5.87364 0 5.625 0C5.37636 0 5.1379 0.0987721 4.96209 0.274587C4.78627 0.450403 4.6875 0.68886 4.6875 0.9375V13.125H1.875V0.9375C1.875 0.68886 1.77623 0.450403 1.60041 0.274587C1.4246 0.0987721 1.18614 0 0.9375 0C0.68886 0 0.450403 0.0987721 0.274587 0.274587C0.0987721 0.450403 0 0.68886 0 0.9375L0 16.875C0.00280883 17.8461 0.257755 18.7998 0.739878 19.6428C1.222 20.4858 1.91477 21.1891 2.75036 21.6839L1.16272 55.3125V55.5185C1.16147 56.7041 1.63058 57.8418 2.46714 58.682C3.3037 59.5222 4.43938 59.9962 5.625 60C6.23358 59.9987 6.83551 59.8734 7.39402 59.6317C7.95253 59.39 8.45589 59.0369 8.87335 58.5941C9.29081 58.1513 9.61361 57.628 9.82201 57.0562C10.0304 56.4844 10.1201 55.8761 10.0855 55.2686L8.49966 21.6839C9.33524 21.1891 10.028 20.4858 10.5101 19.6428C10.9922 18.7998 11.2472 17.8461 11.25 16.875ZM7.50187 57.3157C7.26152 57.5724 6.97078 57.7768 6.64784 57.9161C6.32489 58.0553 5.97669 58.1264 5.625 58.125C4.93651 58.1216 4.27746 57.8453 3.79243 57.3567C3.30739 56.8681 3.03598 56.207 3.03772 55.5185L3.03585 55.3564L4.59225 22.3956C4.93253 22.4623 5.27826 22.4972 5.625 22.5C5.97172 22.4972 6.31744 22.4623 6.65771 22.3956L8.21411 55.3647C8.23585 55.7214 8.18383 56.0787 8.06128 56.4144C7.93874 56.7501 7.7483 57.0569 7.50187 57.3157ZM5.625 20.625C4.63079 20.6239 3.67762 20.2284 2.9746 19.5254C2.27159 18.8224 1.87614 17.8692 1.875 16.875V15H9.375V16.875C9.37386 17.8692 8.97841 18.8224 8.2754 19.5254C7.57238 20.2284 6.61921 20.6239 5.625 20.625ZM40.6073 19.3936C40.5953 19.3816 40.579 19.3778 40.5665 19.3665C37.7608 16.5702 33.9612 15 30 15C26.0388 15 22.2392 16.5702 19.4336 19.3665C19.421 19.3777 19.4047 19.3816 19.3927 19.3936C19.3807 19.4056 19.3767 19.4221 19.3654 19.4349C16.5697 22.2403 15 26.0395 15 30C15 33.9606 16.5697 37.7598 19.3654 40.5652C19.3766 40.5779 19.3806 40.5943 19.3927 40.6065C19.4048 40.6187 19.421 40.6223 19.4336 40.6336C22.2392 43.4299 26.0388 45.0001 30 45.0001C33.9612 45.0001 37.7608 43.4299 40.5665 40.6336C40.579 40.6224 40.5953 40.6185 40.6073 40.6065C40.6193 40.5945 40.6233 40.578 40.6347 40.5652C43.4303 37.7598 45 33.9606 45 30C45 26.0395 43.4303 22.2403 40.6347 19.4349C40.6233 19.4221 40.6194 19.4057 40.6073 19.3936ZM42.1875 30.9375H43.0775C42.8779 33.7618 41.7656 36.4446 39.9081 38.5815L39.2816 37.955C39.1052 37.7821 38.8677 37.6859 38.6208 37.6871C38.3738 37.6884 38.1373 37.787 37.9626 37.9617C37.788 38.1363 37.6893 38.3728 37.6881 38.6198C37.6868 38.8668 37.7831 39.1042 37.956 39.2806L38.5822 39.9069C36.4453 41.7649 33.7622 42.8778 30.9375 43.0775V42.1875C30.9375 41.9389 30.8387 41.7004 30.6629 41.5246C30.4871 41.3488 30.2486 41.25 30 41.25C29.7514 41.25 29.5129 41.3488 29.3371 41.5246C29.1613 41.7004 29.0625 41.9389 29.0625 42.1875V43.0775C26.2378 42.8778 23.5547 41.7651 21.4177 39.907L22.044 39.2808C22.2168 39.1044 22.3131 38.8669 22.3119 38.6199C22.3106 38.373 22.212 38.1365 22.0373 37.9618C21.8627 37.7872 21.6262 37.6885 21.3792 37.6873C21.1322 37.686 20.8948 37.7823 20.7184 37.9552L20.0919 38.5816C18.2344 36.4447 17.122 33.7618 16.9225 30.9375H17.8125C18.0611 30.9375 18.2996 30.8387 18.4754 30.6629C18.6512 30.4871 18.75 30.2486 18.75 30C18.75 29.7514 18.6512 29.5129 18.4754 29.3371C18.2996 29.1613 18.0611 29.0625 17.8125 29.0625H16.9225C17.1221 26.2382 18.2344 23.5554 20.0919 21.4185L20.7184 22.045C20.8948 22.2179 21.1323 22.3141 21.3792 22.3129C21.6262 22.3116 21.8627 22.213 22.0374 22.0383C22.212 21.8637 22.3107 21.6272 22.3119 21.3802C22.3132 21.1332 22.2169 20.8958 22.044 20.7194L21.4178 20.0931C23.5547 18.2351 26.2378 17.1222 29.0625 16.9225V17.8125C29.0625 18.0611 29.1613 18.2996 29.3371 18.4754C29.5129 18.6512 29.7514 18.75 30 18.75C30.2486 18.75 30.4871 18.6512 30.6629 18.4754C30.8387 18.2996 30.9375 18.0611 30.9375 17.8125V16.9225C33.7622 17.1222 36.4453 18.2349 38.5823 20.093L37.956 20.7192C37.8675 20.8059 37.7971 20.9093 37.7488 21.0234C37.7005 21.1376 37.6754 21.2601 37.6747 21.384C37.6741 21.5079 37.6981 21.6307 37.7452 21.7453C37.7923 21.8599 37.8617 21.964 37.9493 22.0516C38.0369 22.1392 38.141 22.2086 38.2556 22.2557C38.3702 22.3028 38.493 22.3267 38.6169 22.3261C38.7408 22.3255 38.8633 22.3003 38.9774 22.252C39.0915 22.2038 39.1949 22.1333 39.2816 22.0448L39.9081 21.4184C41.7656 23.5553 42.878 26.2382 43.0775 29.0625H42.1875C41.9389 29.0625 41.7004 29.1613 41.5246 29.3371C41.3488 29.5129 41.25 29.7514 41.25 30C41.25 30.2486 41.3488 30.4871 41.5246 30.6629C41.7004 30.8387 41.9389 30.9375 42.1875 30.9375ZM59.4818 0.0988688C59.3261 0.0212078 59.1518 -0.0116144 58.9785 0.00407058C58.8052 0.0197555 58.6396 0.0833296 58.5004 0.187688C56.0607 2.02658 54.0801 4.40553 52.7137 7.13805C51.3474 9.87057 50.6325 12.8824 50.625 15.9375V36.5625C50.6249 36.6856 50.6491 36.8076 50.6962 36.9214C50.7433 37.0351 50.8124 37.1385 50.8994 37.2256C50.9865 37.3126 51.0899 37.3817 51.2036 37.4288C51.3174 37.4759 51.4394 37.5001 51.5625 37.5H52.3459L50.94 55.1001C50.891 55.7094 50.9657 56.3223 51.1594 56.902C51.3532 57.4817 51.6621 58.0163 52.0676 58.4737C52.4731 58.931 52.9668 59.3018 53.5191 59.5636C54.0715 59.8254 54.671 59.9729 55.2817 59.9973C55.8925 60.0217 56.5019 59.9224 57.0733 59.7055C57.6448 59.4885 58.1665 59.1583 58.6071 58.7347C59.0478 58.3111 59.3983 57.8028 59.6377 57.2404C59.877 56.678 60.0003 56.073 60 55.4617V0.9375C59.9998 0.763431 59.9512 0.592843 59.8597 0.444763C59.7682 0.296682 59.6374 0.176932 59.4818 0.0988688ZM58.125 55.4617C58.1244 56.1677 57.8437 56.8447 57.3446 57.344C56.8455 57.8433 56.1686 58.1242 55.4627 58.125C55.0951 58.1251 54.7314 58.049 54.3947 57.9016C54.0579 57.7543 53.7553 57.5388 53.5059 57.2688C53.2565 56.9987 53.0657 56.68 52.9456 56.3326C52.8254 55.9852 52.7784 55.6167 52.8076 55.2503L54.2255 37.5H58.125V55.4617ZM58.125 35.625H52.5V15.9375C52.5061 13.5041 53.0081 11.0975 53.9752 8.86447C54.9423 6.63149 56.3543 4.619 58.125 2.94983V35.625ZM30 11.25C26.2916 11.25 22.6665 12.3497 19.5831 14.4099C16.4996 16.4702 14.0964 19.3986 12.6773 22.8247C11.2581 26.2508 10.8868 30.0208 11.6103 33.6579C12.3337 37.2951 14.1195 40.636 16.7417 43.2583C19.364 45.8805 22.7049 47.6663 26.3421 48.3897C29.9792 49.1132 33.7492 48.7419 37.1753 47.3227C40.6014 45.9036 43.5298 43.5004 45.5901 40.4169C47.6503 37.3335 48.75 33.7084 48.75 30C48.7443 25.0289 46.767 20.2631 43.252 16.748C39.7369 13.233 34.9711 11.2557 30 11.25ZM30 46.875C26.6624 46.875 23.3998 45.8853 20.6248 44.0311C17.8497 42.1768 15.6868 39.5413 14.4095 36.4578C13.1323 33.3743 12.7981 29.9813 13.4492 26.7079C14.1004 23.4344 15.7076 20.4276 18.0676 18.0676C20.4276 15.7076 23.4344 14.1004 26.7079 13.4492C29.9813 12.7981 33.3743 13.1323 36.4578 14.4095C39.5413 15.6868 42.1768 17.8497 44.0311 20.6248C45.8853 23.3998 46.875 26.6624 46.875 30C46.87 34.474 45.0905 38.7633 41.9269 41.9269C38.7633 45.0905 34.474 46.87 30 46.875ZM30.9375 27.3602V24.375C30.9375 24.1264 30.8387 23.8879 30.6629 23.7121C30.4871 23.5363 30.2486 23.4375 30 23.4375C29.7514 23.4375 29.5129 23.5363 29.3371 23.7121C29.1613 23.8879 29.0625 24.1264 29.0625 24.375V27.3602C28.5157 27.5528 28.0419 27.91 27.7062 28.3826C27.3705 28.8553 27.1893 29.4203 27.1875 30C27.1897 30.4177 27.2861 30.8296 27.4694 31.2049L24.6496 34.0247C24.5612 34.1114 24.4907 34.2148 24.4425 34.3289C24.3942 34.443 24.369 34.5655 24.3684 34.6894C24.3677 34.8133 24.3917 34.9361 24.4388 35.0507C24.4859 35.1653 24.5553 35.2694 24.6429 35.357C24.7305 35.4446 24.8346 35.514 24.9492 35.5611C25.0638 35.6083 25.1866 35.6322 25.3105 35.6316C25.4344 35.6309 25.5569 35.6058 25.671 35.5575C25.7852 35.5092 25.8886 35.4388 25.9753 35.3503L28.795 32.5306C29.1704 32.7139 29.5823 32.8103 30 32.8125C30.6628 32.8142 31.3049 32.5811 31.8123 32.1545C32.3197 31.728 32.6597 31.1356 32.772 30.4824C32.8843 29.8291 32.7617 29.1572 32.4259 28.5857C32.0901 28.0142 31.5628 27.58 30.9375 27.3602ZM30 30.9375C29.8146 30.9375 29.6333 30.8825 29.4792 30.7795C29.325 30.6765 29.2048 30.5301 29.1339 30.3588C29.0629 30.1875 29.0443 29.999 29.0805 29.8171C29.1167 29.6352 29.206 29.4682 29.3371 29.3371C29.4682 29.206 29.6352 29.1167 29.8171 29.0805C29.999 29.0443 30.1875 29.0629 30.3588 29.1339C30.5301 29.2048 30.6765 29.325 30.7795 29.4792C30.8825 29.6333 30.9375 29.8146 30.9375 30C30.9372 30.2485 30.8383 30.4868 30.6626 30.6626C30.4868 30.8383 30.2485 30.9372 30 30.9375Z" fill="#FFD40D"/>
</g>
<defs>
<clipPath id="clip0_2542_3615">
<rect width="60" height="60" fill="white"/>
</clipPath>
</defs>
</svg>
