<svg width="60" height="60" viewBox="0 0 60 60" fill="none" xmlns="http://www.w3.org/2000/svg">
<g clip-path="url(#clip0_2542_3594)">
<path d="M40.6055 39.4922H33.3398C32.7961 39.4928 32.2749 39.7091 31.8904 40.0935C31.5059 40.478 31.2897 40.9993 31.2891 41.543V44.4727C31.2897 45.0164 31.5059 45.5376 31.8904 45.9221C32.2749 46.3066 32.7961 46.5228 33.3398 46.5234H40.6055C41.1492 46.5228 41.6704 46.3066 42.0549 45.9221C42.4394 45.5376 42.6556 45.0164 42.6562 44.4727V41.543C42.6556 40.9993 42.4394 40.478 42.0549 40.0935C41.6704 39.7091 41.1492 39.4928 40.6055 39.4922ZM40.8984 44.4727C40.8983 44.5503 40.8674 44.6248 40.8125 44.6797C40.7576 44.7346 40.6831 44.7655 40.6055 44.7656H33.3398C33.2622 44.7655 33.1877 44.7346 33.1328 44.6797C33.0779 44.6248 33.047 44.5503 33.0469 44.4727V41.543C33.047 41.4653 33.0779 41.3908 33.1328 41.3359C33.1877 41.281 33.2622 41.2501 33.3398 41.25H40.6055C40.6831 41.2501 40.7576 41.281 40.8125 41.3359C40.8674 41.3908 40.8983 41.4653 40.8984 41.543V44.4727ZM43.5938 0H16.4062C15.2411 0.00130273 14.1241 0.464715 13.3003 1.28857C12.4764 2.11242 12.013 3.22943 12.0117 4.39453V55.6055C12.013 56.7706 12.4764 57.8876 13.3003 58.7114C14.1241 59.5353 15.2411 59.9987 16.4062 60H43.5938C44.7589 59.9987 45.8759 59.5353 46.6997 58.7114C47.5236 57.8876 47.987 56.7706 47.9883 55.6055V4.39453C47.987 3.22943 47.5236 2.11242 46.6997 1.28857C45.8759 0.464715 44.7589 0.00130273 43.5938 0ZM36.9568 1.75781L36.3209 3.02977C36.2483 3.17612 36.1362 3.29921 35.9972 3.38509C35.8582 3.47096 35.698 3.51618 35.5346 3.51562H24.4652C24.3019 3.51616 24.1417 3.47093 24.0027 3.38505C23.8638 3.29918 23.7517 3.1761 23.6791 3.02977L23.0432 1.75781H36.9568ZM46.2305 55.6055C46.2297 56.3045 45.9516 56.9747 45.4573 57.4691C44.963 57.9634 44.2928 58.2414 43.5938 58.2422H16.4062C15.7072 58.2414 15.037 57.9634 14.5427 57.4691C14.0484 56.9747 13.7703 56.3045 13.7695 55.6055V4.39453C13.7703 3.69547 14.0484 3.02526 14.5427 2.53095C15.037 2.03663 15.7072 1.75859 16.4062 1.75781H21.0779L22.107 3.81586C22.3246 4.25491 22.6609 4.62418 23.0778 4.88181C23.4946 5.13944 23.9753 5.27511 24.4654 5.27344H35.5348C36.0248 5.27509 36.5055 5.13941 36.9223 4.88178C37.3391 4.62415 37.6754 4.25489 37.893 3.81586L38.9221 1.75781H43.5938C44.2928 1.75859 44.963 2.03663 45.4573 2.53095C45.9516 3.02526 46.2297 3.69547 46.2305 4.39453V55.6055ZM28.5938 44.4727V41.543C28.5931 40.9993 28.3769 40.478 27.9924 40.0935C27.6079 39.7091 27.0867 39.4928 26.543 39.4922H19.2773C18.7336 39.4928 18.2124 39.7091 17.8279 40.0935C17.4434 40.478 17.2272 40.9993 17.2266 41.543V44.4727C17.2272 45.0164 17.4434 45.5376 17.8279 45.9221C18.2124 46.3066 18.7336 46.5228 19.2773 46.5234H26.543C27.0867 46.5228 27.6079 46.3066 27.9924 45.9221C28.3769 45.5376 28.5931 45.0164 28.5938 44.4727ZM18.9844 44.4727V41.543C18.9845 41.4653 19.0154 41.3908 19.0703 41.3359C19.1252 41.281 19.1997 41.2501 19.2773 41.25H26.543C26.6206 41.2501 26.6951 41.281 26.75 41.3359C26.8049 41.3908 26.8358 41.4653 26.8359 41.543V44.4727C26.8358 44.5503 26.8049 44.6248 26.75 44.6797C26.6951 44.7346 26.6206 44.7655 26.543 44.7656H19.2773C19.1997 44.7655 19.1252 44.7346 19.0703 44.6797C19.0154 44.6248 18.9845 44.5503 18.9844 44.4727ZM21.6797 27.1875H38.3203C38.9529 27.1875 39.5644 26.9601 40.0433 26.5468C40.5222 26.1334 40.8364 25.5617 40.9288 24.9359C41.0212 24.3101 40.8855 23.6719 40.5464 23.1378C40.2074 22.6038 39.6877 22.2094 39.082 22.0267V20.4492C39.0797 18.6398 38.4293 16.8911 37.2486 15.5199C36.068 14.1486 34.4353 13.2457 32.6463 12.9745C32.8584 12.528 32.9541 12.035 32.9244 11.5415C32.8947 11.048 32.7406 10.5701 32.4765 10.1522C32.2123 9.73433 31.8467 9.39007 31.4137 9.15152C30.9807 8.91296 30.4944 8.78786 30 8.78786C29.5056 8.78786 29.0193 8.91296 28.5863 9.15152C28.1533 9.39007 27.7877 9.73433 27.5235 10.1522C27.2594 10.5701 27.1053 11.048 27.0756 11.5415C27.0459 12.035 27.1416 12.528 27.3537 12.9745C25.5647 13.2457 23.932 14.1486 22.7514 15.5199C21.5707 16.8911 20.9203 18.6398 20.918 20.4492V22.0267C20.3123 22.2094 19.7926 22.6038 19.4536 23.1378C19.1145 23.6719 18.9788 24.3101 19.0712 24.9359C19.1636 25.5617 19.4779 26.1334 19.9567 26.5468C20.4356 26.9601 21.0471 27.1875 21.6797 27.1875ZM30 10.5469C30.2318 10.5469 30.4583 10.6156 30.6511 10.7444C30.8438 10.8731 30.994 11.0562 31.0827 11.2703C31.1714 11.4844 31.1946 11.72 31.1494 11.9474C31.1041 12.1747 30.9925 12.3835 30.8286 12.5474C30.6648 12.7113 30.4559 12.8229 30.2286 12.8681C30.0013 12.9133 29.7657 12.8901 29.5515 12.8014C29.3374 12.7127 29.1544 12.5625 29.0256 12.3698C28.8969 12.1771 28.8281 11.9505 28.8281 11.7188C28.8285 11.4081 28.952 11.1102 29.1717 10.8905C29.3914 10.6708 29.6893 10.5472 30 10.5469ZM22.6758 20.4492C22.6775 18.9113 23.2892 17.4368 24.3767 16.3494C25.4642 15.2619 26.9386 14.6502 28.4766 14.6484H31.5234C33.0614 14.6502 34.5358 15.2619 35.6233 16.3494C36.7108 17.4368 37.3225 18.9113 37.3242 20.4492V21.9141H22.6758V20.4492ZM21.6797 23.6719H38.3203C38.5534 23.6719 38.777 23.7645 38.9418 23.9293C39.1066 24.0941 39.1992 24.3177 39.1992 24.5508C39.1992 24.7839 39.1066 25.0074 38.9418 25.1723C38.777 25.3371 38.5534 25.4297 38.3203 25.4297H21.6797C21.4466 25.4297 21.223 25.3371 21.0582 25.1723C20.8934 25.0074 20.8008 24.7839 20.8008 24.5508C20.8008 24.3177 20.8934 24.0941 21.0582 23.9293C21.223 23.7645 21.4466 23.6719 21.6797 23.6719ZM39.3164 52.9688H20.6836C20.4505 52.9688 20.2269 53.0613 20.0621 53.2262C19.8973 53.391 19.8047 53.6146 19.8047 53.8477C19.8047 54.0808 19.8973 54.3043 20.0621 54.4691C20.2269 54.634 20.4505 54.7266 20.6836 54.7266H39.3164C39.5495 54.7266 39.7731 54.634 39.9379 54.4691C40.1027 54.3043 40.1953 54.0808 40.1953 53.8477C40.1953 53.6146 40.1027 53.391 39.9379 53.2262C39.7731 53.0613 39.5495 52.9688 39.3164 52.9688ZM19.8633 35.9766H31.2305C31.4636 35.9766 31.6871 35.884 31.852 35.7191C32.0168 35.5543 32.1094 35.3308 32.1094 35.0977C32.1094 34.8646 32.0168 34.641 31.852 34.4762C31.6871 34.3113 31.4636 34.2188 31.2305 34.2188H19.8633C19.6302 34.2188 19.4066 34.3113 19.2418 34.4762C19.077 34.641 18.9844 34.8646 18.9844 35.0977C18.9844 35.3308 19.077 35.5543 19.2418 35.7191C19.4066 35.884 19.6302 35.9766 19.8633 35.9766ZM19.8633 32.4609H40.0195C40.2526 32.4609 40.4762 32.3683 40.641 32.2035C40.8058 32.0387 40.8984 31.8151 40.8984 31.582C40.8984 31.3489 40.8058 31.1254 40.641 30.9605C40.4762 30.7957 40.2526 30.7031 40.0195 30.7031H19.8633C19.6302 30.7031 19.4066 30.7957 19.2418 30.9605C19.077 31.1254 18.9844 31.3489 18.9844 31.582C18.9844 31.8151 19.077 32.0387 19.2418 32.2035C19.4066 32.3683 19.6302 32.4609 19.8633 32.4609Z" fill="#FFD40D"/>
</g>
<defs>
<clipPath id="clip0_2542_3594">
<rect width="60" height="60" fill="white"/>
</clipPath>
</defs>
</svg>
